M48
;Layer_Color=9474304
;FILE_FORMAT=2:5
INCH
;TYPE=PLATED
T2F00S00C0.03543
T3F00S00C0.04331
T4F00S00C0.05118
T5F00S00C0.05906
T6F00S00C0.06299
;TYPE=NON_PLATED
T7F00S00C0.02756
T8F00S00C0.12598
T9F00S00C0.12992
%
T02
X0316299Y0250590
X0326299
X0336299
X0346299
X0356299
X0366299
X0376299
X0386299
X0373799Y0362224
X0363799
X0353799
X0343799
X0338799Y0372224
X0348799
X0358799
X0368799
X0409449Y0368779
Y0378780
Y0388779
Y0398780
X0459720Y0378685
Y0370811
Y0362937
T03
X0356693Y0302953
X0396063
X0299823Y0322441
Y0340158
X0299429Y0370079
Y0387795
T04
X0426378Y0255709
X0440158
X0309626Y0317520
Y0345079
X0309232Y0365158
Y0392717
T05
X0459720Y0354669
Y0386953
T06
X0325925Y0409035
X0386673
T07
X0457380Y0319378
Y0335323
T08
X0463189Y0250000
X0294291
Y0407087
X0463189
T09
X0333799Y0397224
X0378799
M30
