M48
;Layer_Color=9474304
;FILE_FORMAT=2:5
INCH
;TYPE=PLATED
T1F00S00C0.03543
T2F00S00C0.04331
T3F00S00C0.05906
;TYPE=NON_PLATED
T4F00S00C0.08661
%
T01
X0313386Y0265945
X0323386
X0434764Y0296417
X0444764
X0303543Y0300669
Y0310669
Y0290669
Y0280669
Y0320669
Y0330669
X0366614Y0385236
X0376614
X0386614
X0396614
X0447638Y0384842
Y0376969
Y0369094
T02
X0381890Y0327756
Y0367126
T03
X0447638Y0360827
Y0393110
T04
X0464173Y0249016
X0293307
Y0408071
X0464173
M30
