G04 Layer_Color=65535*
%FSAX25Y25*%
%MOIN*%
G70*
G01*
G75*
%ADD18C,0.01968*%
%ADD19C,0.00984*%
%ADD20C,0.01575*%
%ADD21C,0.00787*%
%ADD22C,0.00394*%
%ADD23C,0.00591*%
D18*
X0488236Y0243795D02*
G03*
X0488236Y0243795I-0007874J0000000D01*
G01*
Y0400882D02*
G03*
X0488236Y0400882I-0007874J0000000D01*
G01*
X0319339D02*
G03*
X0319339Y0400882I-0007874J0000000D01*
G01*
Y0243795D02*
G03*
X0319339Y0243795I-0007874J0000000D01*
G01*
D19*
X0364209Y0327610D02*
G03*
X0364209Y0327610I-0000492J0000000D01*
G01*
X0428776Y0327610D02*
G03*
X0428776Y0327610I-0000492J0000000D01*
G01*
D20*
X0448500Y0310500D02*
X0456500D01*
X0464500Y0306000D02*
Y0314500D01*
X0460500Y0310500D02*
X0468500D01*
D21*
X0442500Y0287500D02*
X0455500Y0300500D01*
Y0270000D02*
X0460500D01*
Y0287500D01*
X0450500Y0270000D02*
X0455500D01*
X0450500D02*
Y0287500D01*
X0442500D02*
X0450500D01*
X0455500Y0300500D02*
X0468500Y0287500D01*
X0460500D02*
X0468500D01*
X0405000D02*
X0413000D01*
X0400000Y0300500D02*
X0413000Y0287500D01*
X0387000D02*
X0395000D01*
Y0270000D02*
Y0287500D01*
Y0270000D02*
X0400000D01*
X0405000D02*
Y0287500D01*
X0400000Y0270000D02*
X0405000D01*
X0387000Y0287500D02*
X0400000Y0300500D01*
X0411500Y0344500D02*
Y0358500D01*
X0403500D02*
X0411500D01*
X0403500Y0344500D02*
Y0358500D01*
Y0344500D02*
X0411500D01*
X0446000D02*
Y0358500D01*
Y0344500D02*
X0454000D01*
Y0358500D01*
X0446000D02*
X0454000D01*
X0377500Y0344500D02*
Y0358500D01*
X0369500D02*
X0377500D01*
X0369500Y0344500D02*
Y0358500D01*
Y0344500D02*
X0377500D01*
X0437500D02*
Y0358500D01*
Y0344500D02*
X0445500D01*
Y0358500D01*
X0437500D02*
X0445500D01*
X0447000Y0382500D02*
X0461000D01*
X0447000Y0374500D02*
Y0382500D01*
Y0374500D02*
X0461000D01*
Y0382500D01*
X0386000Y0344500D02*
Y0358500D01*
X0378000D02*
X0386000D01*
X0378000Y0344500D02*
Y0358500D01*
Y0344500D02*
X0386000D01*
X0429000D02*
Y0358500D01*
Y0344500D02*
X0437000D01*
Y0358500D01*
X0429000D02*
X0437000D01*
X0465500Y0344500D02*
Y0358500D01*
X0457500D02*
X0465500D01*
X0457500Y0344500D02*
Y0358500D01*
Y0344500D02*
X0465500D01*
X0394500D02*
Y0358500D01*
X0386500D02*
X0394500D01*
X0386500Y0344500D02*
Y0358500D01*
Y0344500D02*
X0394500D01*
X0420500D02*
Y0358500D01*
Y0344500D02*
X0428500D01*
Y0358500D01*
X0420500D02*
X0428500D01*
X0447000Y0374000D02*
X0461000D01*
X0447000Y0366000D02*
Y0374000D01*
Y0366000D02*
X0461000D01*
Y0374000D01*
X0403000Y0344500D02*
Y0358500D01*
X0395000D02*
X0403000D01*
X0395000Y0344500D02*
Y0358500D01*
Y0344500D02*
X0403000D01*
X0420000D02*
Y0358500D01*
X0412000D02*
X0420000D01*
X0412000Y0344500D02*
Y0358500D01*
Y0344500D02*
X0420000D01*
X0447500Y0317000D02*
Y0327000D01*
X0467500D01*
Y0317000D02*
Y0327000D01*
X0447500Y0317000D02*
X0467500D01*
X0463354Y0395291D02*
Y0405291D01*
X0383354Y0395291D02*
X0463354D01*
X0383354D02*
Y0405291D01*
X0463354D01*
X0450287Y0267604D02*
Y0264456D01*
X0451862D01*
X0452387Y0264980D01*
Y0265505D01*
X0451862Y0266030D01*
X0450287D01*
X0451862D01*
X0452387Y0266554D01*
Y0267079D01*
X0451862Y0267604D01*
X0450287D01*
X0453436Y0264456D02*
Y0266554D01*
X0454486Y0267604D01*
X0455535Y0266554D01*
Y0264456D01*
Y0266030D01*
X0453436D01*
X0458684Y0267079D02*
X0458159Y0267604D01*
X0457109D01*
X0456585Y0267079D01*
Y0264980D01*
X0457109Y0264456D01*
X0458159D01*
X0458684Y0264980D01*
X0459733Y0267604D02*
Y0264456D01*
Y0265505D01*
X0461832Y0267604D01*
X0460258Y0266030D01*
X0461832Y0264456D01*
X0450287Y0261936D02*
Y0258787D01*
X0452387D01*
X0453436Y0261936D02*
X0454486D01*
X0453961D01*
Y0258787D01*
X0453436D01*
X0454486D01*
X0458159Y0261411D02*
X0457634Y0261936D01*
X0456585D01*
X0456060Y0261411D01*
Y0259312D01*
X0456585Y0258787D01*
X0457634D01*
X0458159Y0259312D01*
Y0260362D01*
X0457109D01*
X0459208Y0261936D02*
Y0258787D01*
Y0260362D01*
X0461307D01*
Y0261936D01*
Y0258787D01*
X0462357Y0261936D02*
X0464456D01*
X0463407D01*
Y0258787D01*
X0391436Y0267604D02*
Y0264456D01*
X0393010D01*
X0393535Y0264980D01*
Y0267079D01*
X0393010Y0267604D01*
X0391436D01*
X0394585D02*
X0395634D01*
X0395109D01*
Y0264456D01*
X0394585D01*
X0395634D01*
X0399307Y0267079D02*
X0398783Y0267604D01*
X0397733D01*
X0397208Y0267079D01*
Y0266554D01*
X0397733Y0266030D01*
X0398783D01*
X0399307Y0265505D01*
Y0264980D01*
X0398783Y0264456D01*
X0397733D01*
X0397208Y0264980D01*
X0400357Y0264456D02*
Y0267604D01*
X0401931D01*
X0402456Y0267079D01*
Y0266030D01*
X0401931Y0265505D01*
X0400357D01*
X0403506Y0267604D02*
Y0264456D01*
X0405605D01*
X0406654D02*
Y0266554D01*
X0407704Y0267604D01*
X0408753Y0266554D01*
Y0264456D01*
Y0266030D01*
X0406654D01*
X0409803Y0267604D02*
Y0267079D01*
X0410852Y0266030D01*
X0411902Y0267079D01*
Y0267604D01*
X0410852Y0266030D02*
Y0264456D01*
X0390387Y0261411D02*
X0389862Y0261936D01*
X0388812D01*
X0388287Y0261411D01*
Y0259312D01*
X0388812Y0258787D01*
X0389862D01*
X0390387Y0259312D01*
X0393010Y0261936D02*
X0391961D01*
X0391436Y0261411D01*
Y0259312D01*
X0391961Y0258787D01*
X0393010D01*
X0393535Y0259312D01*
Y0261411D01*
X0393010Y0261936D01*
X0394585Y0258787D02*
Y0261936D01*
X0396684Y0258787D01*
Y0261936D01*
X0397733Y0258787D02*
Y0261936D01*
X0399832Y0258787D01*
Y0261936D01*
X0402981D02*
X0400882D01*
Y0258787D01*
X0402981D01*
X0400882Y0260362D02*
X0401931D01*
X0406129Y0261411D02*
X0405605Y0261936D01*
X0404555D01*
X0404030Y0261411D01*
Y0259312D01*
X0404555Y0258787D01*
X0405605D01*
X0406129Y0259312D01*
X0407179Y0261936D02*
X0409278D01*
X0408228D01*
Y0258787D01*
X0411902Y0261936D02*
X0410852D01*
X0410327Y0261411D01*
Y0259312D01*
X0410852Y0258787D01*
X0411902D01*
X0412427Y0259312D01*
Y0261411D01*
X0411902Y0261936D01*
X0413476Y0258787D02*
Y0261936D01*
X0415050D01*
X0415575Y0261411D01*
Y0260362D01*
X0415050Y0259837D01*
X0413476D01*
X0414526D02*
X0415575Y0258787D01*
X0318649Y0288436D02*
X0317861Y0289223D01*
X0316287D01*
X0315500Y0288436D01*
Y0287649D01*
X0316287Y0286861D01*
X0317861D01*
X0318649Y0286074D01*
Y0285287D01*
X0317861Y0284500D01*
X0316287D01*
X0315500Y0285287D01*
X0320223Y0289223D02*
X0323372D01*
X0321797D01*
Y0284500D01*
X0324946Y0289223D02*
X0328094D01*
Y0288436D01*
X0324946Y0285287D01*
Y0284500D01*
X0332817Y0289223D02*
X0329669D01*
Y0286861D01*
X0331243Y0287649D01*
X0332030D01*
X0332817Y0286861D01*
Y0285287D01*
X0332030Y0284500D01*
X0330456D01*
X0329669Y0285287D01*
X0337540Y0289223D02*
X0335966Y0288436D01*
X0334391Y0286861D01*
Y0285287D01*
X0335179Y0284500D01*
X0336753D01*
X0337540Y0285287D01*
Y0286074D01*
X0336753Y0286861D01*
X0334391D01*
X0342263Y0289223D02*
X0339114D01*
Y0286861D01*
X0340689Y0287649D01*
X0341476D01*
X0342263Y0286861D01*
Y0285287D01*
X0341476Y0284500D01*
X0339901D01*
X0339114Y0285287D01*
X0319149Y0297223D02*
X0316000D01*
Y0292500D01*
X0319149D01*
X0316000Y0294861D02*
X0317574D01*
X0320723Y0292500D02*
Y0297223D01*
X0323084D01*
X0323871Y0296436D01*
Y0294861D01*
X0323084Y0294074D01*
X0320723D01*
X0322297D02*
X0323871Y0292500D01*
X0328594Y0296436D02*
X0327807Y0297223D01*
X0326233D01*
X0325446Y0296436D01*
Y0293287D01*
X0326233Y0292500D01*
X0327807D01*
X0328594Y0293287D01*
X0330169Y0292500D02*
X0331743D01*
X0330956D01*
Y0297223D01*
X0330169Y0296436D01*
X0337253Y0292500D02*
X0334104D01*
X0337253Y0295649D01*
Y0296436D01*
X0336466Y0297223D01*
X0334892D01*
X0334104Y0296436D01*
X0338827D02*
X0339614Y0297223D01*
X0341189D01*
X0341976Y0296436D01*
Y0295649D01*
X0341189Y0294861D01*
X0341976Y0294074D01*
Y0293287D01*
X0341189Y0292500D01*
X0339614D01*
X0338827Y0293287D01*
Y0294074D01*
X0339614Y0294861D01*
X0338827Y0295649D01*
Y0296436D01*
X0339614Y0294861D02*
X0341189D01*
X0346699Y0297223D02*
X0345124Y0296436D01*
X0343550Y0294861D01*
Y0293287D01*
X0344337Y0292500D01*
X0345912D01*
X0346699Y0293287D01*
Y0294074D01*
X0345912Y0294861D01*
X0343550D01*
X0350635Y0292500D02*
Y0297223D01*
X0348273Y0294861D01*
X0351422D01*
X0356144Y0297223D02*
X0352996D01*
Y0294861D01*
X0354570D01*
X0352996D01*
Y0292500D01*
X0360867Y0296436D02*
X0360080Y0297223D01*
X0358506D01*
X0357719Y0296436D01*
Y0295649D01*
X0358506Y0294861D01*
X0360080D01*
X0360867Y0294074D01*
Y0293287D01*
X0360080Y0292500D01*
X0358506D01*
X0357719Y0293287D01*
X0365590Y0297223D02*
X0362442D01*
Y0294861D01*
X0364016D01*
X0362442D01*
Y0292500D01*
X0367164Y0294861D02*
X0370313D01*
X0374249Y0292500D02*
Y0297223D01*
X0371887Y0294861D01*
X0375036D01*
X0453500Y0391574D02*
X0455599D01*
X0454550Y0392624D02*
Y0390525D01*
X0456649Y0392624D02*
X0457173Y0393149D01*
X0458223D01*
X0458748Y0392624D01*
Y0392099D01*
X0458223Y0391574D01*
X0457698D01*
X0458223D01*
X0458748Y0391050D01*
Y0390525D01*
X0458223Y0390000D01*
X0457173D01*
X0456649Y0390525D01*
X0459797Y0393149D02*
Y0391050D01*
X0460847Y0390000D01*
X0461896Y0391050D01*
Y0393149D01*
X0449599Y0392624D02*
X0449074Y0393149D01*
X0448025D01*
X0447500Y0392624D01*
Y0390525D01*
X0448025Y0390000D01*
X0449074D01*
X0449599Y0390525D01*
Y0391574D01*
X0448550D01*
X0437000Y0393149D02*
Y0390000D01*
X0438574D01*
X0439099Y0390525D01*
Y0391050D01*
X0438574Y0391574D01*
X0437000D01*
X0438574D01*
X0439099Y0392099D01*
Y0392624D01*
X0438574Y0393149D01*
X0437000D01*
X0440149D02*
Y0390000D01*
X0442248D01*
X0427099Y0392624D02*
X0426574Y0393149D01*
X0425525D01*
X0425000Y0392624D01*
Y0392099D01*
X0425525Y0391574D01*
X0426574D01*
X0427099Y0391050D01*
Y0390525D01*
X0426574Y0390000D01*
X0425525D01*
X0425000Y0390525D01*
X0428149Y0393149D02*
Y0390000D01*
X0429723D01*
X0430248Y0390525D01*
Y0392624D01*
X0429723Y0393149D01*
X0428149D01*
X0431297Y0390000D02*
Y0392099D01*
X0432347Y0393149D01*
X0433396Y0392099D01*
Y0390000D01*
Y0391574D01*
X0431297D01*
X0417099Y0392624D02*
X0416574Y0393149D01*
X0415525D01*
X0415000Y0392624D01*
Y0392099D01*
X0415525Y0391574D01*
X0416574D01*
X0417099Y0391050D01*
Y0390525D01*
X0416574Y0390000D01*
X0415525D01*
X0415000Y0390525D01*
X0420248Y0392624D02*
X0419723Y0393149D01*
X0418673D01*
X0418149Y0392624D01*
Y0390525D01*
X0418673Y0390000D01*
X0419723D01*
X0420248Y0390525D01*
X0421297Y0393149D02*
Y0390000D01*
X0423396D01*
X0406000D02*
Y0393149D01*
X0407050Y0392099D01*
X0408099Y0393149D01*
Y0390000D01*
X0410723Y0393149D02*
X0409673D01*
X0409149Y0392624D01*
Y0390525D01*
X0409673Y0390000D01*
X0410723D01*
X0411248Y0390525D01*
Y0392624D01*
X0410723Y0393149D01*
X0396500Y0390000D02*
Y0393149D01*
X0397550Y0392099D01*
X0398599Y0393149D01*
Y0390000D01*
X0399649Y0393149D02*
X0400698D01*
X0400173D01*
Y0390000D01*
X0399649D01*
X0400698D01*
X0387599Y0392624D02*
X0387074Y0393149D01*
X0386025D01*
X0385500Y0392624D01*
Y0392099D01*
X0386025Y0391574D01*
X0387074D01*
X0387599Y0391050D01*
Y0390525D01*
X0387074Y0390000D01*
X0386025D01*
X0385500Y0390525D01*
X0390748Y0392624D02*
X0390223Y0393149D01*
X0389173D01*
X0388649Y0392624D01*
Y0390525D01*
X0389173Y0390000D01*
X0390223D01*
X0390748Y0390525D01*
D22*
X0355646Y0310386D02*
Y0326429D01*
X0365980D01*
Y0328890D01*
X0426020Y0326429D02*
Y0328890D01*
Y0326429D02*
X0436354D01*
Y0310386D02*
Y0326429D01*
D23*
X0463500Y0368500D02*
X0464549D01*
X0464025D01*
Y0371649D01*
X0463500Y0371124D01*
X0466124D02*
X0466649Y0371649D01*
X0467698D01*
X0468223Y0371124D01*
Y0369025D01*
X0467698Y0368500D01*
X0466649D01*
X0466124Y0369025D01*
Y0371124D01*
X0469272D02*
X0469797Y0371649D01*
X0470847D01*
X0471372Y0371124D01*
Y0369025D01*
X0470847Y0368500D01*
X0469797D01*
X0469272Y0369025D01*
Y0371124D01*
X0472421Y0368500D02*
Y0370599D01*
X0473995D01*
X0474520Y0370074D01*
Y0368500D01*
X0463500Y0377000D02*
X0464549D01*
X0464025D01*
Y0380149D01*
X0463500Y0379624D01*
X0466124D02*
X0466649Y0380149D01*
X0467698D01*
X0468223Y0379624D01*
Y0377525D01*
X0467698Y0377000D01*
X0466649D01*
X0466124Y0377525D01*
Y0379624D01*
X0469272D02*
X0469797Y0380149D01*
X0470847D01*
X0471372Y0379624D01*
Y0377525D01*
X0470847Y0377000D01*
X0469797D01*
X0469272Y0377525D01*
Y0379624D01*
X0472421Y0377000D02*
Y0379099D01*
X0473995D01*
X0474520Y0378574D01*
Y0377000D01*
X0463000Y0334500D02*
Y0335549D01*
Y0335025D01*
X0459851D01*
X0460376Y0334500D01*
Y0337124D02*
X0459851Y0337649D01*
Y0338698D01*
X0460376Y0339223D01*
X0462475D01*
X0463000Y0338698D01*
Y0337649D01*
X0462475Y0337124D01*
X0460376D01*
X0460901Y0340272D02*
X0462475D01*
X0463000Y0340797D01*
Y0342372D01*
X0460901D01*
X0451000Y0336500D02*
Y0337549D01*
Y0337025D01*
X0447851D01*
X0448376Y0336500D01*
X0448901Y0339124D02*
X0450475D01*
X0451000Y0339649D01*
Y0341223D01*
X0448901D01*
X0443000Y0336500D02*
Y0337549D01*
Y0337025D01*
X0439851D01*
X0440376Y0336500D01*
X0440901Y0339124D02*
X0442475D01*
X0443000Y0339649D01*
Y0341223D01*
X0440901D01*
X0434500Y0336500D02*
Y0337549D01*
Y0337025D01*
X0431351D01*
X0431876Y0336500D01*
X0432401Y0339124D02*
X0433975D01*
X0434500Y0339649D01*
Y0341223D01*
X0432401D01*
X0425500Y0336500D02*
Y0337549D01*
Y0337025D01*
X0422351D01*
X0422876Y0336500D01*
X0423401Y0339124D02*
X0424975D01*
X0425500Y0339649D01*
Y0341223D01*
X0423401D01*
X0417000Y0336500D02*
Y0337549D01*
Y0337025D01*
X0413851D01*
X0414376Y0336500D01*
X0414901Y0339124D02*
X0416475D01*
X0417000Y0339649D01*
Y0341223D01*
X0414901D01*
X0408000Y0336500D02*
Y0337549D01*
Y0337025D01*
X0404851D01*
X0405376Y0336500D01*
X0405901Y0339124D02*
X0407475D01*
X0408000Y0339649D01*
Y0341223D01*
X0405901D01*
X0399500Y0336500D02*
Y0337549D01*
Y0337025D01*
X0396351D01*
X0396876Y0336500D01*
X0397401Y0339124D02*
X0398975D01*
X0399500Y0339649D01*
Y0341223D01*
X0397401D01*
X0391500Y0336000D02*
Y0337050D01*
Y0336525D01*
X0388351D01*
X0388876Y0336000D01*
X0389401Y0338624D02*
X0390975D01*
X0391500Y0339149D01*
Y0340723D01*
X0389401D01*
X0383000Y0336000D02*
Y0337050D01*
Y0336525D01*
X0379851D01*
X0380376Y0336000D01*
X0380901Y0338624D02*
X0382475D01*
X0383000Y0339149D01*
Y0340723D01*
X0380901D01*
X0374500Y0336000D02*
Y0337050D01*
Y0336525D01*
X0371351D01*
X0371876Y0336000D01*
X0372401Y0338624D02*
X0373975D01*
X0374500Y0339149D01*
Y0340723D01*
X0372401D01*
X0405599Y0364124D02*
X0405074Y0364649D01*
X0404025D01*
X0403500Y0364124D01*
Y0362025D01*
X0404025Y0361500D01*
X0405074D01*
X0405599Y0362025D01*
X0406649Y0361500D02*
X0407698D01*
X0407173D01*
Y0364649D01*
X0406649Y0364124D01*
X0411372Y0361500D02*
X0409272D01*
X0411372Y0363599D01*
Y0364124D01*
X0410847Y0364649D01*
X0409797D01*
X0409272Y0364124D01*
X0450099D02*
X0449574Y0364649D01*
X0448525D01*
X0448000Y0364124D01*
Y0362025D01*
X0448525Y0361500D01*
X0449574D01*
X0450099Y0362025D01*
X0451149Y0361500D02*
X0452198D01*
X0451673D01*
Y0364649D01*
X0451149Y0364124D01*
X0371599D02*
X0371074Y0364649D01*
X0370025D01*
X0369500Y0364124D01*
Y0362025D01*
X0370025Y0361500D01*
X0371074D01*
X0371599Y0362025D01*
X0372649Y0364124D02*
X0373173Y0364649D01*
X0374223D01*
X0374748Y0364124D01*
Y0363599D01*
X0374223Y0363074D01*
X0373698D01*
X0374223D01*
X0374748Y0362549D01*
Y0362025D01*
X0374223Y0361500D01*
X0373173D01*
X0372649Y0362025D01*
X0440599Y0364124D02*
X0440074Y0364649D01*
X0439025D01*
X0438500Y0364124D01*
Y0362025D01*
X0439025Y0361500D01*
X0440074D01*
X0440599Y0362025D01*
X0443748Y0361500D02*
X0441649D01*
X0443748Y0363599D01*
Y0364124D01*
X0443223Y0364649D01*
X0442173D01*
X0441649Y0364124D01*
X0438099Y0379624D02*
X0437574Y0380149D01*
X0436525D01*
X0436000Y0379624D01*
Y0377525D01*
X0436525Y0377000D01*
X0437574D01*
X0438099Y0377525D01*
X0441248Y0380149D02*
X0440198Y0379624D01*
X0439149Y0378574D01*
Y0377525D01*
X0439673Y0377000D01*
X0440723D01*
X0441248Y0377525D01*
Y0378049D01*
X0440723Y0378574D01*
X0439149D01*
X0381099Y0364124D02*
X0380574Y0364649D01*
X0379525D01*
X0379000Y0364124D01*
Y0362025D01*
X0379525Y0361500D01*
X0380574D01*
X0381099Y0362025D01*
X0384248Y0364649D02*
X0382149D01*
Y0363074D01*
X0383198Y0363599D01*
X0383723D01*
X0384248Y0363074D01*
Y0362025D01*
X0383723Y0361500D01*
X0382673D01*
X0382149Y0362025D01*
X0432099Y0364124D02*
X0431574Y0364649D01*
X0430525D01*
X0430000Y0364124D01*
Y0362025D01*
X0430525Y0361500D01*
X0431574D01*
X0432099Y0362025D01*
X0434723Y0361500D02*
Y0364649D01*
X0433149Y0363074D01*
X0435248D01*
X0460099Y0364124D02*
X0459574Y0364649D01*
X0458525D01*
X0458000Y0364124D01*
Y0362025D01*
X0458525Y0361500D01*
X0459574D01*
X0460099Y0362025D01*
X0461149D02*
X0461673Y0361500D01*
X0462723D01*
X0463248Y0362025D01*
Y0364124D01*
X0462723Y0364649D01*
X0461673D01*
X0461149Y0364124D01*
Y0363599D01*
X0461673Y0363074D01*
X0463248D01*
X0389599Y0364124D02*
X0389074Y0364649D01*
X0388025D01*
X0387500Y0364124D01*
Y0362025D01*
X0388025Y0361500D01*
X0389074D01*
X0389599Y0362025D01*
X0390649Y0364124D02*
X0391173Y0364649D01*
X0392223D01*
X0392748Y0364124D01*
Y0363599D01*
X0392223Y0363074D01*
X0392748Y0362549D01*
Y0362025D01*
X0392223Y0361500D01*
X0391173D01*
X0390649Y0362025D01*
Y0362549D01*
X0391173Y0363074D01*
X0390649Y0363599D01*
Y0364124D01*
X0391173Y0363074D02*
X0392223D01*
X0424599Y0364124D02*
X0424074Y0364649D01*
X0423025D01*
X0422500Y0364124D01*
Y0362025D01*
X0423025Y0361500D01*
X0424074D01*
X0424599Y0362025D01*
X0425649Y0364649D02*
X0427748D01*
Y0364124D01*
X0425649Y0362025D01*
Y0361500D01*
X0437599Y0371624D02*
X0437074Y0372149D01*
X0436025D01*
X0435500Y0371624D01*
Y0369525D01*
X0436025Y0369000D01*
X0437074D01*
X0437599Y0369525D01*
X0438649Y0369000D02*
X0439698D01*
X0439173D01*
Y0372149D01*
X0438649Y0371624D01*
X0441272D02*
X0441797Y0372149D01*
X0442847D01*
X0443371Y0371624D01*
Y0371099D01*
X0442847Y0370574D01*
X0442322D01*
X0442847D01*
X0443371Y0370050D01*
Y0369525D01*
X0442847Y0369000D01*
X0441797D01*
X0441272Y0369525D01*
X0397599Y0364124D02*
X0397074Y0364649D01*
X0396025D01*
X0395500Y0364124D01*
Y0362025D01*
X0396025Y0361500D01*
X0397074D01*
X0397599Y0362025D01*
X0398649Y0361500D02*
X0399698D01*
X0399173D01*
Y0364649D01*
X0398649Y0364124D01*
X0401272Y0361500D02*
X0402322D01*
X0401797D01*
Y0364649D01*
X0401272Y0364124D01*
X0414599D02*
X0414074Y0364649D01*
X0413025D01*
X0412500Y0364124D01*
Y0362025D01*
X0413025Y0361500D01*
X0414074D01*
X0414599Y0362025D01*
X0415649Y0361500D02*
X0416698D01*
X0416173D01*
Y0364649D01*
X0415649Y0364124D01*
X0418272D02*
X0418797Y0364649D01*
X0419847D01*
X0420371Y0364124D01*
Y0362025D01*
X0419847Y0361500D01*
X0418797D01*
X0418272Y0362025D01*
Y0364124D01*
X0439500Y0320000D02*
Y0323149D01*
X0441074D01*
X0441599Y0322624D01*
Y0321574D01*
X0441074Y0321049D01*
X0439500D01*
X0444748Y0320000D02*
X0442649D01*
X0444748Y0322099D01*
Y0322624D01*
X0444223Y0323149D01*
X0443173D01*
X0442649Y0322624D01*
X0350599Y0332124D02*
X0350074Y0332649D01*
X0349025D01*
X0348500Y0332124D01*
Y0330025D01*
X0349025Y0329500D01*
X0350074D01*
X0350599Y0330025D01*
X0353223Y0332649D02*
X0352173D01*
X0351649Y0332124D01*
Y0330025D01*
X0352173Y0329500D01*
X0353223D01*
X0353748Y0330025D01*
Y0332124D01*
X0353223Y0332649D01*
X0354797Y0329500D02*
Y0332649D01*
X0356896Y0329500D01*
Y0332649D01*
X0357946Y0329500D02*
X0358995D01*
X0358471D01*
Y0332649D01*
X0357946Y0332124D01*
X0375500Y0401000D02*
Y0404149D01*
X0377074D01*
X0377599Y0403624D01*
Y0402574D01*
X0377074Y0402049D01*
X0375500D01*
X0378649Y0401000D02*
X0379698D01*
X0379173D01*
Y0404149D01*
X0378649Y0403624D01*
M02*
