G04 Layer_Color=16711935*
%FSAX25Y25*%
%MOIN*%
G70*
G01*
G75*
%ADD21C,0.00787*%
%ADD31C,0.01000*%
%ADD32C,0.00600*%
D21*
X0320323Y0393000D02*
X0471500D01*
X0471504Y0240843D02*
Y0409736D01*
X0320323Y0240843D02*
Y0409563D01*
D31*
X0284000Y0409740D02*
X0309087D01*
X0284000Y0393000D02*
X0318929D01*
X0285000Y0383000D02*
Y0393000D01*
Y0409740D02*
Y0419740D01*
X0283000Y0387000D02*
X0285000Y0393000D01*
X0287000Y0387000D01*
X0285000Y0409740D02*
X0287000Y0415740D01*
X0283000D02*
X0285000Y0409740D01*
X0287500Y0250500D02*
X0318929D01*
X0287500Y0234937D02*
X0320323D01*
X0288500Y0224937D02*
Y0234937D01*
Y0250500D02*
Y0260500D01*
X0286500Y0228937D02*
X0288500Y0234937D01*
X0290500Y0228937D01*
X0288500Y0250500D02*
X0290500Y0256500D01*
X0286500D02*
X0288500Y0250500D01*
D32*
X0277802Y0392272D02*
X0271804D01*
X0274803Y0389274D01*
Y0393272D01*
X0277802Y0395271D02*
X0276802D01*
Y0396271D01*
X0277802D01*
Y0395271D01*
Y0404269D02*
Y0400270D01*
X0273803Y0404269D01*
X0272804D01*
X0271804Y0403269D01*
Y0401270D01*
X0272804Y0400270D01*
X0271804Y0410267D02*
Y0406268D01*
X0274803D01*
X0273803Y0408267D01*
Y0409267D01*
X0274803Y0410267D01*
X0276802D01*
X0277802Y0409267D01*
Y0407268D01*
X0276802Y0406268D01*
X0276304Y0230622D02*
X0275304Y0231622D01*
Y0233621D01*
X0276304Y0234621D01*
X0277303D01*
X0278303Y0233621D01*
Y0232621D01*
Y0233621D01*
X0279303Y0234621D01*
X0280302D01*
X0281302Y0233621D01*
Y0231622D01*
X0280302Y0230622D01*
X0281302Y0236620D02*
X0280302D01*
Y0237620D01*
X0281302D01*
Y0236620D01*
X0280302Y0241618D02*
X0281302Y0242618D01*
Y0244617D01*
X0280302Y0245617D01*
X0276304D01*
X0275304Y0244617D01*
Y0242618D01*
X0276304Y0241618D01*
X0277303D01*
X0278303Y0242618D01*
Y0245617D01*
X0275304Y0251615D02*
Y0247616D01*
X0278303D01*
X0277303Y0249616D01*
Y0250615D01*
X0278303Y0251615D01*
X0280302D01*
X0281302Y0250615D01*
Y0248616D01*
X0280302Y0247616D01*
M02*
