G04 Layer_Color=8421504*
%FSAX25Y25*%
%MOIN*%
G70*
G01*
G75*
%ADD10R,0.05118X0.03543*%
%ADD11R,0.03543X0.05118*%
%ADD12R,0.09055X0.12205*%
%ADD13R,0.01181X0.04331*%
D10*
X0407500Y0347760D02*
D03*
Y0355240D02*
D03*
X0450000Y0355240D02*
D03*
Y0347760D02*
D03*
X0373500Y0347760D02*
D03*
Y0355240D02*
D03*
X0441500Y0355240D02*
D03*
Y0347760D02*
D03*
X0382000Y0347760D02*
D03*
Y0355240D02*
D03*
X0433000Y0355240D02*
D03*
Y0347760D02*
D03*
X0461500Y0347760D02*
D03*
Y0355240D02*
D03*
X0390500Y0347760D02*
D03*
Y0355240D02*
D03*
X0424500Y0355240D02*
D03*
Y0347760D02*
D03*
X0399000Y0347760D02*
D03*
Y0355240D02*
D03*
X0416000Y0347760D02*
D03*
Y0355240D02*
D03*
D11*
X0457740Y0378500D02*
D03*
X0450260D02*
D03*
X0457740Y0370000D02*
D03*
X0450260D02*
D03*
D12*
X0431138Y0318457D02*
D03*
X0360862D02*
D03*
D13*
X0424543Y0325543D02*
D03*
X0422575D02*
D03*
X0420606D02*
D03*
X0418638D02*
D03*
X0416669D02*
D03*
X0414701D02*
D03*
X0412732D02*
D03*
X0410764D02*
D03*
X0408795D02*
D03*
X0406827D02*
D03*
X0404858D02*
D03*
X0402890D02*
D03*
X0400921D02*
D03*
X0398953D02*
D03*
X0396984D02*
D03*
X0395016D02*
D03*
X0393047D02*
D03*
X0391079D02*
D03*
X0389110D02*
D03*
X0387142D02*
D03*
X0385173D02*
D03*
X0383205D02*
D03*
X0381236D02*
D03*
X0379268D02*
D03*
X0377299D02*
D03*
X0375331D02*
D03*
X0373362D02*
D03*
X0371394D02*
D03*
X0369425D02*
D03*
X0367457D02*
D03*
M02*
