G04 Layer_Color=16711935*
%FSAX25Y25*%
%MOIN*%
G70*
G01*
G75*
%ADD21C,0.00787*%
%ADD22C,0.00394*%
D21*
X0387830Y0318160D02*
X0387042Y0318947D01*
X0385468D01*
X0384681Y0318160D01*
Y0315012D01*
X0385468Y0314224D01*
X0387042D01*
X0387830Y0315012D01*
X0391765Y0318947D02*
X0390191D01*
X0389404Y0318160D01*
Y0315012D01*
X0390191Y0314224D01*
X0391765D01*
X0392553Y0315012D01*
Y0318160D01*
X0391765Y0318947D01*
X0394127Y0314224D02*
Y0318947D01*
X0397275Y0314224D01*
Y0318947D01*
X0398850Y0314224D02*
X0400424D01*
X0399637D01*
Y0318947D01*
X0398850Y0318160D01*
D22*
X0403563Y0344413D02*
Y0358587D01*
X0411437D01*
Y0344413D02*
Y0358587D01*
X0403563Y0344413D02*
X0411437D01*
X0453937D02*
Y0358587D01*
X0446063Y0344413D02*
X0453937D01*
X0446063D02*
Y0358587D01*
X0453937D01*
X0369563Y0344413D02*
Y0358587D01*
X0377437D01*
Y0344413D02*
Y0358587D01*
X0369563Y0344413D02*
X0377437D01*
X0445437D02*
Y0358587D01*
X0437563Y0344413D02*
X0445437D01*
X0437563D02*
Y0358587D01*
X0445437D01*
X0446913Y0374563D02*
X0461087D01*
X0446913D02*
Y0382437D01*
X0461087D01*
Y0374563D02*
Y0382437D01*
X0378063Y0344413D02*
Y0358587D01*
X0385937D01*
Y0344413D02*
Y0358587D01*
X0378063Y0344413D02*
X0385937D01*
X0436937D02*
Y0358587D01*
X0429063Y0344413D02*
X0436937D01*
X0429063D02*
Y0358587D01*
X0436937D01*
X0457563Y0344413D02*
Y0358587D01*
X0465437D01*
Y0344413D02*
Y0358587D01*
X0457563Y0344413D02*
X0465437D01*
X0386563D02*
Y0358587D01*
X0394437D01*
Y0344413D02*
Y0358587D01*
X0386563Y0344413D02*
X0394437D01*
X0428437D02*
Y0358587D01*
X0420563Y0344413D02*
X0428437D01*
X0420563D02*
Y0358587D01*
X0428437D01*
X0446913Y0366063D02*
X0461087D01*
X0446913D02*
Y0373937D01*
X0461087D01*
Y0366063D02*
Y0373937D01*
X0395063Y0344413D02*
Y0358587D01*
X0402937D01*
Y0344413D02*
Y0358587D01*
X0395063Y0344413D02*
X0402937D01*
X0412063D02*
Y0358587D01*
X0419937D01*
Y0344413D02*
Y0358587D01*
X0412063Y0344413D02*
X0419937D01*
X0355744Y0306252D02*
X0436354D01*
X0355744D02*
Y0326331D01*
X0355646Y0326429D02*
X0355744Y0326331D01*
X0355646Y0326429D02*
X0365980D01*
Y0328890D01*
X0426020D01*
Y0326429D02*
Y0328890D01*
Y0326429D02*
X0436256D01*
X0436354Y0326331D01*
Y0306252D02*
Y0326331D01*
X0406376Y0349099D02*
X0405851Y0348574D01*
Y0347525D01*
X0406376Y0347000D01*
X0408475D01*
X0409000Y0347525D01*
Y0348574D01*
X0408475Y0349099D01*
X0409000Y0350149D02*
Y0351198D01*
Y0350673D01*
X0405851D01*
X0406376Y0350149D01*
X0409000Y0354872D02*
Y0352772D01*
X0406901Y0354872D01*
X0406376D01*
X0405851Y0354347D01*
Y0353297D01*
X0406376Y0352772D01*
X0451124Y0353901D02*
X0451649Y0354426D01*
Y0355475D01*
X0451124Y0356000D01*
X0449025D01*
X0448500Y0355475D01*
Y0354426D01*
X0449025Y0353901D01*
X0448500Y0352851D02*
Y0351802D01*
Y0352327D01*
X0451649D01*
X0451124Y0352851D01*
X0372376Y0349099D02*
X0371851Y0348574D01*
Y0347525D01*
X0372376Y0347000D01*
X0374475D01*
X0375000Y0347525D01*
Y0348574D01*
X0374475Y0349099D01*
X0372376Y0350149D02*
X0371851Y0350673D01*
Y0351723D01*
X0372376Y0352248D01*
X0372901D01*
X0373426Y0351723D01*
Y0351198D01*
Y0351723D01*
X0373951Y0352248D01*
X0374475D01*
X0375000Y0351723D01*
Y0350673D01*
X0374475Y0350149D01*
X0442624Y0353901D02*
X0443149Y0354426D01*
Y0355475D01*
X0442624Y0356000D01*
X0440525D01*
X0440000Y0355475D01*
Y0354426D01*
X0440525Y0353901D01*
X0440000Y0350752D02*
Y0352851D01*
X0442099Y0350752D01*
X0442624D01*
X0443149Y0351277D01*
Y0352327D01*
X0442624Y0352851D01*
X0456401Y0377376D02*
X0456926Y0376851D01*
X0457975D01*
X0458500Y0377376D01*
Y0379475D01*
X0457975Y0380000D01*
X0456926D01*
X0456401Y0379475D01*
X0453252Y0376851D02*
X0454302Y0377376D01*
X0455351Y0378426D01*
Y0379475D01*
X0454827Y0380000D01*
X0453777D01*
X0453252Y0379475D01*
Y0378951D01*
X0453777Y0378426D01*
X0455351D01*
X0380876Y0349099D02*
X0380351Y0348574D01*
Y0347525D01*
X0380876Y0347000D01*
X0382975D01*
X0383500Y0347525D01*
Y0348574D01*
X0382975Y0349099D01*
X0380351Y0352248D02*
Y0350149D01*
X0381926D01*
X0381401Y0351198D01*
Y0351723D01*
X0381926Y0352248D01*
X0382975D01*
X0383500Y0351723D01*
Y0350673D01*
X0382975Y0350149D01*
X0434124Y0353901D02*
X0434649Y0354426D01*
Y0355475D01*
X0434124Y0356000D01*
X0432025D01*
X0431500Y0355475D01*
Y0354426D01*
X0432025Y0353901D01*
X0431500Y0351277D02*
X0434649D01*
X0433074Y0352851D01*
Y0350752D01*
X0460376Y0349099D02*
X0459851Y0348574D01*
Y0347525D01*
X0460376Y0347000D01*
X0462475D01*
X0463000Y0347525D01*
Y0348574D01*
X0462475Y0349099D01*
Y0350149D02*
X0463000Y0350673D01*
Y0351723D01*
X0462475Y0352248D01*
X0460376D01*
X0459851Y0351723D01*
Y0350673D01*
X0460376Y0350149D01*
X0460901D01*
X0461426Y0350673D01*
Y0352248D01*
X0389376Y0349099D02*
X0388851Y0348574D01*
Y0347525D01*
X0389376Y0347000D01*
X0391475D01*
X0392000Y0347525D01*
Y0348574D01*
X0391475Y0349099D01*
X0389376Y0350149D02*
X0388851Y0350673D01*
Y0351723D01*
X0389376Y0352248D01*
X0389901D01*
X0390426Y0351723D01*
X0390950Y0352248D01*
X0391475D01*
X0392000Y0351723D01*
Y0350673D01*
X0391475Y0350149D01*
X0390950D01*
X0390426Y0350673D01*
X0389901Y0350149D01*
X0389376D01*
X0390426Y0350673D02*
Y0351723D01*
X0425624Y0353901D02*
X0426149Y0354426D01*
Y0355475D01*
X0425624Y0356000D01*
X0423525D01*
X0423000Y0355475D01*
Y0354426D01*
X0423525Y0353901D01*
X0426149Y0352851D02*
Y0350752D01*
X0425624D01*
X0423525Y0352851D01*
X0423000D01*
X0456401Y0368876D02*
X0456926Y0368351D01*
X0457975D01*
X0458500Y0368876D01*
Y0370975D01*
X0457975Y0371500D01*
X0456926D01*
X0456401Y0370975D01*
X0455351Y0371500D02*
X0454302D01*
X0454827D01*
Y0368351D01*
X0455351Y0368876D01*
X0452728D02*
X0452203Y0368351D01*
X0451153D01*
X0450629Y0368876D01*
Y0369401D01*
X0451153Y0369926D01*
X0451678D01*
X0451153D01*
X0450629Y0370450D01*
Y0370975D01*
X0451153Y0371500D01*
X0452203D01*
X0452728Y0370975D01*
X0397876Y0349099D02*
X0397351Y0348574D01*
Y0347525D01*
X0397876Y0347000D01*
X0399975D01*
X0400500Y0347525D01*
Y0348574D01*
X0399975Y0349099D01*
X0400500Y0350149D02*
Y0351198D01*
Y0350673D01*
X0397351D01*
X0397876Y0350149D01*
X0400500Y0352772D02*
Y0353822D01*
Y0353297D01*
X0397351D01*
X0397876Y0352772D01*
X0414876Y0349099D02*
X0414351Y0348574D01*
Y0347525D01*
X0414876Y0347000D01*
X0416975D01*
X0417500Y0347525D01*
Y0348574D01*
X0416975Y0349099D01*
X0417500Y0350149D02*
Y0351198D01*
Y0350673D01*
X0414351D01*
X0414876Y0350149D01*
Y0352772D02*
X0414351Y0353297D01*
Y0354347D01*
X0414876Y0354872D01*
X0416975D01*
X0417500Y0354347D01*
Y0353297D01*
X0416975Y0352772D01*
X0414876D01*
M02*
