G04 Layer_Physical_Order=1*
G04 Layer_Color=255*
%FSAX25Y25*%
%MOIN*%
G70*
G01*
G75*
%ADD10R,0.05118X0.03543*%
%ADD11R,0.03543X0.05118*%
%ADD12R,0.09055X0.12205*%
%ADD13R,0.01181X0.04331*%
%ADD14C,0.01181*%
%ADD15R,0.05905X0.05905*%
%ADD16C,0.05905*%
%ADD17C,0.12598*%
D10*
X0407500Y0347760D02*
D03*
Y0355240D02*
D03*
X0450000Y0355240D02*
D03*
Y0347760D02*
D03*
X0373500Y0347760D02*
D03*
Y0355240D02*
D03*
X0441500Y0355240D02*
D03*
Y0347760D02*
D03*
X0382000Y0347760D02*
D03*
Y0355240D02*
D03*
X0433000Y0355240D02*
D03*
Y0347760D02*
D03*
X0461500Y0347760D02*
D03*
Y0355240D02*
D03*
X0390500Y0347760D02*
D03*
Y0355240D02*
D03*
X0424500Y0355240D02*
D03*
Y0347760D02*
D03*
X0399000Y0347760D02*
D03*
Y0355240D02*
D03*
X0416000Y0347760D02*
D03*
Y0355240D02*
D03*
D11*
X0457740Y0378500D02*
D03*
X0450260D02*
D03*
X0457740Y0370000D02*
D03*
X0450260D02*
D03*
D12*
X0431138Y0318457D02*
D03*
X0360862D02*
D03*
D13*
X0424543Y0325543D02*
D03*
X0422575D02*
D03*
X0420606D02*
D03*
X0418638D02*
D03*
X0416669D02*
D03*
X0414701D02*
D03*
X0412732D02*
D03*
X0410764D02*
D03*
X0408795D02*
D03*
X0406827D02*
D03*
X0404858D02*
D03*
X0402890D02*
D03*
X0400921D02*
D03*
X0398953D02*
D03*
X0396984D02*
D03*
X0395016D02*
D03*
X0393047D02*
D03*
X0391079D02*
D03*
X0389110D02*
D03*
X0387142D02*
D03*
X0385173D02*
D03*
X0383205D02*
D03*
X0381236D02*
D03*
X0379268D02*
D03*
X0377299D02*
D03*
X0375331D02*
D03*
X0373362D02*
D03*
X0371394D02*
D03*
X0369425D02*
D03*
X0367457D02*
D03*
D14*
X0406827Y0347087D02*
X0407500Y0347760D01*
X0406827Y0325543D02*
Y0347087D01*
X0448354Y0400291D02*
X0450000Y0398646D01*
Y0355240D02*
Y0398646D01*
X0422000Y0342000D02*
X0424500Y0344500D01*
X0415500Y0342000D02*
X0422000D01*
X0410764Y0337264D02*
X0415500Y0342000D01*
X0429000Y0339000D02*
X0433000Y0343000D01*
X0417000Y0339000D02*
X0429000D01*
X0412732Y0334732D02*
X0417000Y0339000D01*
X0433000Y0336000D02*
X0441500Y0344500D01*
X0418500Y0336000D02*
X0433000D01*
X0414701Y0332201D02*
X0418500Y0336000D01*
X0435240Y0333000D02*
X0450000Y0347760D01*
X0419500Y0333000D02*
X0435240D01*
X0416669Y0330169D02*
X0419500Y0333000D01*
X0440575Y0330075D02*
X0455750Y0345250D01*
X0422575Y0330075D02*
X0440575D01*
X0445043Y0327543D02*
X0461500Y0344000D01*
X0424543Y0327543D02*
X0445043D01*
X0402890Y0325543D02*
Y0338110D01*
X0399000Y0342000D02*
X0402890Y0338110D01*
X0399000Y0342000D02*
Y0347760D01*
X0400921Y0325543D02*
Y0335579D01*
X0390500Y0346000D02*
X0400921Y0335579D01*
X0390500Y0346000D02*
Y0347760D01*
X0387500Y0341000D02*
X0390500D01*
X0382000Y0346500D02*
X0387500Y0341000D01*
X0382000Y0346500D02*
Y0347760D01*
X0385500Y0338000D02*
X0390000D01*
X0381000Y0342500D02*
X0385500Y0338000D01*
X0376500Y0342500D02*
X0381000D01*
X0383500Y0335000D02*
X0389000D01*
X0379000Y0339500D02*
X0383500Y0335000D01*
X0374500Y0339500D02*
X0379000D01*
X0381500Y0332000D02*
X0388500D01*
X0377500Y0336000D02*
X0381500Y0332000D01*
X0374000Y0336000D02*
X0377500D01*
X0379875Y0329125D02*
X0388000D01*
X0376000Y0333000D02*
X0379875Y0329125D01*
X0372000Y0333000D02*
X0376000D01*
X0373500Y0345500D02*
X0376500Y0342500D01*
X0373500Y0345500D02*
Y0347760D01*
X0368500Y0345500D02*
X0374500Y0339500D01*
X0365000Y0345000D02*
X0374000Y0336000D01*
X0361500Y0343500D02*
X0372000Y0333000D01*
X0361500Y0343500D02*
Y0365000D01*
X0371394Y0325543D02*
Y0328606D01*
X0358000Y0342000D02*
X0371394Y0328606D01*
X0358000Y0342000D02*
Y0367500D01*
X0367457Y0325543D02*
Y0328043D01*
X0354000Y0341500D02*
X0367457Y0328043D01*
X0354000Y0341500D02*
Y0369000D01*
X0368500Y0351500D02*
X0372240Y0355240D01*
X0368500Y0345500D02*
Y0351500D01*
X0372240Y0355240D02*
X0373500D01*
X0376000Y0360500D02*
X0419240D01*
X0373500Y0358000D02*
X0376000Y0360500D01*
X0373500Y0355240D02*
Y0358000D01*
X0419240Y0360500D02*
X0424500Y0355240D01*
X0465500Y0369000D02*
X0470500Y0364000D01*
Y0339500D02*
Y0364000D01*
X0453000Y0322000D02*
X0470500Y0339500D01*
X0469000Y0372000D02*
X0474500Y0366500D01*
Y0334000D02*
Y0366500D01*
X0462500Y0322000D02*
X0474500Y0334000D01*
X0472500Y0375000D02*
X0478500Y0369000D01*
Y0325500D02*
Y0369000D01*
X0462500Y0309500D02*
X0478500Y0325500D01*
X0466500Y0351500D02*
Y0360500D01*
X0462760Y0347760D02*
X0466500Y0351500D01*
X0461500Y0347760D02*
X0462760D01*
X0457500Y0369500D02*
X0466500Y0360500D01*
X0457500Y0369500D02*
Y0399437D01*
X0468344Y0408156D02*
X0472500Y0404000D01*
Y0375000D02*
Y0404000D01*
X0465625Y0406375D02*
X0469000Y0403000D01*
Y0372000D02*
Y0403000D01*
X0462906Y0404594D02*
X0465500Y0402000D01*
Y0369000D02*
Y0402000D01*
X0453594Y0404594D02*
X0462906D01*
X0449291Y0400291D02*
X0453594Y0404594D01*
X0444438Y0406375D02*
X0465625D01*
X0438354Y0400291D02*
X0444438Y0406375D01*
X0438656Y0408156D02*
X0468344D01*
X0433500Y0403000D02*
X0438656Y0408156D01*
X0408354Y0391354D02*
Y0400291D01*
X0406000Y0389000D02*
X0408354Y0391354D01*
X0391000Y0389000D02*
X0406000D01*
X0393146Y0405500D02*
X0398354Y0400291D01*
X0384500Y0405500D02*
X0393146D01*
X0382500Y0403500D02*
X0384500Y0405500D01*
X0420646Y0408000D02*
X0428354Y0400291D01*
X0382500Y0408000D02*
X0420646D01*
X0379500Y0405000D02*
X0382500Y0408000D01*
X0422000Y0317500D02*
X0424543Y0320043D01*
X0374500Y0317500D02*
X0422000D01*
X0373362Y0318638D02*
X0374500Y0317500D01*
X0388500Y0332000D02*
X0391079Y0329421D01*
X0389000Y0335000D02*
X0395016Y0328984D01*
X0390000Y0338000D02*
X0396984Y0331016D01*
X0390500Y0341000D02*
X0398953Y0332547D01*
X0388000Y0329125D02*
X0389110Y0328014D01*
X0398953Y0325543D02*
Y0332547D01*
X0404858Y0325543D02*
Y0341142D01*
X0403500Y0342500D02*
X0404858Y0341142D01*
X0403500Y0342500D02*
Y0351240D01*
X0412732Y0325543D02*
Y0334732D01*
X0410764Y0325543D02*
Y0337264D01*
X0416669Y0325543D02*
Y0330169D01*
X0421075Y0330075D02*
X0422575D01*
X0420606Y0329606D02*
X0421075Y0330075D01*
X0420606Y0325543D02*
Y0329606D01*
X0424543Y0325543D02*
Y0327543D01*
X0461500Y0344000D02*
Y0347760D01*
X0382500Y0392000D02*
Y0403500D01*
X0358000Y0367500D02*
X0382500Y0392000D01*
X0379500Y0394500D02*
Y0405000D01*
X0420000Y0393500D02*
X0431500D01*
X0418354Y0395146D02*
X0420000Y0393500D01*
X0418354Y0395146D02*
Y0400291D01*
X0374500Y0309500D02*
X0462500D01*
X0369425Y0314575D02*
X0374500Y0309500D01*
X0369425Y0314575D02*
Y0325543D01*
X0395016D02*
Y0328984D01*
X0389110Y0325543D02*
Y0328014D01*
X0361500Y0365000D02*
X0388354Y0391854D01*
X0354000Y0369000D02*
X0379500Y0394500D01*
X0365000Y0363000D02*
X0391000Y0389000D01*
X0365000Y0345000D02*
Y0363000D01*
X0388354Y0391854D02*
Y0400291D01*
X0457500Y0399437D02*
X0458354Y0400291D01*
X0433500Y0395500D02*
Y0403000D01*
X0431500Y0393500D02*
X0433500Y0395500D01*
X0452500Y0322000D02*
X0453000D01*
X0448354Y0400291D02*
X0449291D01*
X0455750Y0345250D02*
Y0355240D01*
X0461500D01*
X0450000D02*
X0455750D01*
X0422575Y0325543D02*
Y0330075D01*
X0441500Y0355240D02*
X0450000D01*
X0433000D02*
X0441500D01*
X0424500D02*
X0433000D01*
X0461500D02*
X0461500Y0355240D01*
X0417020Y0347760D02*
X0424500Y0355240D01*
X0416000Y0347760D02*
X0417020D01*
X0396984Y0325543D02*
Y0331016D01*
X0391079Y0325543D02*
Y0329421D01*
X0393047Y0321547D02*
Y0325543D01*
X0392000Y0320500D02*
X0393047Y0321547D01*
X0388500Y0320500D02*
X0392000D01*
X0387142Y0321858D02*
X0388500Y0320500D01*
X0387142Y0321858D02*
Y0325543D01*
X0385173D02*
X0387142D01*
X0383205D02*
X0385173D01*
X0381236D02*
X0383205D01*
X0379268D02*
X0381236D01*
X0377299D02*
X0379268D01*
X0375331D02*
X0377299D01*
X0373362D02*
X0375331D01*
X0373362Y0318638D02*
Y0325543D01*
X0424543Y0320043D02*
Y0325543D01*
X0390500Y0355240D02*
X0399000D01*
X0382000D02*
X0390500D01*
X0403500Y0351240D02*
X0407500Y0355240D01*
X0408795Y0325543D02*
Y0339795D01*
X0411500Y0342500D01*
Y0350740D01*
X0416000Y0355240D01*
X0424500Y0344500D02*
Y0347760D01*
X0433000Y0343000D02*
Y0347760D01*
X0414701Y0325543D02*
Y0332201D01*
X0441500Y0344500D02*
Y0347760D01*
X0428354Y0400291D02*
X0429791D01*
D15*
X0462500Y0322000D02*
D03*
X0388354Y0400291D02*
D03*
D16*
X0452500Y0322000D02*
D03*
X0398354Y0400291D02*
D03*
X0408354D02*
D03*
X0418354D02*
D03*
X0428354D02*
D03*
X0438354D02*
D03*
X0448354D02*
D03*
X0458354D02*
D03*
D17*
X0311465Y0400882D02*
D03*
X0480362D02*
D03*
Y0243795D02*
D03*
X0311465D02*
D03*
M02*
