G04 Layer_Physical_Order=2*
G04 Layer_Color=16711680*
%FSAX25Y25*%
%MOIN*%
G70*
G01*
G75*
%ADD18C,0.05905*%
%ADD27R,0.05905X0.05905*%
%ADD28R,0.05905X0.05905*%
%ADD29C,0.06693*%
%ADD30C,0.08268*%
%ADD31R,0.05315X0.05315*%
%ADD32C,0.05315*%
%ADD33C,0.09449*%
%ADD34C,0.07480*%
%ADD35R,0.07480X0.07480*%
%ADD36O,0.06299X0.03937*%
%ADD37O,0.08661X0.07874*%
%ADD38C,0.12598*%
D18*
X0409449Y0378780D02*
D03*
Y0388779D02*
D03*
Y0398780D02*
D03*
X0376299Y0250590D02*
D03*
X0366299D02*
D03*
X0356299D02*
D03*
X0346299D02*
D03*
X0336299D02*
D03*
X0326299D02*
D03*
X0316299D02*
D03*
X0459720Y0378685D02*
D03*
Y0370811D02*
D03*
Y0362937D02*
D03*
D27*
X0409449Y0368779D02*
D03*
D28*
X0386299Y0250590D02*
D03*
D29*
X0356693Y0302953D02*
D03*
X0396063D02*
D03*
X0299429Y0370079D02*
D03*
Y0387795D02*
D03*
X0299823Y0340158D02*
D03*
Y0322441D02*
D03*
D30*
X0309232Y0365158D02*
D03*
Y0392717D02*
D03*
X0309626Y0345079D02*
D03*
Y0317520D02*
D03*
D31*
X0338799Y0372224D02*
D03*
D32*
X0348799D02*
D03*
X0358799D02*
D03*
X0368799D02*
D03*
X0343799Y0362224D02*
D03*
X0353799D02*
D03*
X0363799D02*
D03*
X0373799D02*
D03*
D33*
X0325925Y0409035D02*
D03*
X0386673D02*
D03*
D34*
X0426378Y0255709D02*
D03*
D35*
X0440158D02*
D03*
D36*
X0465844Y0316043D02*
D03*
Y0338681D02*
D03*
D37*
X0459720Y0386953D02*
D03*
Y0354669D02*
D03*
D38*
X0294291Y0250000D02*
D03*
X0463189D02*
D03*
Y0407087D02*
D03*
X0294291D02*
D03*
M02*
