G04 Layer_Physical_Order=1*
G04 Layer_Color=255*
%FSAX25Y25*%
%MOIN*%
G70*
G01*
G75*
%ADD10R,0.05906X0.07874*%
%ADD11R,0.05512X0.01772*%
%ADD12R,0.05906X0.03150*%
%ADD13R,0.03150X0.05906*%
%ADD14R,0.06102X0.02165*%
%ADD15R,0.06299X0.08307*%
%ADD16R,0.08307X0.06299*%
%ADD17C,0.05906*%
%ADD18R,0.03937X0.02559*%
%ADD19R,0.05118X0.03543*%
%ADD20R,0.03543X0.05118*%
%ADD21R,0.07480X0.09055*%
%ADD22R,0.05512X0.06299*%
%ADD23R,0.07480X0.06102*%
%ADD24R,0.05512X0.01575*%
%ADD25R,0.02362X0.03543*%
%ADD26R,0.02362X0.04134*%
%ADD27R,0.03150X0.03150*%
%ADD28R,0.05906X0.13386*%
%ADD29R,0.03937X0.13780*%
%ADD30R,0.09055X0.12205*%
%ADD31R,0.01181X0.04331*%
%ADD32C,0.01969*%
%ADD33C,0.01000*%
%ADD34R,0.03937X0.03150*%
%ADD35R,0.14961X0.05118*%
%ADD36R,0.05906X0.05906*%
%ADD37O,0.08661X0.07874*%
%ADD38R,0.05906X0.05906*%
%ADD39C,0.08661*%
%ADD40C,0.06693*%
G36*
X0464173Y0414932D02*
Y0414932D01*
X0464655Y0414887D01*
X0465512Y0414802D01*
X0466800Y0414412D01*
X0467986Y0413777D01*
X0469026Y0412924D01*
X0469880Y0411884D01*
X0470514Y0410697D01*
X0470905Y0409410D01*
X0471036Y0408079D01*
X0471034Y0408071D01*
Y0249016D01*
X0471036Y0249007D01*
X0470905Y0247677D01*
X0470514Y0246389D01*
X0469880Y0245203D01*
X0469026Y0244163D01*
X0467986Y0243309D01*
X0466800Y0242675D01*
X0465512Y0242284D01*
X0464182Y0242153D01*
X0464173Y0242155D01*
X0464173Y0242155D01*
X0455344D01*
Y0247047D01*
X0455267Y0247435D01*
X0455047Y0247764D01*
X0454718Y0247983D01*
X0454331Y0248060D01*
X0303150D01*
X0302762Y0247983D01*
X0302433Y0247764D01*
X0302214Y0247435D01*
X0302136Y0247047D01*
Y0242155D01*
X0293307D01*
X0293299Y0242153D01*
X0291968Y0242284D01*
X0290681Y0242675D01*
X0289494Y0243309D01*
X0288454Y0244163D01*
X0287600Y0245203D01*
X0286966Y0246389D01*
X0286576Y0247677D01*
X0286491Y0248531D01*
X0286446Y0249016D01*
X0286446Y0249016D01*
X0286446Y0249509D01*
Y0407574D01*
X0286446Y0407578D01*
X0286446Y0408071D01*
X0286491Y0408552D01*
X0286576Y0409410D01*
X0286966Y0410697D01*
X0287600Y0411884D01*
X0288454Y0412924D01*
X0289494Y0413777D01*
X0290681Y0414412D01*
X0291968Y0414802D01*
X0292822Y0414886D01*
X0293307Y0414932D01*
X0293307Y0414932D01*
X0293798Y0414932D01*
X0463682D01*
X0464173Y0414932D01*
D02*
G37*
%LPC*%
G36*
X0413279Y0316551D02*
X0410220D01*
Y0314280D01*
X0413279D01*
Y0316551D01*
D02*
G37*
G36*
X0404224D02*
X0401165D01*
Y0314280D01*
X0404224D01*
Y0316551D01*
D02*
G37*
G36*
X0386114D02*
X0383055D01*
Y0314280D01*
X0386114D01*
Y0316551D01*
D02*
G37*
G36*
X0408284D02*
X0405224D01*
Y0314280D01*
X0408284D01*
Y0316551D01*
D02*
G37*
G36*
X0390173D02*
X0387114D01*
Y0314280D01*
X0390173D01*
Y0316551D01*
D02*
G37*
G36*
X0422335D02*
X0419276D01*
Y0314280D01*
X0422335D01*
Y0316551D01*
D02*
G37*
G36*
X0468513Y0324124D02*
X0459833D01*
Y0313868D01*
X0468513D01*
Y0324124D01*
D02*
G37*
G36*
X0353953Y0313280D02*
X0350894D01*
Y0311008D01*
X0353953D01*
Y0313280D01*
D02*
G37*
G36*
X0349894D02*
X0346835D01*
Y0311008D01*
X0349894D01*
Y0313280D01*
D02*
G37*
G36*
X0426394Y0313280D02*
X0423335D01*
Y0311008D01*
X0426394D01*
Y0313280D01*
D02*
G37*
G36*
X0399228Y0316551D02*
X0396169D01*
Y0314280D01*
X0399228D01*
Y0316551D01*
D02*
G37*
G36*
X0395169D02*
X0392110D01*
Y0314280D01*
X0395169D01*
Y0316551D01*
D02*
G37*
G36*
X0417339D02*
X0414280D01*
Y0314280D01*
X0417339D01*
Y0316551D01*
D02*
G37*
G36*
X0468513Y0341446D02*
X0459833D01*
Y0334144D01*
X0468513D01*
Y0341446D01*
D02*
G37*
G36*
X0397850Y0336311D02*
X0395776D01*
Y0332858D01*
X0397850D01*
Y0336311D01*
D02*
G37*
G36*
X0327339Y0265445D02*
X0323886D01*
Y0261992D01*
X0327339D01*
Y0265445D01*
D02*
G37*
G36*
X0456709Y0340665D02*
X0453453D01*
Y0339378D01*
X0456709D01*
Y0340665D01*
D02*
G37*
G36*
X0452453D02*
X0449197D01*
Y0339378D01*
X0452453D01*
Y0340665D01*
D02*
G37*
G36*
X0397850Y0340764D02*
X0395776D01*
Y0337311D01*
X0397850D01*
Y0340764D01*
D02*
G37*
G36*
X0438002Y0343317D02*
X0433652D01*
Y0338967D01*
X0434705D01*
Y0336821D01*
X0433849D01*
Y0332077D01*
X0437411D01*
Y0336821D01*
X0436948D01*
Y0338967D01*
X0438002D01*
Y0343317D01*
D02*
G37*
G36*
X0457195Y0324911D02*
X0450483D01*
Y0317412D01*
X0457195D01*
Y0324911D01*
D02*
G37*
G36*
X0353953Y0316551D02*
X0350894D01*
Y0314280D01*
X0353953D01*
Y0316551D01*
D02*
G37*
G36*
X0426394Y0316551D02*
X0423335D01*
Y0314280D01*
X0426394D01*
Y0316551D01*
D02*
G37*
G36*
X0327339Y0269898D02*
X0323886D01*
Y0266445D01*
X0327339D01*
Y0269898D01*
D02*
G37*
G36*
X0453543Y0402206D02*
X0440551D01*
X0439933Y0402083D01*
X0439409Y0401733D01*
X0427598Y0389922D01*
X0427248Y0389398D01*
X0427125Y0388779D01*
Y0383543D01*
X0422953Y0379371D01*
X0421669D01*
Y0380996D01*
X0418110D01*
X0414551D01*
Y0379371D01*
X0404764D01*
X0400002Y0384132D01*
X0400075Y0384309D01*
X0400198Y0385236D01*
X0400075Y0386164D01*
X0399717Y0387028D01*
X0399148Y0387770D01*
X0398406Y0388339D01*
X0397542Y0388698D01*
X0396614Y0388820D01*
X0395687Y0388698D01*
X0394823Y0388339D01*
X0394183Y0387849D01*
X0393683Y0388006D01*
Y0390313D01*
X0393683Y0390313D01*
X0393598Y0390742D01*
X0393355Y0391106D01*
X0393354Y0391106D01*
X0390557Y0393903D01*
X0390193Y0394146D01*
X0389764Y0394232D01*
X0389764Y0394232D01*
X0361811D01*
X0361811Y0394232D01*
X0361382Y0394146D01*
X0361018Y0393903D01*
X0361018Y0393903D01*
X0357282Y0390167D01*
X0351172D01*
Y0385817D01*
X0358277D01*
Y0387836D01*
X0358308Y0387992D01*
X0358303Y0388017D01*
X0362276Y0391989D01*
X0389299D01*
X0391440Y0389848D01*
Y0382045D01*
X0391440Y0382045D01*
X0391525Y0381616D01*
X0391768Y0381252D01*
X0401737Y0371284D01*
X0401530Y0370783D01*
X0401394Y0370783D01*
X0399319D01*
Y0369004D01*
X0401787D01*
Y0370388D01*
X0401787Y0370526D01*
X0401819Y0370539D01*
X0402287Y0370733D01*
X0403538Y0369482D01*
X0403603Y0369439D01*
Y0355289D01*
X0403319Y0355233D01*
X0402795Y0354882D01*
X0402007Y0354095D01*
X0401657Y0353571D01*
X0401534Y0352953D01*
Y0331693D01*
X0401657Y0331075D01*
X0402007Y0330551D01*
X0406535Y0326023D01*
X0407059Y0325673D01*
X0407677Y0325550D01*
X0428268D01*
X0433148Y0320670D01*
Y0308858D01*
Y0299594D01*
X0432972Y0299521D01*
X0432230Y0298951D01*
X0431661Y0298209D01*
X0431302Y0297345D01*
X0431180Y0296417D01*
X0431302Y0295490D01*
X0431661Y0294626D01*
X0432230Y0293883D01*
X0432972Y0293314D01*
X0433209Y0293216D01*
Y0293110D01*
X0433258Y0292991D01*
Y0278928D01*
X0438395D01*
Y0292991D01*
X0438445Y0293110D01*
Y0296260D01*
X0438332Y0296532D01*
X0438225Y0297345D01*
X0437867Y0298209D01*
X0437298Y0298951D01*
X0436555Y0299521D01*
X0436379Y0299594D01*
Y0306218D01*
X0436879Y0306388D01*
X0437230Y0305931D01*
X0437972Y0305361D01*
X0438836Y0305003D01*
X0439764Y0304881D01*
X0440691Y0305003D01*
X0441556Y0305361D01*
X0442298Y0305931D01*
X0442867Y0306673D01*
X0443225Y0307537D01*
X0443347Y0308465D01*
X0443225Y0309392D01*
X0442867Y0310256D01*
X0442298Y0310998D01*
X0441556Y0311568D01*
X0440691Y0311926D01*
X0439764Y0312048D01*
X0438836Y0311926D01*
X0437972Y0311568D01*
X0437230Y0310998D01*
X0436879Y0310541D01*
X0436379Y0310711D01*
Y0321339D01*
X0436256Y0321957D01*
X0435906Y0322481D01*
X0430079Y0328308D01*
X0429555Y0328658D01*
X0428937Y0328781D01*
X0423466D01*
Y0330502D01*
X0423631D01*
Y0335836D01*
X0420291D01*
Y0336236D01*
X0418610D01*
Y0333169D01*
Y0330102D01*
X0420235D01*
Y0328781D01*
X0408346D01*
X0404765Y0332362D01*
Y0352125D01*
X0407874D01*
X0408492Y0352248D01*
X0409016Y0352598D01*
X0424488Y0368070D01*
X0427943D01*
Y0367313D01*
X0434261D01*
Y0368070D01*
X0440354D01*
X0440973Y0368193D01*
X0441497Y0368543D01*
X0444135Y0371182D01*
X0444534Y0370886D01*
X0444176Y0370022D01*
X0444054Y0369094D01*
X0444176Y0368167D01*
X0444534Y0367303D01*
X0445104Y0366561D01*
X0445846Y0365991D01*
X0446337Y0365788D01*
X0446269Y0365275D01*
X0446060Y0365247D01*
X0444956Y0364790D01*
X0444008Y0364063D01*
X0443281Y0363115D01*
X0442824Y0362011D01*
X0442668Y0360827D01*
X0442824Y0359642D01*
X0443281Y0358539D01*
X0444008Y0357591D01*
X0444956Y0356864D01*
X0446060Y0356406D01*
X0447244Y0356251D01*
X0448032D01*
X0449216Y0356406D01*
X0450320Y0356864D01*
X0451267Y0357591D01*
X0451995Y0358539D01*
X0452452Y0359642D01*
X0452608Y0360827D01*
X0452452Y0362011D01*
X0451995Y0363115D01*
X0451267Y0364063D01*
X0450320Y0364790D01*
X0449216Y0365247D01*
X0449006Y0365275D01*
X0448939Y0365788D01*
X0449430Y0365991D01*
X0450172Y0366561D01*
X0450741Y0367303D01*
X0451099Y0368167D01*
X0451221Y0369094D01*
X0451099Y0370022D01*
X0450741Y0370886D01*
X0450172Y0371628D01*
X0449430Y0372198D01*
X0448565Y0372556D01*
X0447638Y0372678D01*
X0446710Y0372556D01*
X0445846Y0372198D01*
X0445550Y0372597D01*
X0446534Y0373580D01*
X0446710Y0373507D01*
X0447638Y0373385D01*
X0448565Y0373507D01*
X0449430Y0373865D01*
X0450172Y0374435D01*
X0450741Y0375177D01*
X0451099Y0376041D01*
X0451221Y0376969D01*
X0451099Y0377896D01*
X0450741Y0378760D01*
X0450172Y0379502D01*
X0449430Y0380072D01*
X0448565Y0380430D01*
X0447638Y0380552D01*
X0446710Y0380430D01*
X0445846Y0380072D01*
X0445104Y0379502D01*
X0444534Y0378760D01*
X0444176Y0377896D01*
X0444054Y0376969D01*
X0444176Y0376041D01*
X0444250Y0375865D01*
X0439685Y0371300D01*
X0434261D01*
Y0372057D01*
X0430738D01*
X0430673Y0372143D01*
X0430789Y0372822D01*
X0430867Y0372874D01*
X0441220Y0383227D01*
X0444461D01*
X0444534Y0383051D01*
X0445104Y0382309D01*
X0445846Y0381739D01*
X0446710Y0381381D01*
X0447638Y0381259D01*
X0448565Y0381381D01*
X0449430Y0381739D01*
X0450172Y0382309D01*
X0450741Y0383051D01*
X0451099Y0383915D01*
X0451221Y0384842D01*
X0451099Y0385770D01*
X0450741Y0386634D01*
X0450172Y0387376D01*
X0449430Y0387946D01*
X0448939Y0388149D01*
X0449006Y0388662D01*
X0449216Y0388690D01*
X0450320Y0389147D01*
X0451267Y0389874D01*
X0451995Y0390822D01*
X0452452Y0391926D01*
X0452608Y0393110D01*
X0452452Y0394295D01*
X0451995Y0395398D01*
X0451267Y0396346D01*
X0450320Y0397073D01*
X0449216Y0397531D01*
X0448032Y0397686D01*
X0447244D01*
X0446060Y0397531D01*
X0444956Y0397073D01*
X0444008Y0396346D01*
X0443281Y0395398D01*
X0442824Y0394295D01*
X0442668Y0393110D01*
X0442824Y0391926D01*
X0443281Y0390822D01*
X0444008Y0389874D01*
X0444956Y0389147D01*
X0446060Y0388690D01*
X0446269Y0388662D01*
X0446337Y0388149D01*
X0445846Y0387946D01*
X0445104Y0387376D01*
X0444534Y0386634D01*
X0444461Y0386458D01*
X0440551D01*
X0439933Y0386335D01*
X0439409Y0385985D01*
X0429055Y0375631D01*
X0421269D01*
Y0376141D01*
X0423622D01*
X0424240Y0376264D01*
X0424764Y0376614D01*
X0429882Y0381732D01*
X0430232Y0382256D01*
X0430356Y0382874D01*
Y0388110D01*
X0441220Y0398975D01*
X0452874D01*
X0456259Y0395591D01*
Y0361496D01*
X0441851Y0347088D01*
X0422933D01*
X0422777Y0347057D01*
X0420069D01*
Y0341723D01*
X0423631D01*
Y0343857D01*
X0440511D01*
Y0343317D01*
X0439951D01*
Y0338967D01*
X0440511D01*
Y0332480D01*
X0440634Y0331862D01*
X0440984Y0331338D01*
X0444822Y0327500D01*
X0445346Y0327149D01*
X0445965Y0327026D01*
X0452953D01*
X0453571Y0327149D01*
X0453728Y0327254D01*
X0456309D01*
Y0329813D01*
Y0332372D01*
Y0337091D01*
X0456709D01*
Y0338378D01*
X0452953D01*
X0449197D01*
Y0337091D01*
X0449597D01*
Y0334931D01*
Y0330257D01*
X0446634D01*
X0443741Y0333149D01*
Y0338967D01*
X0444301D01*
Y0343317D01*
X0443741D01*
Y0344410D01*
X0459016Y0359685D01*
X0459366Y0360209D01*
X0459489Y0360827D01*
Y0396260D01*
X0459366Y0396878D01*
X0459016Y0397402D01*
X0454685Y0401733D01*
X0454161Y0402083D01*
X0453543Y0402206D01*
D02*
G37*
G36*
X0468513Y0333376D02*
X0459833D01*
Y0326073D01*
X0468513D01*
Y0333376D01*
D02*
G37*
G36*
X0422335Y0313280D02*
X0419276D01*
Y0311008D01*
X0422335D01*
Y0313280D01*
D02*
G37*
G36*
X0423244Y0287811D02*
X0420185D01*
Y0285539D01*
X0423244D01*
Y0287811D01*
D02*
G37*
G36*
X0328362Y0287417D02*
X0325303D01*
Y0285146D01*
X0328362D01*
Y0287417D01*
D02*
G37*
G36*
X0337417Y0287221D02*
X0334358D01*
Y0284949D01*
X0337417D01*
Y0287221D01*
D02*
G37*
G36*
X0444264Y0300338D02*
X0443732Y0300268D01*
X0442770Y0299870D01*
X0441945Y0299236D01*
X0441311Y0298411D01*
X0440913Y0297449D01*
X0440843Y0296917D01*
X0444264D01*
Y0300338D01*
D02*
G37*
G36*
X0448685Y0295917D02*
X0440843D01*
X0440913Y0295385D01*
X0441083Y0294975D01*
Y0294307D01*
X0440732D01*
Y0286917D01*
X0446669D01*
Y0292928D01*
X0446757Y0292965D01*
X0447583Y0293598D01*
X0448216Y0294424D01*
X0448615Y0295385D01*
X0448685Y0295917D01*
D02*
G37*
G36*
X0443201Y0285917D02*
X0440732D01*
Y0278528D01*
X0443201D01*
Y0285917D01*
D02*
G37*
G36*
X0333358Y0287221D02*
X0330299D01*
Y0284949D01*
X0333358D01*
Y0287221D01*
D02*
G37*
G36*
X0324303Y0284146D02*
X0321244D01*
Y0281874D01*
X0324303D01*
Y0284146D01*
D02*
G37*
G36*
X0337417Y0283949D02*
X0334358D01*
Y0281677D01*
X0337417D01*
Y0283949D01*
D02*
G37*
G36*
X0333358D02*
X0330299D01*
Y0281677D01*
X0333358D01*
Y0283949D01*
D02*
G37*
G36*
X0446669Y0285917D02*
X0444201D01*
Y0278528D01*
X0446669D01*
Y0285917D01*
D02*
G37*
G36*
X0423244Y0284539D02*
X0420185D01*
Y0282268D01*
X0423244D01*
Y0284539D01*
D02*
G37*
G36*
X0328362Y0284146D02*
X0325303D01*
Y0281874D01*
X0328362D01*
Y0284146D01*
D02*
G37*
G36*
X0404224Y0313280D02*
X0401165D01*
Y0311008D01*
X0404224D01*
Y0313280D01*
D02*
G37*
G36*
X0399228Y0313280D02*
X0396169D01*
Y0311008D01*
X0399228D01*
Y0313280D01*
D02*
G37*
G36*
X0395169D02*
X0392110D01*
Y0311008D01*
X0395169D01*
Y0313280D01*
D02*
G37*
G36*
X0417339Y0313280D02*
X0414280D01*
Y0311008D01*
X0417339D01*
Y0313280D01*
D02*
G37*
G36*
X0413279D02*
X0410220D01*
Y0311008D01*
X0413279D01*
Y0313280D01*
D02*
G37*
G36*
X0408284D02*
X0405224D01*
Y0311008D01*
X0408284D01*
Y0313280D01*
D02*
G37*
G36*
X0390173D02*
X0387114D01*
Y0311008D01*
X0390173D01*
Y0313280D01*
D02*
G37*
G36*
X0459827Y0302453D02*
X0456405D01*
Y0299032D01*
X0456937Y0299102D01*
X0457899Y0299500D01*
X0458725Y0300134D01*
X0459358Y0300959D01*
X0459757Y0301921D01*
X0459827Y0302453D01*
D02*
G37*
G36*
X0455406D02*
X0451985D01*
X0452055Y0301921D01*
X0452453Y0300959D01*
X0453086Y0300134D01*
X0453912Y0299500D01*
X0454874Y0299102D01*
X0455406Y0299032D01*
Y0302453D01*
D02*
G37*
G36*
X0445264Y0300338D02*
Y0296917D01*
X0448685D01*
X0448615Y0297449D01*
X0448216Y0298411D01*
X0447583Y0299236D01*
X0446757Y0299870D01*
X0445796Y0300268D01*
X0445264Y0300338D01*
D02*
G37*
G36*
X0386114Y0313280D02*
X0383055D01*
Y0311008D01*
X0386114D01*
Y0313280D01*
D02*
G37*
G36*
X0456405Y0306874D02*
Y0303453D01*
X0459827D01*
X0459757Y0303985D01*
X0459358Y0304946D01*
X0458725Y0305772D01*
X0457899Y0306405D01*
X0456937Y0306804D01*
X0456405Y0306874D01*
D02*
G37*
G36*
X0455406D02*
X0454874Y0306804D01*
X0453912Y0306405D01*
X0453086Y0305772D01*
X0452453Y0304946D01*
X0452055Y0303985D01*
X0451985Y0303453D01*
X0455406D01*
Y0306874D01*
D02*
G37*
G36*
X0310917Y0384071D02*
X0308842D01*
Y0380618D01*
X0310917D01*
Y0384071D01*
D02*
G37*
G36*
Y0379618D02*
X0308842D01*
Y0376165D01*
X0310917D01*
Y0379618D01*
D02*
G37*
G36*
X0394110Y0372063D02*
X0391051D01*
Y0369791D01*
X0394110D01*
Y0372063D01*
D02*
G37*
G36*
X0366114Y0384736D02*
X0362661D01*
Y0381283D01*
X0366114D01*
Y0384736D01*
D02*
G37*
G36*
X0421669Y0384268D02*
X0418610D01*
Y0381996D01*
X0421669D01*
Y0384268D01*
D02*
G37*
G36*
X0417610D02*
X0414551D01*
Y0381996D01*
X0417610D01*
Y0384268D01*
D02*
G37*
G36*
X0370567Y0384736D02*
X0367114D01*
Y0381283D01*
X0370567D01*
Y0384736D01*
D02*
G37*
G36*
X0293307Y0253989D02*
X0292020Y0253819D01*
X0290821Y0253323D01*
X0289791Y0252532D01*
X0289000Y0251502D01*
X0288503Y0250303D01*
X0288334Y0249016D01*
X0288503Y0247729D01*
X0289000Y0246529D01*
X0289791Y0245499D01*
X0290821Y0244709D01*
X0292020Y0244212D01*
X0293307Y0244042D01*
X0294594Y0244212D01*
X0295794Y0244709D01*
X0296824Y0245499D01*
X0297614Y0246529D01*
X0298111Y0247729D01*
X0298280Y0249016D01*
X0298111Y0250303D01*
X0297614Y0251502D01*
X0296824Y0252532D01*
X0295794Y0253323D01*
X0294594Y0253819D01*
X0293307Y0253989D01*
D02*
G37*
G36*
X0394110Y0368791D02*
X0391051D01*
Y0366520D01*
X0394110D01*
Y0368791D01*
D02*
G37*
G36*
X0390051D02*
X0386992D01*
Y0366520D01*
X0390051D01*
Y0368791D01*
D02*
G37*
G36*
X0381390Y0371444D02*
X0380755Y0371361D01*
X0379698Y0370923D01*
X0378790Y0370226D01*
X0378093Y0369318D01*
X0377655Y0368261D01*
X0377572Y0367626D01*
X0381390D01*
Y0371444D01*
D02*
G37*
G36*
X0390051Y0372063D02*
X0386992D01*
Y0369791D01*
X0390051D01*
Y0372063D01*
D02*
G37*
G36*
X0398319Y0370783D02*
X0395850D01*
Y0369004D01*
X0398319D01*
Y0370783D01*
D02*
G37*
G36*
X0382390Y0371444D02*
Y0367626D01*
X0386208D01*
X0386124Y0368261D01*
X0385686Y0369318D01*
X0384990Y0370226D01*
X0384082Y0370923D01*
X0383024Y0371361D01*
X0382390Y0371444D01*
D02*
G37*
G36*
X0464173Y0413044D02*
X0462886Y0412875D01*
X0461687Y0412378D01*
X0460657Y0411587D01*
X0459866Y0410558D01*
X0459369Y0409358D01*
X0459200Y0408071D01*
X0459369Y0406784D01*
X0459866Y0405584D01*
X0460657Y0404554D01*
X0461687Y0403764D01*
X0462886Y0403267D01*
X0464173Y0403098D01*
X0465460Y0403267D01*
X0466660Y0403764D01*
X0467690Y0404554D01*
X0468480Y0405584D01*
X0468977Y0406784D01*
X0469146Y0408071D01*
X0468977Y0409358D01*
X0468480Y0410558D01*
X0467690Y0411587D01*
X0466660Y0412378D01*
X0465460Y0412875D01*
X0464173Y0413044D01*
D02*
G37*
G36*
X0293307D02*
X0292020Y0412875D01*
X0290821Y0412378D01*
X0289791Y0411587D01*
X0289000Y0410558D01*
X0288503Y0409358D01*
X0288334Y0408071D01*
X0288503Y0406784D01*
X0289000Y0405584D01*
X0289791Y0404554D01*
X0290821Y0403764D01*
X0292020Y0403267D01*
X0293307Y0403098D01*
X0294594Y0403267D01*
X0295794Y0403764D01*
X0296824Y0404554D01*
X0297614Y0405584D01*
X0298111Y0406784D01*
X0298280Y0408071D01*
X0298111Y0409358D01*
X0297614Y0410558D01*
X0296824Y0411587D01*
X0295794Y0412378D01*
X0294594Y0412875D01*
X0293307Y0413044D01*
D02*
G37*
G36*
X0413638Y0404815D02*
X0408984D01*
Y0401165D01*
X0413638D01*
Y0404815D01*
D02*
G37*
G36*
X0307945Y0409071D02*
X0303291D01*
Y0405421D01*
X0307945D01*
Y0409071D01*
D02*
G37*
G36*
X0413638Y0409465D02*
X0408984D01*
Y0405815D01*
X0413638D01*
Y0409465D01*
D02*
G37*
G36*
X0407984D02*
X0403331D01*
Y0405815D01*
X0407984D01*
Y0409465D01*
D02*
G37*
G36*
X0313598Y0409071D02*
X0308945D01*
Y0405421D01*
X0313598D01*
Y0409071D01*
D02*
G37*
G36*
X0370567Y0389189D02*
X0367114D01*
Y0385736D01*
X0370567D01*
Y0389189D01*
D02*
G37*
G36*
X0366114D02*
X0362661D01*
Y0385736D01*
X0366114D01*
Y0389189D01*
D02*
G37*
G36*
X0345685Y0387098D02*
X0342232D01*
Y0385024D01*
X0345685D01*
Y0387098D01*
D02*
G37*
G36*
X0342232Y0390173D02*
Y0388098D01*
X0345685D01*
Y0390173D01*
X0342232D01*
D02*
G37*
G36*
X0407984Y0404815D02*
X0403331D01*
Y0401165D01*
X0407984D01*
Y0404815D01*
D02*
G37*
G36*
X0313598Y0404421D02*
X0308945D01*
Y0400772D01*
X0313598D01*
Y0404421D01*
D02*
G37*
G36*
X0307945D02*
X0303291D01*
Y0400772D01*
X0307945D01*
Y0404421D01*
D02*
G37*
G36*
X0387221Y0352969D02*
X0384949D01*
Y0349909D01*
X0387221D01*
Y0352969D01*
D02*
G37*
G36*
X0383949D02*
X0381677D01*
Y0349909D01*
X0383949D01*
Y0352969D01*
D02*
G37*
G36*
X0423244Y0352059D02*
X0421563D01*
Y0349787D01*
X0423244D01*
Y0352059D01*
D02*
G37*
G36*
X0434065Y0271860D02*
X0426959D01*
Y0257274D01*
X0434065D01*
Y0271860D01*
D02*
G37*
G36*
X0423244Y0355331D02*
X0421563D01*
Y0353059D01*
X0423244D01*
Y0355331D01*
D02*
G37*
G36*
X0420563D02*
X0418882D01*
Y0353059D01*
X0420563D01*
Y0355331D01*
D02*
G37*
G36*
X0457195Y0350108D02*
X0450483D01*
Y0342609D01*
X0457195D01*
Y0350108D01*
D02*
G37*
G36*
X0416939Y0354931D02*
X0413376D01*
Y0352264D01*
X0413334Y0352201D01*
X0413248Y0351772D01*
X0413248Y0351772D01*
Y0347057D01*
X0412589D01*
Y0341723D01*
X0416151D01*
Y0347057D01*
X0415492D01*
Y0350187D01*
X0416939D01*
Y0354931D01*
D02*
G37*
G36*
X0424803Y0339901D02*
X0424803Y0339901D01*
X0417323D01*
X0417323Y0339901D01*
X0416894Y0339816D01*
X0416530Y0339573D01*
X0416530Y0339573D01*
X0413577Y0336620D01*
X0413334Y0336256D01*
X0413250Y0335836D01*
X0412589D01*
Y0330502D01*
X0415929D01*
Y0330102D01*
X0417610D01*
Y0333169D01*
Y0336236D01*
X0417019D01*
X0416828Y0336698D01*
X0417787Y0337658D01*
X0424339D01*
X0427943Y0334053D01*
Y0332077D01*
X0431505D01*
Y0336821D01*
X0428348D01*
X0425596Y0339573D01*
X0425232Y0339816D01*
X0424803Y0339901D01*
D02*
G37*
G36*
X0420563Y0352059D02*
X0418882D01*
Y0349787D01*
X0420563D01*
Y0352059D01*
D02*
G37*
G36*
X0452568Y0271860D02*
X0445463D01*
Y0257274D01*
X0452568D01*
Y0271860D01*
D02*
G37*
G36*
X0468513Y0353651D02*
X0459833D01*
Y0343396D01*
X0468513D01*
Y0353651D01*
D02*
G37*
G36*
X0386208Y0366626D02*
X0382390D01*
Y0362808D01*
X0383024Y0362891D01*
X0384082Y0363329D01*
X0384990Y0364026D01*
X0385686Y0364934D01*
X0386124Y0365991D01*
X0386208Y0366626D01*
D02*
G37*
G36*
X0434661Y0364976D02*
X0431602D01*
Y0362705D01*
X0434661D01*
Y0364976D01*
D02*
G37*
G36*
X0430602D02*
X0427543D01*
Y0362705D01*
X0430602D01*
Y0364976D01*
D02*
G37*
G36*
X0381390Y0366626D02*
X0377572D01*
X0377655Y0365991D01*
X0378093Y0364934D01*
X0378790Y0364026D01*
X0379698Y0363329D01*
X0380755Y0362891D01*
X0381390Y0362808D01*
Y0366626D01*
D02*
G37*
G36*
X0401787Y0368004D02*
X0399319D01*
Y0366224D01*
X0401787D01*
Y0368004D01*
D02*
G37*
G36*
X0398319D02*
X0395850D01*
Y0366224D01*
X0398319D01*
Y0368004D01*
D02*
G37*
G36*
X0464173Y0253989D02*
X0462886Y0253819D01*
X0461687Y0253323D01*
X0460657Y0252532D01*
X0459866Y0251502D01*
X0459369Y0250303D01*
X0459200Y0249016D01*
X0459369Y0247729D01*
X0459866Y0246529D01*
X0460657Y0245499D01*
X0461687Y0244709D01*
X0462886Y0244212D01*
X0464173Y0244042D01*
X0465460Y0244212D01*
X0466660Y0244709D01*
X0467690Y0245499D01*
X0468480Y0246529D01*
X0468977Y0247729D01*
X0469146Y0249016D01*
X0468977Y0250303D01*
X0468480Y0251502D01*
X0467690Y0252532D01*
X0466660Y0253323D01*
X0465460Y0253819D01*
X0464173Y0253989D01*
D02*
G37*
G36*
X0353150Y0412836D02*
X0331496D01*
X0330878Y0412713D01*
X0330354Y0412363D01*
X0314606Y0396615D01*
X0314256Y0396091D01*
X0314133Y0395472D01*
Y0384513D01*
X0313992Y0384071D01*
X0313633Y0384071D01*
X0311917D01*
Y0380118D01*
Y0376165D01*
X0313992Y0376165D01*
X0314133Y0375724D01*
Y0375325D01*
X0310212Y0371404D01*
X0299813Y0381803D01*
Y0388238D01*
X0292313D01*
Y0381015D01*
X0287440Y0376142D01*
X0287090Y0375618D01*
X0286967Y0375000D01*
Y0266732D01*
X0287090Y0266114D01*
X0287440Y0265590D01*
X0296889Y0256141D01*
X0297413Y0255791D01*
X0298031Y0255668D01*
X0316929D01*
X0317547Y0255791D01*
X0318071Y0256141D01*
X0319646Y0257716D01*
X0319996Y0258240D01*
X0320119Y0258858D01*
Y0261992D01*
X0322886D01*
Y0265945D01*
Y0269898D01*
X0320527D01*
X0320320Y0270398D01*
X0324716Y0274794D01*
X0327962D01*
Y0275353D01*
X0330699D01*
Y0274597D01*
X0331456D01*
Y0256496D01*
X0331578Y0255878D01*
X0331929Y0255354D01*
X0334291Y0252992D01*
X0334815Y0252642D01*
X0335433Y0252519D01*
X0353150D01*
X0353768Y0252642D01*
X0354292Y0252992D01*
X0357244Y0255944D01*
X0357595Y0256469D01*
X0357718Y0257087D01*
Y0265866D01*
X0359213Y0267362D01*
X0359563Y0267886D01*
X0359674Y0268445D01*
X0366388D01*
X0366421Y0268280D01*
X0366771Y0267756D01*
X0370511Y0264015D01*
X0372480Y0262047D01*
X0373004Y0261697D01*
X0373622Y0261574D01*
X0403937D01*
X0404555Y0261697D01*
X0405079Y0262047D01*
X0408229Y0265196D01*
X0408250Y0265229D01*
X0408750Y0265077D01*
Y0258061D01*
X0419005D01*
Y0271466D01*
X0408974D01*
X0408750Y0271466D01*
X0408474Y0271852D01*
Y0272833D01*
X0409031Y0273390D01*
X0409055Y0273385D01*
X0412205D01*
X0412823Y0273508D01*
X0413347Y0273858D01*
X0415433Y0275944D01*
X0416526D01*
Y0275187D01*
X0422844D01*
Y0279931D01*
X0416526D01*
Y0279174D01*
X0414764D01*
X0414146Y0279051D01*
X0413622Y0278701D01*
X0411536Y0276615D01*
X0410330D01*
X0410272Y0277113D01*
X0410636Y0277357D01*
X0415716Y0282437D01*
X0416126Y0282268D01*
Y0282268D01*
X0419185D01*
Y0285039D01*
Y0287811D01*
X0417806D01*
X0417615Y0288273D01*
X0423628Y0294286D01*
X0423628Y0294286D01*
X0423871Y0294650D01*
X0423956Y0295079D01*
Y0303928D01*
X0425994D01*
Y0308671D01*
X0419676D01*
Y0303928D01*
X0421713D01*
Y0295543D01*
X0408197Y0282027D01*
X0403150D01*
X0402720Y0281942D01*
X0402357Y0281699D01*
X0402356Y0281698D01*
X0399062Y0278404D01*
X0398621Y0278587D01*
X0398573Y0279074D01*
X0414573Y0295073D01*
X0414573Y0295073D01*
X0414816Y0295437D01*
X0414901Y0295866D01*
X0414901Y0295866D01*
Y0303928D01*
X0416939D01*
Y0308671D01*
X0410620D01*
Y0303928D01*
X0412658D01*
Y0296331D01*
X0397094Y0280767D01*
X0396594Y0280974D01*
Y0282213D01*
X0405517Y0291136D01*
X0405517Y0291136D01*
X0405761Y0291500D01*
X0405846Y0291929D01*
X0405846Y0291929D01*
Y0303928D01*
X0407884D01*
Y0308671D01*
X0401565D01*
Y0303928D01*
X0403603D01*
Y0292394D01*
X0395126Y0283916D01*
X0394625Y0284123D01*
Y0287331D01*
X0396462Y0289168D01*
X0396462Y0289168D01*
X0396706Y0289531D01*
X0396791Y0289961D01*
X0396791Y0289961D01*
Y0303928D01*
X0398828D01*
Y0308671D01*
X0392510D01*
Y0303928D01*
X0394548D01*
Y0290425D01*
X0393157Y0289035D01*
X0392657Y0289242D01*
Y0291338D01*
X0392657Y0291339D01*
X0392572Y0291768D01*
X0392329Y0292132D01*
X0392329Y0292132D01*
X0387736Y0296724D01*
Y0303928D01*
X0389773D01*
Y0308671D01*
X0383455D01*
Y0308671D01*
X0383011Y0308806D01*
Y0309449D01*
X0382926Y0309878D01*
X0382683Y0310242D01*
X0382683Y0310242D01*
X0380718Y0312207D01*
Y0316151D01*
X0374400D01*
Y0311408D01*
X0378345D01*
X0380582Y0309171D01*
X0380375Y0308671D01*
X0374400D01*
Y0308671D01*
X0373956Y0308806D01*
Y0309449D01*
X0373871Y0309878D01*
X0373628Y0310242D01*
X0373628Y0310242D01*
X0371663Y0312207D01*
Y0316151D01*
X0365345D01*
Y0311408D01*
X0369289D01*
X0371527Y0309171D01*
X0371319Y0308671D01*
X0366144D01*
X0362608Y0312207D01*
Y0316151D01*
X0356290D01*
Y0311408D01*
X0360234D01*
X0362471Y0309171D01*
X0362264Y0308671D01*
X0356290D01*
Y0303928D01*
X0358327D01*
Y0301772D01*
X0358327Y0301772D01*
X0358359Y0301611D01*
X0357898Y0301365D01*
X0353553Y0305711D01*
Y0308671D01*
X0347235D01*
Y0304719D01*
X0346773Y0304527D01*
X0346104Y0305197D01*
Y0315555D01*
X0346335Y0315736D01*
X0346835Y0315502D01*
Y0314280D01*
X0349894D01*
Y0316551D01*
X0348203D01*
X0347935Y0317051D01*
X0347958Y0317086D01*
X0380315D01*
X0380933Y0317209D01*
X0381457Y0317559D01*
X0384874Y0320976D01*
X0384875Y0320976D01*
X0392481Y0328582D01*
X0392831Y0329106D01*
X0392954Y0329724D01*
Y0332858D01*
X0394776D01*
Y0336811D01*
Y0340764D01*
X0392707D01*
X0392481Y0341103D01*
X0388544Y0345040D01*
X0388020Y0345390D01*
X0387544Y0345484D01*
X0387221Y0345850D01*
Y0348909D01*
X0384449D01*
X0381677D01*
Y0346576D01*
X0381215Y0346385D01*
X0379340Y0348260D01*
Y0352569D01*
X0378584D01*
Y0354843D01*
X0381565Y0357824D01*
X0388936D01*
Y0353937D01*
X0389059Y0353319D01*
X0389409Y0352795D01*
X0391181Y0351023D01*
X0391705Y0350673D01*
X0392079Y0350599D01*
X0392172Y0350374D01*
X0392742Y0349632D01*
X0393484Y0349062D01*
X0394348Y0348704D01*
X0395276Y0348582D01*
X0396203Y0348704D01*
X0397067Y0349062D01*
X0397809Y0349632D01*
X0398379Y0350374D01*
X0398737Y0351238D01*
X0398859Y0352165D01*
X0398737Y0353093D01*
X0398379Y0353957D01*
X0397809Y0354699D01*
X0397067Y0355269D01*
X0396203Y0355627D01*
X0395276Y0355749D01*
X0394348Y0355627D01*
X0393484Y0355269D01*
X0392742Y0354699D01*
X0392682Y0354622D01*
X0392602Y0354617D01*
X0392166Y0354771D01*
Y0359408D01*
X0396250D01*
Y0359144D01*
X0401387D01*
Y0362903D01*
X0396250D01*
Y0362639D01*
X0393710D01*
Y0364183D01*
X0387392D01*
Y0361055D01*
X0380896D01*
X0380278Y0360932D01*
X0379754Y0360582D01*
X0375826Y0356654D01*
X0375476Y0356130D01*
X0375353Y0355512D01*
Y0352569D01*
X0374597D01*
Y0348624D01*
X0374240Y0348267D01*
X0371269D01*
Y0350778D01*
Y0353701D01*
X0372342D01*
X0372342Y0353701D01*
X0372772Y0353787D01*
X0373136Y0354030D01*
X0373628Y0354522D01*
X0373628Y0354522D01*
X0373871Y0354886D01*
X0373956Y0355315D01*
Y0359646D01*
X0373956Y0359646D01*
X0373871Y0360075D01*
X0373628Y0360439D01*
X0373628Y0360439D01*
X0366476Y0367590D01*
Y0374535D01*
X0367787Y0375847D01*
X0374409D01*
X0374409Y0375847D01*
X0374839Y0375932D01*
X0375202Y0376175D01*
X0378614Y0379587D01*
X0380512D01*
X0380512Y0379587D01*
X0380941Y0379673D01*
X0381305Y0379916D01*
X0384087Y0382698D01*
X0384823Y0382133D01*
X0385687Y0381775D01*
X0386614Y0381653D01*
X0387542Y0381775D01*
X0388406Y0382133D01*
X0389148Y0382702D01*
X0389718Y0383444D01*
X0390075Y0384309D01*
X0390198Y0385236D01*
X0390075Y0386164D01*
X0389718Y0387028D01*
X0389148Y0387770D01*
X0388406Y0388339D01*
X0387542Y0388698D01*
X0386614Y0388820D01*
X0385687Y0388698D01*
X0384823Y0388339D01*
X0384080Y0387770D01*
X0383511Y0387028D01*
X0383153Y0386164D01*
X0383031Y0385236D01*
X0383080Y0384863D01*
X0380047Y0381830D01*
X0378833D01*
X0378663Y0382330D01*
X0379148Y0382702D01*
X0379717Y0383444D01*
X0380076Y0384309D01*
X0380198Y0385236D01*
X0380076Y0386164D01*
X0379717Y0387028D01*
X0379148Y0387770D01*
X0378406Y0388339D01*
X0377542Y0388698D01*
X0376614Y0388820D01*
X0375687Y0388698D01*
X0374822Y0388339D01*
X0374080Y0387770D01*
X0373511Y0387028D01*
X0373153Y0386164D01*
X0373031Y0385236D01*
X0373153Y0384309D01*
X0373511Y0383444D01*
X0373802Y0383065D01*
X0371110Y0380374D01*
X0365669D01*
X0365669Y0380374D01*
X0365240Y0380288D01*
X0364876Y0380045D01*
X0362199Y0377368D01*
X0361956Y0377004D01*
X0361871Y0376575D01*
X0361871Y0376575D01*
Y0364370D01*
X0361871Y0364370D01*
X0361956Y0363941D01*
X0362199Y0363577D01*
X0365414Y0360362D01*
Y0358868D01*
X0364558D01*
Y0355896D01*
Y0353385D01*
X0359941D01*
X0359941Y0353385D01*
X0359512Y0353300D01*
X0359148Y0353057D01*
X0359148Y0353057D01*
X0356294Y0350202D01*
X0356050Y0349839D01*
X0355965Y0349409D01*
X0355965Y0349409D01*
Y0336882D01*
X0350716Y0331633D01*
X0334646D01*
X0334646Y0331633D01*
X0334216Y0331548D01*
X0333853Y0331305D01*
X0326372Y0323825D01*
X0326129Y0323461D01*
X0326044Y0323031D01*
X0326044Y0323031D01*
Y0300591D01*
X0326044Y0300591D01*
X0326129Y0300161D01*
X0326372Y0299798D01*
X0349075Y0277095D01*
Y0274616D01*
X0349006D01*
Y0271852D01*
X0348730Y0271466D01*
X0348506Y0271466D01*
X0338475D01*
Y0258061D01*
X0348730D01*
Y0268700D01*
X0349006Y0269085D01*
X0349230Y0269085D01*
X0354866D01*
X0355053Y0268635D01*
X0355164Y0268589D01*
X0355282Y0267999D01*
X0354960Y0267678D01*
X0354610Y0267154D01*
X0354487Y0266535D01*
Y0257756D01*
X0352481Y0255749D01*
X0336102D01*
X0334686Y0257165D01*
Y0274597D01*
X0337017D01*
Y0279340D01*
X0330699D01*
Y0278584D01*
X0327962D01*
Y0279537D01*
X0321644D01*
Y0276291D01*
X0320788Y0275434D01*
X0300275D01*
X0298072Y0277638D01*
Y0302914D01*
X0302439Y0307281D01*
X0302616Y0307208D01*
X0303543Y0307086D01*
X0304471Y0307208D01*
X0305335Y0307566D01*
X0306077Y0308135D01*
X0306647Y0308878D01*
X0307005Y0309742D01*
X0307127Y0310669D01*
X0307005Y0311597D01*
X0306647Y0312461D01*
X0306077Y0313203D01*
X0305335Y0313773D01*
X0304471Y0314131D01*
X0303543Y0314253D01*
X0302616Y0314131D01*
X0302439Y0314057D01*
X0299253Y0317244D01*
Y0320624D01*
X0299471Y0320788D01*
X0299659Y0320742D01*
X0299977Y0320542D01*
X0300082Y0319742D01*
X0300440Y0318878D01*
X0301009Y0318135D01*
X0301752Y0317566D01*
X0302616Y0317208D01*
X0303543Y0317086D01*
X0304471Y0317208D01*
X0305335Y0317566D01*
X0306077Y0318135D01*
X0306647Y0318878D01*
X0306924Y0319548D01*
X0310630D01*
X0310630Y0319548D01*
X0311059Y0319633D01*
X0311423Y0319876D01*
X0313733Y0322186D01*
X0313950Y0322154D01*
X0314233Y0322008D01*
Y0305386D01*
X0310638Y0301791D01*
X0306924D01*
X0306647Y0302461D01*
X0306077Y0303203D01*
X0305335Y0303773D01*
X0304471Y0304131D01*
X0303543Y0304253D01*
X0302616Y0304131D01*
X0301752Y0303773D01*
X0301009Y0303203D01*
X0300440Y0302461D01*
X0300082Y0301597D01*
X0299960Y0300669D01*
X0300082Y0299742D01*
X0300440Y0298878D01*
X0301009Y0298135D01*
X0301752Y0297566D01*
X0302616Y0297208D01*
X0303543Y0297086D01*
X0304471Y0297208D01*
X0305335Y0297566D01*
X0306077Y0298135D01*
X0306647Y0298878D01*
X0306924Y0299548D01*
X0311102D01*
X0311102Y0299548D01*
X0311532Y0299633D01*
X0311895Y0299876D01*
X0316147Y0304128D01*
X0316147Y0304128D01*
X0316390Y0304492D01*
X0316476Y0304921D01*
Y0328472D01*
X0326350Y0338347D01*
X0328110D01*
X0328262Y0337847D01*
X0328046Y0337702D01*
X0328046Y0337702D01*
X0318105Y0327762D01*
X0317862Y0327398D01*
X0317776Y0326969D01*
X0317776Y0326969D01*
Y0296724D01*
X0312842Y0291791D01*
X0306924D01*
X0306647Y0292461D01*
X0306077Y0293203D01*
X0305335Y0293773D01*
X0304471Y0294131D01*
X0303543Y0294253D01*
X0302616Y0294131D01*
X0301752Y0293773D01*
X0301009Y0293203D01*
X0300440Y0292461D01*
X0300082Y0291597D01*
X0299960Y0290669D01*
X0300082Y0289742D01*
X0300440Y0288878D01*
X0301009Y0288135D01*
X0301752Y0287566D01*
X0302616Y0287208D01*
X0303543Y0287086D01*
X0304471Y0287208D01*
X0305335Y0287566D01*
X0306077Y0288135D01*
X0306647Y0288878D01*
X0306924Y0289548D01*
X0313307D01*
X0313307Y0289548D01*
X0313736Y0289633D01*
X0314100Y0289876D01*
X0319691Y0295467D01*
X0319691Y0295467D01*
X0319934Y0295831D01*
X0320019Y0296260D01*
X0320019Y0296260D01*
Y0326504D01*
X0329303Y0335788D01*
X0331456D01*
X0331608Y0335288D01*
X0331392Y0335143D01*
X0331392Y0335143D01*
X0321648Y0325399D01*
X0321405Y0325036D01*
X0321319Y0324606D01*
X0321319Y0324606D01*
Y0290819D01*
X0312291Y0281791D01*
X0307096D01*
Y0284222D01*
X0299991D01*
Y0277116D01*
X0307096D01*
Y0279548D01*
X0312756D01*
X0312756Y0279548D01*
X0313185Y0279633D01*
X0313549Y0279876D01*
X0320744Y0287071D01*
X0321244Y0286864D01*
Y0285146D01*
X0324303D01*
Y0287417D01*
X0321797D01*
X0321590Y0287917D01*
X0323234Y0289561D01*
X0323477Y0289925D01*
X0323563Y0290354D01*
X0323563Y0290354D01*
Y0324142D01*
X0332650Y0333229D01*
X0341329D01*
Y0332865D01*
X0348041D01*
Y0335424D01*
Y0337983D01*
Y0340906D01*
X0348524D01*
X0348524Y0340906D01*
X0348953Y0340991D01*
X0349317Y0341234D01*
X0351187Y0343105D01*
X0351187Y0343105D01*
X0351430Y0343468D01*
X0351515Y0343898D01*
X0351515Y0343898D01*
Y0348945D01*
X0359454Y0356884D01*
X0359454Y0356884D01*
X0359698Y0357248D01*
X0359783Y0357677D01*
Y0376968D01*
X0359783Y0376969D01*
X0359698Y0377398D01*
X0359454Y0377762D01*
X0359454Y0377762D01*
X0358277Y0378939D01*
Y0382293D01*
X0351172D01*
Y0380846D01*
X0345285D01*
Y0381899D01*
X0338179D01*
Y0381899D01*
X0337736Y0382035D01*
Y0384542D01*
X0337779Y0385024D01*
X0338236Y0385024D01*
X0341232D01*
Y0387598D01*
Y0390173D01*
X0337779Y0390173D01*
X0337736Y0390655D01*
Y0390677D01*
X0339441Y0392382D01*
X0357480D01*
X0357480Y0392382D01*
X0357909Y0392468D01*
X0358273Y0392711D01*
X0367403Y0401840D01*
X0367865Y0401649D01*
Y0401565D01*
X0377372D01*
Y0409065D01*
X0367865D01*
Y0405474D01*
X0357016Y0394625D01*
X0338976D01*
X0338976Y0394625D01*
X0338547Y0394540D01*
X0338183Y0394297D01*
X0338183Y0394297D01*
X0335821Y0391935D01*
X0335578Y0391571D01*
X0335493Y0391142D01*
X0335493Y0391142D01*
Y0376969D01*
X0335493Y0376969D01*
X0335578Y0376539D01*
X0335821Y0376175D01*
X0337002Y0374994D01*
X0337002Y0374994D01*
X0337366Y0374751D01*
X0337795Y0374666D01*
X0337795Y0374666D01*
X0350716D01*
X0355571Y0369811D01*
Y0358929D01*
X0348503Y0351861D01*
X0348041Y0352052D01*
Y0355896D01*
Y0358868D01*
X0342128D01*
X0340875Y0360121D01*
X0341082Y0360620D01*
X0343710D01*
Y0369694D01*
X0336605D01*
Y0361161D01*
X0336105Y0360954D01*
X0328287Y0368772D01*
Y0395795D01*
X0336291Y0403800D01*
X0339558D01*
Y0401172D01*
X0349065D01*
Y0408671D01*
X0339558D01*
Y0406043D01*
X0335827D01*
X0335827Y0406043D01*
X0335398Y0405957D01*
X0335034Y0405714D01*
X0335034Y0405714D01*
X0326372Y0397053D01*
X0326129Y0396689D01*
X0326044Y0396260D01*
X0326044Y0396260D01*
Y0368307D01*
X0326044Y0368307D01*
X0326129Y0367878D01*
X0326372Y0367514D01*
X0331598Y0362289D01*
X0331406Y0361827D01*
X0328847D01*
Y0359752D01*
X0332299D01*
Y0360934D01*
X0332761Y0361125D01*
X0337737Y0356149D01*
X0337530Y0355649D01*
X0321654D01*
X0321654Y0355649D01*
X0321224Y0355564D01*
X0320866Y0355324D01*
X0320019D01*
Y0360522D01*
X0321860D01*
Y0361083D01*
X0322560D01*
X0322560Y0361083D01*
X0322989Y0361169D01*
X0323353Y0361412D01*
X0323821Y0361880D01*
X0323951Y0361884D01*
X0324394Y0361476D01*
X0324394Y0361361D01*
Y0359752D01*
X0327847D01*
Y0361827D01*
X0324886D01*
X0324744Y0361827D01*
X0324368Y0362221D01*
X0324347Y0362268D01*
X0324370Y0362324D01*
X0324475Y0362533D01*
X0324718Y0362897D01*
X0324803Y0363326D01*
X0324803Y0363326D01*
Y0375728D01*
X0324803Y0375728D01*
X0324718Y0376157D01*
X0324475Y0376521D01*
X0324475Y0376521D01*
X0321466Y0379529D01*
Y0383671D01*
X0317363D01*
Y0394803D01*
X0332165Y0409605D01*
X0352481D01*
X0352715Y0409370D01*
Y0401260D01*
X0351299Y0399844D01*
X0337008D01*
X0336390Y0399721D01*
X0335866Y0399371D01*
X0330354Y0393859D01*
X0330004Y0393335D01*
X0329881Y0392717D01*
Y0375000D01*
X0330004Y0374382D01*
X0330354Y0373858D01*
X0333110Y0371102D01*
X0333634Y0370752D01*
X0334252Y0370629D01*
X0346969D01*
X0347441Y0370156D01*
X0347250Y0369694D01*
X0346054D01*
Y0360620D01*
X0353159D01*
Y0369694D01*
X0351222D01*
Y0370276D01*
X0351099Y0370894D01*
X0350748Y0371418D01*
X0348780Y0373386D01*
X0348256Y0373736D01*
X0347638Y0373859D01*
X0334921D01*
X0333111Y0375669D01*
Y0392048D01*
X0337677Y0396613D01*
X0351969D01*
X0352587Y0396736D01*
X0353111Y0397086D01*
X0355473Y0399448D01*
X0355823Y0399972D01*
X0355946Y0400591D01*
Y0410039D01*
X0355823Y0410658D01*
X0355473Y0411181D01*
X0354292Y0412363D01*
X0353768Y0412713D01*
X0353150Y0412836D01*
D02*
G37*
G36*
X0332299Y0358752D02*
X0328847D01*
Y0356677D01*
X0332299D01*
Y0358752D01*
D02*
G37*
G36*
X0430602Y0361705D02*
X0427543D01*
Y0359433D01*
X0430602D01*
Y0361705D01*
D02*
G37*
G36*
X0327847Y0358752D02*
X0324394D01*
Y0356677D01*
X0327847D01*
Y0358752D01*
D02*
G37*
G36*
X0434661Y0361705D02*
X0431602D01*
Y0359433D01*
X0434661D01*
Y0361705D01*
D02*
G37*
%LPD*%
G36*
X0394823Y0382133D02*
X0395687Y0381775D01*
X0396614Y0381653D01*
X0397542Y0381775D01*
X0397718Y0381848D01*
X0402952Y0376614D01*
X0403476Y0376264D01*
X0404095Y0376141D01*
X0414951D01*
Y0373732D01*
X0407863Y0366643D01*
X0405846D01*
Y0370276D01*
X0405761Y0370705D01*
X0405517Y0371069D01*
X0405154Y0371312D01*
X0404813Y0371380D01*
X0394252Y0381940D01*
X0394583Y0382317D01*
X0394823Y0382133D01*
D02*
G37*
G36*
X0427943Y0372057D02*
Y0371300D01*
X0423819D01*
X0423201Y0371177D01*
X0422677Y0370827D01*
X0407205Y0355355D01*
X0405846D01*
Y0362884D01*
X0410836D01*
Y0365048D01*
X0417432Y0371644D01*
X0421269D01*
Y0372400D01*
X0427586D01*
X0427943Y0372057D01*
D02*
G37*
G36*
X0365345Y0306297D02*
Y0303928D01*
X0367382D01*
Y0297441D01*
X0367382Y0297441D01*
X0367468Y0297012D01*
X0367711Y0296648D01*
X0382540Y0281819D01*
Y0280974D01*
X0382040Y0280767D01*
X0360570Y0302236D01*
Y0303928D01*
X0362608D01*
Y0308327D01*
X0363108Y0308534D01*
X0365345Y0306297D01*
D02*
G37*
G36*
X0308504Y0368543D02*
X0309028Y0368193D01*
X0309355Y0368128D01*
X0309306Y0367628D01*
X0307274D01*
Y0364262D01*
X0309408D01*
Y0355324D01*
X0308849D01*
Y0353387D01*
X0300217D01*
X0299598Y0353264D01*
X0299074Y0352914D01*
X0298532Y0352372D01*
X0292313D01*
Y0346153D01*
X0291377Y0345217D01*
X0291027Y0344693D01*
X0290904Y0344075D01*
Y0273031D01*
X0291027Y0272413D01*
X0291377Y0271889D01*
X0298464Y0264803D01*
X0298988Y0264453D01*
X0299606Y0264330D01*
X0310209D01*
X0310282Y0264153D01*
X0310852Y0263411D01*
X0311594Y0262842D01*
X0312458Y0262484D01*
X0313386Y0262362D01*
X0314313Y0262484D01*
X0315177Y0262842D01*
X0315920Y0263411D01*
X0316389Y0264022D01*
X0316889Y0263859D01*
Y0259527D01*
X0316260Y0258899D01*
X0298701D01*
X0290198Y0267401D01*
Y0374331D01*
X0294598Y0378731D01*
X0298316D01*
X0308504Y0368543D01*
D02*
G37*
G36*
X0341674Y0324559D02*
X0337396Y0320281D01*
X0337153Y0319917D01*
X0337067Y0319488D01*
X0337067Y0319488D01*
Y0302559D01*
X0337067Y0302559D01*
X0337153Y0302130D01*
X0337396Y0301766D01*
X0363800Y0275362D01*
X0363593Y0274862D01*
X0355512D01*
X0355255Y0275033D01*
Y0282677D01*
X0355255Y0282677D01*
X0355170Y0283106D01*
X0354927Y0283470D01*
X0354927Y0283470D01*
X0336161Y0302236D01*
Y0320598D01*
X0340622Y0325060D01*
X0341467D01*
X0341674Y0324559D01*
D02*
G37*
G36*
X0405815Y0268428D02*
X0405889Y0268185D01*
X0405594Y0267744D01*
X0405471Y0267126D01*
Y0267008D01*
X0403268Y0264804D01*
X0374775D01*
X0374568Y0265304D01*
X0376580Y0267317D01*
X0376581Y0267317D01*
X0376824Y0267681D01*
X0376909Y0268110D01*
Y0268685D01*
X0377256D01*
Y0271850D01*
X0378256D01*
Y0268685D01*
X0379346D01*
Y0269085D01*
X0401756D01*
Y0268685D01*
X0402846D01*
Y0271850D01*
X0403847D01*
Y0268685D01*
X0404815D01*
Y0271850D01*
X0405815D01*
Y0268428D01*
D02*
G37*
G36*
X0344398Y0322808D02*
X0344430Y0322591D01*
X0340939Y0319100D01*
X0340696Y0318736D01*
X0340611Y0318307D01*
X0340611Y0318307D01*
Y0302953D01*
X0340611Y0302953D01*
X0340696Y0302523D01*
X0340939Y0302160D01*
X0365124Y0277975D01*
X0364960Y0277432D01*
X0364912Y0277422D01*
X0339311Y0303024D01*
Y0319024D01*
X0343378Y0323091D01*
X0344252D01*
X0344398Y0322808D01*
D02*
G37*
G36*
X0335586Y0329331D02*
X0335769Y0328890D01*
X0329916Y0323037D01*
X0329673Y0322673D01*
X0329587Y0322244D01*
X0329587Y0322244D01*
Y0301772D01*
X0329587Y0301772D01*
X0329673Y0301343D01*
X0329916Y0300979D01*
X0351044Y0279850D01*
Y0279005D01*
X0350544Y0278798D01*
X0328287Y0301055D01*
Y0322567D01*
X0335100Y0329380D01*
X0335586Y0329331D01*
D02*
G37*
G36*
X0341329Y0340590D02*
X0325886D01*
X0325886Y0340590D01*
X0325457Y0340505D01*
X0325093Y0340262D01*
X0325093Y0340262D01*
X0314960Y0330128D01*
X0314787Y0330126D01*
X0314424Y0330300D01*
X0314427Y0330361D01*
X0327532Y0343465D01*
X0341329D01*
Y0340590D01*
D02*
G37*
G36*
X0351172Y0377943D02*
X0356101D01*
X0357540Y0376504D01*
Y0371722D01*
X0357040Y0371515D01*
X0351974Y0376581D01*
X0351610Y0376824D01*
X0351181Y0376909D01*
X0351181Y0376909D01*
X0338546D01*
X0338461Y0377050D01*
X0338742Y0377550D01*
X0345285D01*
Y0378603D01*
X0351172D01*
Y0377943D01*
D02*
G37*
G36*
X0322560Y0375263D02*
Y0364044D01*
X0322358Y0363893D01*
X0321860Y0363887D01*
Y0363887D01*
X0314879D01*
X0314576Y0364262D01*
X0314576Y0364380D01*
Y0367510D01*
X0314576Y0367628D01*
X0314879Y0368002D01*
X0321860D01*
Y0371368D01*
X0315398D01*
X0315207Y0371830D01*
X0316890Y0373513D01*
X0317240Y0374037D01*
X0317363Y0374656D01*
Y0376565D01*
X0321258D01*
X0322560Y0375263D01*
D02*
G37*
G36*
X0314558Y0363887D02*
X0314558Y0363770D01*
Y0360522D01*
X0317776D01*
Y0355324D01*
X0316723D01*
Y0348219D01*
X0321072D01*
Y0352360D01*
X0322118Y0353406D01*
X0324394D01*
Y0351878D01*
X0328346D01*
X0332299D01*
Y0353406D01*
X0337331D01*
X0339266Y0351471D01*
X0339266Y0351471D01*
X0339630Y0351228D01*
X0340059Y0351142D01*
X0340059Y0351142D01*
X0341329D01*
Y0348761D01*
X0332782D01*
X0332299Y0348803D01*
Y0350878D01*
X0328346D01*
X0324394D01*
Y0348803D01*
X0324394Y0348803D01*
X0324394D01*
X0324246Y0348350D01*
X0324153Y0348288D01*
X0308307Y0332441D01*
X0307957Y0331917D01*
X0307905Y0331656D01*
X0307398Y0331673D01*
X0307394Y0331701D01*
X0306996Y0332663D01*
X0306362Y0333488D01*
X0305537Y0334122D01*
X0304575Y0334520D01*
X0304043Y0334590D01*
Y0330669D01*
X0303543D01*
Y0330169D01*
X0299622D01*
X0299692Y0329637D01*
X0300091Y0328676D01*
X0300724Y0327850D01*
X0301242Y0327453D01*
X0301118Y0326918D01*
X0300957Y0326886D01*
X0300433Y0326536D01*
X0296496Y0322599D01*
X0296146Y0322075D01*
X0296023Y0321457D01*
Y0316575D01*
X0296146Y0315957D01*
X0296496Y0315433D01*
X0300155Y0311773D01*
X0300082Y0311597D01*
X0299960Y0310669D01*
X0300082Y0309742D01*
X0300155Y0309565D01*
X0295315Y0304725D01*
X0294964Y0304201D01*
X0294841Y0303583D01*
Y0276969D01*
X0294964Y0276350D01*
X0295315Y0275826D01*
X0298464Y0272677D01*
X0298988Y0272327D01*
X0299606Y0272204D01*
X0316891D01*
X0317158Y0271704D01*
X0317012Y0271484D01*
X0316889Y0270866D01*
Y0268030D01*
X0316389Y0267868D01*
X0315920Y0268479D01*
X0315177Y0269048D01*
X0314313Y0269406D01*
X0313386Y0269528D01*
X0312458Y0269406D01*
X0311594Y0269048D01*
X0310852Y0268479D01*
X0310282Y0267737D01*
X0310209Y0267560D01*
X0300275D01*
X0294135Y0273701D01*
Y0342865D01*
X0299813D01*
Y0349083D01*
X0300886Y0350156D01*
X0308849D01*
Y0348219D01*
X0313198D01*
Y0355324D01*
X0312639D01*
Y0364262D01*
X0314255D01*
X0314558Y0363887D01*
D02*
G37*
G36*
X0364558Y0346472D02*
X0364158D01*
Y0345087D01*
X0367913D01*
X0371669D01*
Y0346024D01*
X0374705D01*
X0374705Y0346024D01*
X0375134Y0346110D01*
X0375345Y0346250D01*
X0376781D01*
X0380276Y0342756D01*
X0380800Y0342405D01*
X0381418Y0342282D01*
X0386733D01*
X0387789Y0341226D01*
X0387598Y0340764D01*
X0384827D01*
Y0337311D01*
X0387402D01*
Y0336811D01*
X0387901D01*
Y0332858D01*
X0389723D01*
Y0330394D01*
X0386267Y0326937D01*
X0385793Y0327170D01*
X0385870Y0327756D01*
X0385735Y0328786D01*
X0385337Y0329746D01*
X0384704Y0330571D01*
X0383880Y0331203D01*
X0383011Y0331563D01*
Y0335630D01*
X0383011Y0335630D01*
X0382926Y0336059D01*
X0382683Y0336423D01*
X0376285Y0342821D01*
X0375921Y0343064D01*
X0375492Y0343149D01*
X0375492Y0343149D01*
X0371669D01*
Y0344087D01*
X0367913D01*
X0364158D01*
Y0342701D01*
X0364558D01*
Y0338031D01*
X0364272D01*
X0363843Y0337946D01*
X0363479Y0337702D01*
X0363479Y0337702D01*
X0362199Y0336423D01*
X0361956Y0336059D01*
X0361871Y0335630D01*
X0361871Y0335630D01*
Y0329402D01*
X0359772Y0327303D01*
X0352980D01*
X0352835Y0327586D01*
X0352803Y0327803D01*
X0359480Y0334480D01*
X0359480Y0334480D01*
X0359723Y0334843D01*
X0359808Y0335273D01*
X0359808Y0335273D01*
Y0347789D01*
X0360602Y0348583D01*
X0364558D01*
Y0346472D01*
D02*
G37*
G36*
X0371663Y0303928D02*
X0371713Y0303448D01*
Y0297835D01*
X0371713Y0297835D01*
X0371798Y0297406D01*
X0372042Y0297042D01*
X0384508Y0284575D01*
Y0283730D01*
X0384008Y0283523D01*
X0369625Y0297905D01*
Y0303928D01*
X0371663D01*
D02*
G37*
G36*
X0372869Y0283222D02*
X0372795Y0283064D01*
X0372574Y0282810D01*
X0372047Y0282914D01*
X0368386D01*
X0347834Y0303466D01*
X0348026Y0303928D01*
X0352164D01*
X0372869Y0283222D01*
D02*
G37*
G36*
X0339280Y0327139D02*
X0339312Y0326922D01*
X0334246Y0321856D01*
X0334003Y0321492D01*
X0333918Y0321063D01*
X0333918Y0321063D01*
Y0301772D01*
X0333918Y0301772D01*
X0334003Y0301343D01*
X0334246Y0300979D01*
X0353002Y0282223D01*
X0352954Y0281737D01*
X0352512Y0281554D01*
X0331830Y0302236D01*
Y0321779D01*
X0337472Y0327422D01*
X0339134D01*
X0339280Y0327139D01*
D02*
G37*
G36*
X0372894Y0331764D02*
X0364102Y0322972D01*
X0363622D01*
X0363476Y0323255D01*
X0363444Y0323472D01*
X0368706Y0328734D01*
X0368706Y0328734D01*
X0368950Y0329098D01*
X0369035Y0329528D01*
X0369035Y0329528D01*
Y0332865D01*
X0371269D01*
Y0335424D01*
Y0338347D01*
X0372894D01*
Y0331764D01*
D02*
G37*
G36*
X0380768Y0335165D02*
Y0331563D01*
X0379900Y0331203D01*
X0379075Y0330571D01*
X0378443Y0329746D01*
X0378045Y0328786D01*
X0377909Y0327756D01*
X0378045Y0326726D01*
X0378443Y0325766D01*
X0379075Y0324941D01*
X0379900Y0324309D01*
X0380859Y0323911D01*
X0381890Y0323775D01*
X0382475Y0323852D01*
X0382709Y0323379D01*
X0382590Y0323260D01*
X0382590Y0323260D01*
X0379646Y0320316D01*
X0365055D01*
X0364996Y0320814D01*
X0365360Y0321057D01*
X0374809Y0330506D01*
X0375052Y0330870D01*
X0375137Y0331299D01*
X0375137Y0331299D01*
Y0338976D01*
X0375137Y0338976D01*
X0375052Y0339406D01*
X0374809Y0339769D01*
X0374809Y0339770D01*
X0374317Y0340262D01*
X0374100Y0340406D01*
X0374252Y0340906D01*
X0375028D01*
X0380768Y0335165D01*
D02*
G37*
G36*
X0376437Y0297441D02*
X0376437Y0297441D01*
X0376523Y0297012D01*
X0376766Y0296648D01*
X0386466Y0286948D01*
X0386418Y0286461D01*
X0385977Y0286279D01*
X0373956Y0298299D01*
Y0303792D01*
X0374400Y0303928D01*
Y0303928D01*
X0376437D01*
Y0297441D01*
D02*
G37*
%LPC*%
G36*
X0303043Y0334590D02*
X0302511Y0334520D01*
X0301550Y0334122D01*
X0300724Y0333488D01*
X0300091Y0332663D01*
X0299692Y0331701D01*
X0299622Y0331169D01*
X0303043D01*
Y0334590D01*
D02*
G37*
G36*
X0386901Y0336311D02*
X0384827D01*
Y0332858D01*
X0386901D01*
Y0336311D01*
D02*
G37*
%LPD*%
D10*
X0340158Y0365158D02*
D03*
X0349606D02*
D03*
D11*
X0344685Y0357382D02*
D03*
Y0354823D02*
D03*
Y0352264D02*
D03*
Y0349705D02*
D03*
Y0347146D02*
D03*
Y0344587D02*
D03*
Y0342028D02*
D03*
Y0339469D02*
D03*
Y0336910D02*
D03*
Y0334350D02*
D03*
X0367913Y0357382D02*
D03*
Y0354823D02*
D03*
Y0352264D02*
D03*
Y0349705D02*
D03*
Y0347146D02*
D03*
Y0344587D02*
D03*
Y0342028D02*
D03*
Y0339469D02*
D03*
Y0336910D02*
D03*
Y0334350D02*
D03*
D12*
X0354724Y0387992D02*
D03*
Y0380118D02*
D03*
X0341732Y0379724D02*
D03*
Y0387598D02*
D03*
X0328346Y0351378D02*
D03*
Y0359252D02*
D03*
D13*
X0311024Y0351772D02*
D03*
X0318898D02*
D03*
X0319291Y0380118D02*
D03*
X0311417D02*
D03*
X0387402Y0336811D02*
D03*
X0395276D02*
D03*
D14*
X0310925Y0365945D02*
D03*
X0318209Y0369685D02*
D03*
Y0362205D02*
D03*
D15*
X0296063Y0383484D02*
D03*
Y0347618D02*
D03*
D16*
X0308445Y0404921D02*
D03*
X0344311D02*
D03*
X0408484Y0405315D02*
D03*
X0372618D02*
D03*
D17*
X0395276Y0352165D02*
D03*
X0455905Y0302953D02*
D03*
X0439764Y0308465D02*
D03*
X0303543Y0330669D02*
D03*
Y0320669D02*
D03*
Y0310669D02*
D03*
Y0300669D02*
D03*
Y0290669D02*
D03*
X0447638Y0384842D02*
D03*
Y0376969D02*
D03*
Y0369094D02*
D03*
X0444764Y0296417D02*
D03*
X0434764D02*
D03*
X0313386Y0265945D02*
D03*
X0376614Y0385236D02*
D03*
X0386614D02*
D03*
X0396614D02*
D03*
D18*
X0408268Y0364764D02*
D03*
X0398819Y0361024D02*
D03*
Y0368504D02*
D03*
D19*
X0390551Y0369291D02*
D03*
Y0361811D02*
D03*
X0418110Y0381496D02*
D03*
Y0374016D02*
D03*
X0431102Y0369685D02*
D03*
Y0362205D02*
D03*
X0422835Y0313779D02*
D03*
Y0306299D02*
D03*
X0413779Y0313779D02*
D03*
Y0306299D02*
D03*
X0404724Y0313779D02*
D03*
Y0306299D02*
D03*
X0395669Y0313779D02*
D03*
Y0306299D02*
D03*
X0386614Y0313779D02*
D03*
Y0306299D02*
D03*
X0377559Y0313779D02*
D03*
Y0306299D02*
D03*
X0368504Y0313779D02*
D03*
Y0306299D02*
D03*
X0359449Y0306299D02*
D03*
Y0313779D02*
D03*
X0350394Y0306299D02*
D03*
Y0313779D02*
D03*
X0419685Y0285039D02*
D03*
Y0277559D02*
D03*
X0333858Y0276969D02*
D03*
Y0284449D02*
D03*
X0324803Y0277165D02*
D03*
Y0284646D02*
D03*
D20*
X0384449Y0349410D02*
D03*
X0376969D02*
D03*
D21*
X0464173Y0348524D02*
D03*
Y0318996D02*
D03*
D22*
X0453839Y0321161D02*
D03*
Y0346358D02*
D03*
D23*
X0464173Y0329724D02*
D03*
Y0337795D02*
D03*
D24*
X0452953Y0328642D02*
D03*
Y0331201D02*
D03*
Y0333760D02*
D03*
Y0336319D02*
D03*
Y0338878D02*
D03*
D25*
X0421063Y0352559D02*
D03*
X0415158D02*
D03*
X0429724Y0334449D02*
D03*
X0435630D02*
D03*
D26*
X0414370Y0344390D02*
D03*
X0421850D02*
D03*
Y0333169D02*
D03*
X0418110D02*
D03*
X0414370D02*
D03*
D27*
X0435827Y0341142D02*
D03*
X0442126D02*
D03*
D28*
X0430512Y0264567D02*
D03*
X0449016D02*
D03*
D29*
X0443701Y0286417D02*
D03*
X0435827D02*
D03*
D30*
X0413878Y0264764D02*
D03*
X0343602D02*
D03*
D31*
X0407283Y0271850D02*
D03*
X0405315D02*
D03*
X0403346D02*
D03*
X0401378D02*
D03*
X0399410D02*
D03*
X0397441D02*
D03*
X0395472D02*
D03*
X0393504D02*
D03*
X0391535D02*
D03*
X0389567D02*
D03*
X0387598D02*
D03*
X0385630D02*
D03*
X0383661D02*
D03*
X0381693D02*
D03*
X0379724D02*
D03*
X0377756D02*
D03*
X0375787D02*
D03*
X0373819D02*
D03*
X0371850D02*
D03*
X0369882D02*
D03*
X0367913D02*
D03*
X0365945D02*
D03*
X0363976D02*
D03*
X0362008D02*
D03*
X0360039D02*
D03*
X0358071D02*
D03*
X0356102D02*
D03*
X0354134D02*
D03*
X0352165D02*
D03*
X0350197D02*
D03*
D32*
X0371654Y0265158D02*
X0373622Y0263189D01*
X0367913Y0268898D02*
X0371654Y0265158D01*
X0325295Y0347146D02*
X0344685D01*
X0309449Y0331299D02*
X0325295Y0347146D01*
X0309449Y0326969D02*
Y0331299D01*
X0351969Y0398228D02*
X0354331Y0400591D01*
X0337008Y0398228D02*
X0351969D01*
X0331496Y0392717D02*
X0337008Y0398228D01*
X0331496Y0375000D02*
Y0392717D01*
Y0375000D02*
X0334252Y0372244D01*
X0347638D01*
X0391339Y0329724D02*
Y0339961D01*
X0387402Y0343898D02*
X0391339Y0339961D01*
X0381418Y0343898D02*
X0387402D01*
X0390551Y0353937D02*
Y0361811D01*
Y0353937D02*
X0392323Y0352165D01*
X0383732Y0322118D02*
X0391339Y0329724D01*
X0376969Y0348347D02*
X0381418Y0343898D01*
X0376969Y0348347D02*
Y0349410D01*
X0390551Y0361024D02*
X0398819D01*
X0388967Y0359439D02*
X0390551Y0361024D01*
X0380896Y0359439D02*
X0388967D01*
X0376969Y0355512D02*
X0380896Y0359439D01*
X0376969Y0349410D02*
Y0355512D01*
X0403150Y0352953D02*
X0403937Y0353740D01*
X0407874D01*
X0354331Y0400591D02*
Y0410039D01*
X0353150Y0411221D02*
X0354331Y0410039D01*
X0331496Y0411221D02*
X0353150D01*
X0354724Y0387992D02*
X0356693D01*
X0307874Y0325394D02*
X0309449Y0326969D01*
X0301575Y0325394D02*
X0307874D01*
X0309646Y0369685D02*
X0310778D01*
X0296457Y0382874D02*
X0309646Y0369685D01*
X0288583Y0375000D02*
X0296457Y0382874D01*
X0288583Y0266732D02*
Y0375000D01*
X0292520Y0344075D02*
X0296063Y0347618D01*
X0292520Y0273031D02*
Y0344075D01*
Y0273031D02*
X0299606Y0265945D01*
X0318504Y0270866D02*
X0324803Y0277165D01*
X0299606Y0273819D02*
X0321457D01*
X0296457Y0276969D02*
X0299606Y0273819D01*
X0318504Y0258858D02*
Y0270866D01*
X0316929Y0257283D02*
X0318504Y0258858D01*
X0335433Y0254134D02*
X0353150D01*
X0333071Y0256496D02*
X0335433Y0254134D01*
X0333071Y0256496D02*
Y0276181D01*
X0353150Y0254134D02*
X0356102Y0257087D01*
X0333071Y0276181D02*
X0333858Y0276969D01*
X0403937Y0263189D02*
X0407087Y0266339D01*
X0378740Y0263189D02*
X0403937D01*
X0373622D02*
X0378740D01*
X0412205Y0275000D02*
X0414764Y0277559D01*
X0419685D01*
X0409055Y0275000D02*
X0412205D01*
X0407087Y0266339D02*
Y0267126D01*
X0344488Y0304528D02*
X0367717Y0281299D01*
X0344488Y0304528D02*
Y0316339D01*
X0346850Y0318701D01*
X0380315D01*
X0383732Y0322118D01*
X0383732D01*
X0367717Y0281299D02*
X0372047D01*
X0375787Y0277559D01*
X0356102Y0257087D02*
Y0266535D01*
X0358071Y0268504D02*
Y0271850D01*
X0356102Y0266535D02*
X0358071Y0268504D01*
X0367913Y0268898D02*
Y0271850D01*
X0423622Y0377756D02*
X0428740Y0382874D01*
X0404095Y0377756D02*
X0423622D01*
X0396614Y0385236D02*
X0404095Y0377756D01*
X0422933Y0345472D02*
X0442126D01*
X0457874Y0360827D02*
Y0396260D01*
X0442126Y0345079D02*
X0457874Y0360827D01*
X0442126Y0341142D02*
Y0345079D01*
X0440551Y0400591D02*
X0453543D01*
X0428740Y0382874D02*
Y0388779D01*
X0440551Y0400591D01*
X0440551Y0384842D02*
X0447638D01*
X0429724Y0374016D02*
X0440551Y0384842D01*
X0418110Y0374016D02*
X0429724D01*
X0453543Y0400591D02*
X0457874Y0396260D01*
X0297638Y0321457D02*
X0301575Y0325394D01*
X0324803Y0277165D02*
X0325000Y0276969D01*
X0333858D01*
X0298031Y0257283D02*
X0316929D01*
X0297638Y0316575D02*
X0303543Y0310669D01*
X0297638Y0316575D02*
Y0321457D01*
X0310778Y0369685D02*
X0318209D01*
X0315748Y0374656D02*
Y0395472D01*
X0310778Y0369685D02*
X0315748Y0374656D01*
X0434764Y0308858D02*
Y0321339D01*
X0428937Y0327165D02*
X0434764Y0321339D01*
X0407677Y0327165D02*
X0428937D01*
X0315748Y0395472D02*
X0331496Y0411221D01*
X0445965Y0328642D02*
X0452953D01*
X0442126Y0332480D02*
X0445965Y0328642D01*
X0442126Y0332480D02*
Y0341142D01*
X0421850Y0344390D02*
X0422933Y0345472D01*
X0407874Y0353740D02*
X0423819Y0369685D01*
X0431102D01*
X0421850Y0327756D02*
Y0333169D01*
X0431102Y0369685D02*
X0440354D01*
X0447638Y0376969D01*
X0417520Y0374016D02*
X0418110D01*
X0408268Y0364764D02*
X0417520Y0374016D01*
X0299606Y0265945D02*
X0313386D01*
X0296063Y0347618D02*
X0300217Y0351772D01*
X0311024D01*
Y0365846D01*
X0310925Y0365945D02*
X0311024Y0365846D01*
X0403150Y0331693D02*
X0407677Y0327165D01*
X0403150Y0331693D02*
Y0352953D01*
X0358071Y0271850D02*
X0360039D01*
X0362008D01*
X0363976D01*
X0365945D01*
X0367913D01*
X0349606Y0367126D02*
Y0370276D01*
X0296457Y0303583D02*
X0303543Y0310669D01*
X0296457Y0276969D02*
Y0303583D01*
X0392323Y0352165D02*
X0395276D01*
X0435157Y0308465D02*
X0439764D01*
X0434764Y0308858D02*
X0435157Y0308465D01*
X0434764Y0296417D02*
Y0308858D01*
X0347638Y0372244D02*
X0349606Y0370276D01*
X0288583Y0266732D02*
X0298031Y0257283D01*
D33*
X0375787Y0268110D02*
Y0271850D01*
X0372835Y0265158D02*
X0375787Y0268110D01*
X0371654Y0265158D02*
X0372835D01*
X0327067Y0344587D02*
X0344685D01*
X0312992Y0330512D02*
X0327067Y0344587D01*
X0312992Y0323031D02*
Y0330512D01*
X0340650Y0354823D02*
X0344685D01*
X0327165Y0368307D02*
X0340650Y0354823D01*
X0340059Y0352264D02*
X0344685D01*
X0337795Y0354528D02*
X0340059Y0352264D01*
X0321654Y0354528D02*
X0337795D01*
X0342028Y0357382D02*
X0344685D01*
X0339370Y0360039D02*
X0342028Y0357382D01*
X0318898Y0351772D02*
X0321654Y0354528D01*
X0327165Y0396260D02*
X0335827Y0404921D01*
X0327165Y0368307D02*
Y0396260D01*
X0319291Y0380118D02*
X0323682Y0375728D01*
Y0363326D02*
Y0375728D01*
X0322560Y0362205D02*
X0323682Y0363326D01*
X0318209Y0362205D02*
X0322560D01*
X0327165Y0323031D02*
X0334646Y0330512D01*
X0327165Y0300591D02*
Y0323031D01*
Y0300591D02*
X0350197Y0277559D01*
X0334646Y0330512D02*
X0351181D01*
X0357087Y0336417D01*
X0351957Y0328543D02*
X0358687Y0335273D01*
X0337008Y0328543D02*
X0351957D01*
X0330709Y0322244D02*
X0337008Y0328543D01*
X0360236Y0326181D02*
X0362992Y0328937D01*
X0340158Y0326181D02*
X0360236D01*
X0335039Y0321063D02*
X0340158Y0326181D01*
X0362598Y0324213D02*
X0367913Y0329528D01*
X0342913Y0324213D02*
X0362598D01*
X0338189Y0319488D02*
X0342913Y0324213D01*
X0364567Y0321850D02*
X0374016Y0331299D01*
X0345276Y0321850D02*
X0364567D01*
X0341732Y0318307D02*
X0345276Y0321850D01*
X0392561Y0382045D02*
Y0390313D01*
X0389764Y0393110D02*
X0392561Y0390313D01*
X0361811Y0393110D02*
X0389764D01*
X0405315Y0276772D02*
X0406693Y0278150D01*
X0403937Y0276575D02*
X0405118D01*
X0405315Y0276772D01*
Y0271850D02*
Y0276772D01*
X0406693Y0278150D02*
X0409842D01*
X0403937Y0353740D02*
X0404724Y0354528D01*
X0357480Y0393504D02*
X0369291Y0405315D01*
X0338976Y0393504D02*
X0357480D01*
X0336614Y0391142D02*
X0338976Y0393504D01*
X0356693Y0387992D02*
X0361811Y0393110D01*
X0369291Y0405315D02*
X0372618D01*
X0310630Y0320669D02*
X0312992Y0323031D01*
X0303543Y0320669D02*
X0310630D01*
X0315354Y0328937D02*
X0325886Y0339469D01*
X0315354Y0304921D02*
Y0328937D01*
X0311102Y0300669D02*
X0315354Y0304921D01*
X0325886Y0339469D02*
X0344685D01*
X0328839Y0336910D02*
X0344685D01*
X0318898Y0326969D02*
X0328839Y0336910D01*
X0318898Y0296260D02*
Y0326969D01*
X0313307Y0290669D02*
X0318898Y0296260D01*
X0322441Y0324606D02*
X0332185Y0334350D01*
X0322441Y0290354D02*
Y0324606D01*
X0312756Y0280669D02*
X0322441Y0290354D01*
X0332185Y0334350D02*
X0344685D01*
X0407283Y0273228D02*
X0409055Y0275000D01*
X0407283Y0271850D02*
Y0273228D01*
X0407087Y0271654D02*
X0407283Y0271850D01*
X0407087Y0267126D02*
Y0271654D01*
X0341732Y0302953D02*
Y0318307D01*
Y0302953D02*
X0366535Y0278150D01*
X0371654D01*
X0364789Y0275959D02*
X0370694D01*
X0338189Y0302559D02*
X0364789Y0275959D01*
X0338189Y0302559D02*
Y0319488D01*
X0354134Y0271850D02*
Y0282677D01*
X0335039Y0301772D02*
X0354134Y0282677D01*
X0335039Y0301772D02*
Y0321063D01*
X0352165Y0271850D02*
Y0280315D01*
X0330709Y0301772D02*
X0352165Y0280315D01*
X0350197Y0271850D02*
Y0277559D01*
X0375787Y0271850D02*
Y0277559D01*
X0330709Y0301772D02*
Y0322244D01*
X0367913Y0347146D02*
X0374705D01*
X0376969Y0349410D01*
X0360138Y0349705D02*
X0367913D01*
X0358687Y0348253D02*
X0360138Y0349705D01*
X0358687Y0335273D02*
Y0348253D01*
X0362992Y0328937D02*
Y0335630D01*
X0364272Y0336910D01*
X0357087Y0336417D02*
Y0349409D01*
X0364272Y0336910D02*
X0367913D01*
X0357087Y0349409D02*
X0359941Y0352264D01*
X0372835Y0355315D02*
Y0359646D01*
X0372342Y0354823D02*
X0372835Y0355315D01*
X0367913Y0354823D02*
X0372342D01*
X0404331Y0370276D02*
X0404724D01*
X0392561Y0382045D02*
X0404331Y0370276D01*
X0367913Y0329528D02*
Y0334350D01*
X0422835Y0295079D02*
Y0306299D01*
X0408661Y0280906D02*
X0422835Y0295079D01*
X0403150Y0280906D02*
X0408661D01*
X0399410Y0277165D02*
X0403150Y0280906D01*
X0399410Y0271850D02*
Y0277165D01*
X0397441Y0271850D02*
Y0279528D01*
X0413779Y0295866D01*
Y0306299D01*
X0404724Y0291929D02*
Y0306299D01*
X0395472Y0282677D02*
X0404724Y0291929D01*
X0395472Y0271850D02*
Y0282677D01*
X0393504Y0271850D02*
Y0287795D01*
X0395669Y0289961D01*
Y0306299D01*
X0377559Y0313779D02*
X0381890Y0309449D01*
X0368504Y0313779D02*
X0372835Y0309449D01*
X0366929Y0306299D02*
X0368504D01*
X0386614Y0296260D02*
Y0306299D01*
Y0296260D02*
X0391535Y0291339D01*
Y0271850D02*
Y0291339D01*
X0381890Y0297441D02*
Y0309449D01*
Y0297441D02*
X0389567Y0289764D01*
Y0271850D02*
Y0289764D01*
X0377559Y0297441D02*
Y0306299D01*
X0372835Y0297835D02*
Y0309449D01*
X0350394Y0306299D02*
X0351378D01*
X0379724Y0271850D02*
Y0277953D01*
X0359941Y0352264D02*
X0367913D01*
Y0339469D02*
X0373524D01*
X0374016Y0338976D01*
Y0331299D02*
Y0338976D01*
X0303543Y0290669D02*
X0313307D01*
X0303543Y0300669D02*
X0311102D01*
X0344685Y0339469D02*
Y0340042D01*
X0435827Y0334646D02*
Y0341142D01*
X0435630Y0334449D02*
X0435827Y0334646D01*
X0429134Y0334449D02*
X0429724D01*
X0424803Y0338779D02*
X0429134Y0334449D01*
X0417323Y0338779D02*
X0424803D01*
X0414370Y0335827D02*
X0417323Y0338779D01*
X0414370Y0333169D02*
Y0335827D01*
Y0344390D02*
Y0351772D01*
X0415158Y0352559D01*
X0376614Y0384291D02*
Y0385236D01*
X0385039D02*
X0386614D01*
X0318898Y0351772D02*
Y0361516D01*
X0318209Y0362205D02*
X0318898Y0361516D01*
X0348524Y0342028D02*
X0350394Y0343898D01*
X0344685Y0342028D02*
X0348524D01*
X0344685Y0349705D02*
X0347933D01*
X0350394Y0343898D02*
Y0349409D01*
X0377559Y0297441D02*
X0387598Y0287402D01*
X0372835Y0297835D02*
X0385630Y0285039D01*
X0387598Y0271850D02*
Y0287402D01*
X0385630Y0271850D02*
Y0285039D01*
X0381693Y0271850D02*
Y0279528D01*
X0383661Y0271850D02*
Y0282283D01*
X0359449Y0301772D02*
X0381693Y0279528D01*
X0368504Y0297441D02*
X0383661Y0282283D01*
X0368504Y0297441D02*
Y0306299D01*
X0359449Y0313779D02*
X0366929Y0306299D01*
X0351378Y0306299D02*
X0379724Y0277953D01*
X0359449Y0301772D02*
Y0306299D01*
X0373819Y0271850D02*
Y0275984D01*
X0371850Y0271850D02*
Y0274803D01*
X0370694Y0275959D02*
X0371850Y0274803D01*
X0371654Y0278150D02*
X0373819Y0275984D01*
X0404724Y0354528D02*
Y0370276D01*
X0375492Y0342028D02*
X0381890Y0335630D01*
X0367913Y0342028D02*
X0375492D01*
X0341732Y0379724D02*
X0355906D01*
X0366535Y0358760D02*
X0367913Y0357382D01*
X0365669Y0379252D02*
X0371575D01*
X0362992Y0376575D02*
X0365669Y0379252D01*
X0362992Y0364370D02*
Y0376575D01*
Y0364370D02*
X0366535Y0360827D01*
X0371575Y0379252D02*
X0376614Y0384291D01*
X0366535Y0358760D02*
Y0360827D01*
X0365354Y0367126D02*
X0372835Y0359646D01*
X0365354Y0367126D02*
Y0375000D01*
X0367323Y0376969D01*
X0374409D01*
X0378150Y0380709D01*
X0380512D01*
X0385039Y0385236D01*
X0381890Y0327756D02*
Y0335630D01*
X0409842Y0278150D02*
X0416732Y0285039D01*
X0419685D01*
X0403346Y0271850D02*
Y0275984D01*
X0403937Y0276575D01*
X0336614Y0376969D02*
Y0391142D01*
Y0376969D02*
X0337795Y0375787D01*
X0351181D01*
X0303543Y0280669D02*
X0312756D01*
X0350394Y0349409D02*
X0358661Y0357677D01*
Y0376969D01*
X0355906Y0379724D02*
X0358661Y0376969D01*
X0347933Y0349705D02*
X0356693Y0358465D01*
Y0370276D01*
X0351181Y0375787D02*
X0356693Y0370276D01*
X0339370Y0360039D02*
Y0366339D01*
X0340158Y0367126D01*
X0335827Y0404921D02*
X0344311D01*
D34*
X0443701Y0294685D02*
D03*
X0435827Y0294685D02*
D03*
D35*
X0362992Y0271654D02*
D03*
D36*
X0303543Y0280669D02*
D03*
D37*
X0447638Y0393110D02*
D03*
Y0360827D02*
D03*
D38*
X0323386Y0265945D02*
D03*
X0366614Y0385236D02*
D03*
D39*
X0293307Y0249016D02*
D03*
X0464173D02*
D03*
Y0408071D02*
D03*
X0293307D02*
D03*
D40*
X0381890Y0367126D02*
D03*
Y0327756D02*
D03*
M02*
