G04 Layer_Color=16711935*
%FSAX25Y25*%
%MOIN*%
G70*
G01*
G75*
%ADD39C,0.01968*%
%ADD42C,0.00787*%
%ADD75C,0.01000*%
%ADD76C,0.00394*%
%ADD78C,0.02756*%
D39*
X0359053Y0335213D02*
G03*
X0359053Y0335213I-0000687J0000000D01*
G01*
X0421197Y0320681D02*
G03*
X0421197Y0320681I-0000500J0000000D01*
G01*
D42*
X0417520Y0241535D02*
Y0268701D01*
Y0241535D02*
X0449016D01*
Y0268701D01*
X0417520D02*
X0449016D01*
X0476181Y0312402D02*
Y0342323D01*
X0454724Y0312402D02*
Y0342323D01*
Y0312402D02*
X0476181D01*
X0454724Y0342323D02*
X0476181D01*
X0381496Y0290746D02*
Y0286024D01*
X0379135D01*
X0378347Y0286811D01*
Y0287598D01*
X0379135Y0288385D01*
X0381496D01*
X0379135D01*
X0378347Y0289172D01*
Y0289959D01*
X0379135Y0290746D01*
X0381496D01*
X0376773D02*
Y0286811D01*
X0375986Y0286024D01*
X0374412D01*
X0373625Y0286811D01*
Y0290746D01*
X0372050D02*
X0368902D01*
Y0289959D01*
X0372050Y0286811D01*
Y0286024D01*
X0368902D01*
X0367327D02*
X0365753D01*
X0366540D01*
Y0290746D01*
X0367327Y0289959D01*
X0352099Y0389305D02*
X0351574Y0388780D01*
X0350525D01*
X0350000Y0389305D01*
Y0391404D01*
X0350525Y0391929D01*
X0351574D01*
X0352099Y0391404D01*
X0354723Y0388780D02*
X0353673D01*
X0353149Y0389305D01*
Y0391404D01*
X0353673Y0391929D01*
X0354723D01*
X0355248Y0391404D01*
Y0389305D01*
X0354723Y0388780D01*
X0356297Y0391929D02*
Y0388780D01*
X0358396Y0391929D01*
Y0388780D01*
X0359446Y0389305D02*
X0359970Y0388780D01*
X0361020D01*
X0361545Y0389305D01*
Y0389830D01*
X0361020Y0390355D01*
X0360495D01*
X0361020D01*
X0361545Y0390880D01*
Y0391404D01*
X0361020Y0391929D01*
X0359970D01*
X0359446Y0391404D01*
X0366929Y0325392D02*
Y0321456D01*
X0367716Y0320669D01*
X0369291D01*
X0370078Y0321456D01*
Y0325392D01*
X0371652Y0324605D02*
X0372439Y0325392D01*
X0374013D01*
X0374801Y0324605D01*
Y0323818D01*
X0374013Y0323031D01*
X0373226D01*
X0374013D01*
X0374801Y0322244D01*
Y0321456D01*
X0374013Y0320669D01*
X0372439D01*
X0371652Y0321456D01*
X0422474Y0321681D02*
X0426410D01*
X0427197Y0322468D01*
Y0324043D01*
X0426410Y0324830D01*
X0422474D01*
X0427197Y0326404D02*
Y0327978D01*
Y0327191D01*
X0422474D01*
X0423261Y0326404D01*
D75*
X0443386Y0258189D02*
G03*
X0443386Y0258189I-0000394J0000000D01*
G01*
X0399606Y0334842D02*
Y0349016D01*
X0391732Y0334842D02*
X0399606D01*
X0391732D02*
Y0349016D01*
X0399606D01*
X0400000Y0306496D02*
Y0320669D01*
X0407874D01*
Y0306496D02*
Y0320669D01*
X0400000Y0306496D02*
X0407874D01*
X0422835Y0348228D02*
Y0362402D01*
X0414961Y0348228D02*
X0422835D01*
X0414961D02*
Y0362402D01*
X0422835D01*
X0433465Y0352953D02*
X0441339D01*
Y0367126D01*
X0433465D02*
X0441339D01*
X0433465Y0352953D02*
Y0367126D01*
X0436614Y0326575D02*
Y0332874D01*
X0435433Y0326575D02*
Y0332874D01*
Y0326575D02*
X0448425D01*
Y0332874D01*
X0435433D02*
X0448425D01*
X0327953Y0285236D02*
Y0299409D01*
X0335827D01*
Y0285236D02*
Y0299409D01*
X0327953Y0285236D02*
X0335827D01*
X0426046Y0255589D02*
X0425046Y0256589D01*
X0423047D01*
X0422047Y0255589D01*
Y0251590D01*
X0423047Y0250590D01*
X0425046D01*
X0426046Y0251590D01*
X0431044Y0256589D02*
X0429045D01*
X0428045Y0255589D01*
Y0251590D01*
X0429045Y0250590D01*
X0431044D01*
X0432044Y0251590D01*
Y0255589D01*
X0431044Y0256589D01*
X0434043Y0250590D02*
Y0256589D01*
X0438042Y0250590D01*
Y0256589D01*
X0444040Y0250590D02*
X0440041D01*
X0444040Y0254589D01*
Y0255589D01*
X0443040Y0256589D01*
X0441041D01*
X0440041Y0255589D01*
X0463702Y0323487D02*
X0462703Y0322487D01*
Y0320488D01*
X0463702Y0319488D01*
X0467701D01*
X0468701Y0320488D01*
Y0322487D01*
X0467701Y0323487D01*
X0462703Y0328485D02*
Y0326486D01*
X0463702Y0325486D01*
X0467701D01*
X0468701Y0326486D01*
Y0328485D01*
X0467701Y0329485D01*
X0463702D01*
X0462703Y0328485D01*
X0468701Y0331484D02*
X0462703D01*
X0468701Y0335483D01*
X0462703D01*
X0468701Y0337482D02*
Y0339482D01*
Y0338482D01*
X0462703D01*
X0463702Y0337482D01*
D76*
X0423622Y0302953D02*
G03*
X0423622Y0302953I-0047244J0000000D01*
G01*
X0332677Y0259646D02*
Y0267520D01*
X0319291D02*
X0332677D01*
X0319291Y0259646D02*
Y0267520D01*
Y0259646D02*
X0332677D01*
X0316535Y0280906D02*
X0324410D01*
Y0294291D01*
X0316535D02*
X0324410D01*
X0316535Y0280906D02*
Y0294291D01*
X0393701Y0355098D02*
Y0428543D01*
X0318898Y0355098D02*
X0393701D01*
X0318898D02*
Y0428543D01*
X0393701D01*
X0355366Y0310213D02*
Y0338213D01*
X0386366Y0310213D02*
Y0338213D01*
X0355366D02*
X0386366D01*
X0355366Y0310213D02*
X0386366D01*
X0342126Y0269488D02*
Y0277362D01*
X0328740D02*
X0342126D01*
X0328740Y0269488D02*
Y0277362D01*
Y0269488D02*
X0342126D01*
X0358268Y0286024D02*
Y0293898D01*
X0344882D02*
X0358268D01*
X0344882Y0286024D02*
Y0293898D01*
Y0286024D02*
X0358268D01*
X0333858Y0316732D02*
Y0324606D01*
X0320472D02*
X0333858D01*
X0320472Y0316732D02*
Y0324606D01*
Y0316732D02*
X0333858D01*
X0322047Y0340748D02*
X0337008D01*
X0322047Y0327362D02*
X0337008D01*
X0322047D02*
Y0340748D01*
X0337008Y0327362D02*
Y0340748D01*
X0340945Y0323819D02*
X0348819D01*
Y0337205D01*
X0340945D02*
X0348819D01*
X0340945Y0323819D02*
Y0337205D01*
X0451059Y0349945D02*
X0484130D01*
Y0391677D01*
X0451059D02*
X0484130D01*
X0451059Y0349945D02*
Y0391677D01*
X0430118Y0339961D02*
X0436024D01*
Y0350984D01*
X0430118D02*
X0436024D01*
X0430118Y0339961D02*
Y0350984D01*
X0446063Y0316929D02*
Y0322835D01*
X0435039D02*
X0446063D01*
X0435039Y0316929D02*
Y0322835D01*
Y0316929D02*
X0446063D01*
X0431299Y0317681D02*
Y0334681D01*
X0419095Y0317681D02*
Y0334681D01*
X0431299D01*
X0419095Y0317681D02*
X0431299D01*
X0323228Y0262008D02*
Y0265157D01*
X0324803D01*
X0325327Y0264632D01*
Y0263582D01*
X0324803Y0263057D01*
X0323228D01*
X0324278D02*
X0325327Y0262008D01*
X0326377Y0264632D02*
X0326902Y0265157D01*
X0327951D01*
X0328476Y0264632D01*
Y0264107D01*
X0327951Y0263582D01*
X0328476Y0263057D01*
Y0262533D01*
X0327951Y0262008D01*
X0326902D01*
X0326377Y0262533D01*
Y0263057D01*
X0326902Y0263582D01*
X0326377Y0264107D01*
Y0264632D01*
X0326902Y0263582D02*
X0327951D01*
X0322047Y0284842D02*
X0318899D01*
Y0286417D01*
X0319423Y0286942D01*
X0320473D01*
X0320998Y0286417D01*
Y0284842D01*
Y0285892D02*
X0322047Y0286942D01*
X0318899Y0287991D02*
Y0290090D01*
X0319423D01*
X0321522Y0287991D01*
X0322047D01*
X0332677Y0271850D02*
Y0274999D01*
X0334251D01*
X0334776Y0274474D01*
Y0273425D01*
X0334251Y0272900D01*
X0332677D01*
X0333727D02*
X0334776Y0271850D01*
X0335826Y0274474D02*
X0336350Y0274999D01*
X0337400D01*
X0337925Y0274474D01*
Y0273949D01*
X0337400Y0273425D01*
X0336875D01*
X0337400D01*
X0337925Y0272900D01*
Y0272375D01*
X0337400Y0271850D01*
X0336350D01*
X0335826Y0272375D01*
X0348819Y0288386D02*
Y0291534D01*
X0350393D01*
X0350918Y0291010D01*
Y0289960D01*
X0350393Y0289435D01*
X0348819D01*
X0349868D02*
X0350918Y0288386D01*
X0353542D02*
Y0291534D01*
X0351968Y0289960D01*
X0354067D01*
X0324410Y0319094D02*
Y0322243D01*
X0325984D01*
X0326508Y0321718D01*
Y0320669D01*
X0325984Y0320144D01*
X0324410D01*
X0325459D02*
X0326508Y0319094D01*
X0329657Y0322243D02*
X0328608Y0321718D01*
X0327558Y0320669D01*
Y0319619D01*
X0328083Y0319094D01*
X0329132D01*
X0329657Y0319619D01*
Y0320144D01*
X0329132Y0320669D01*
X0327558D01*
X0331200Y0336221D02*
Y0334121D01*
Y0335171D01*
X0328051D01*
Y0333072D02*
Y0332022D01*
Y0332547D01*
X0331200D01*
X0330675Y0333072D01*
X0343307Y0333268D02*
X0346456D01*
Y0331693D01*
X0345931Y0331169D01*
X0344881D01*
X0344357Y0331693D01*
Y0333268D01*
Y0332218D02*
X0343307Y0331169D01*
X0346456Y0328020D02*
Y0330119D01*
X0344881D01*
X0345406Y0329070D01*
Y0328545D01*
X0344881Y0328020D01*
X0343832D01*
X0343307Y0328545D01*
Y0329594D01*
X0343832Y0330119D01*
X0396793Y0344330D02*
X0397318Y0344855D01*
Y0345904D01*
X0396793Y0346429D01*
X0394694D01*
X0394169Y0345904D01*
Y0344855D01*
X0394694Y0344330D01*
X0394169Y0341706D02*
X0397318D01*
X0395744Y0343281D01*
Y0341181D01*
X0402813Y0311182D02*
X0402288Y0310657D01*
Y0309607D01*
X0402813Y0309083D01*
X0404912D01*
X0405437Y0309607D01*
Y0310657D01*
X0404912Y0311182D01*
X0405437Y0312231D02*
Y0313281D01*
Y0312756D01*
X0402288D01*
X0402813Y0312231D01*
X0402288Y0316954D02*
X0402813Y0315905D01*
X0403863Y0314855D01*
X0404912D01*
X0405437Y0315380D01*
Y0316429D01*
X0404912Y0316954D01*
X0404388D01*
X0403863Y0316429D01*
Y0314855D01*
X0420021Y0357716D02*
X0420546Y0358241D01*
Y0359290D01*
X0420021Y0359815D01*
X0417922D01*
X0417398Y0359290D01*
Y0358241D01*
X0417922Y0357716D01*
X0420021Y0356666D02*
X0420546Y0356142D01*
Y0355092D01*
X0420021Y0354567D01*
X0419497D01*
X0418972Y0355092D01*
Y0355617D01*
Y0355092D01*
X0418447Y0354567D01*
X0417922D01*
X0417398Y0355092D01*
Y0356142D01*
X0417922Y0356666D01*
X0436278Y0357638D02*
X0435753Y0357114D01*
Y0356064D01*
X0436278Y0355539D01*
X0438377D01*
X0438902Y0356064D01*
Y0357114D01*
X0438377Y0357638D01*
X0438902Y0358688D02*
Y0359737D01*
Y0359213D01*
X0435753D01*
X0436278Y0358688D01*
X0468120Y0365823D02*
X0467595Y0365299D01*
Y0364249D01*
X0468120Y0363724D01*
X0468645D01*
X0469170Y0364249D01*
Y0365299D01*
X0469694Y0365823D01*
X0470219D01*
X0470744Y0365299D01*
Y0364249D01*
X0470219Y0363724D01*
X0467595Y0366873D02*
X0470744D01*
X0469694Y0367922D01*
X0470744Y0368972D01*
X0467595D01*
X0470744Y0370021D02*
Y0371071D01*
Y0370546D01*
X0467595D01*
X0468120Y0370021D01*
X0434646Y0341142D02*
X0432284D01*
Y0342322D01*
X0432678Y0342716D01*
X0433465D01*
X0433858Y0342322D01*
Y0341142D01*
Y0341929D02*
X0434646Y0342716D01*
Y0343503D02*
Y0344290D01*
Y0343897D01*
X0432284D01*
X0432678Y0343503D01*
X0444882Y0321457D02*
Y0319095D01*
X0443701D01*
X0443308Y0319489D01*
Y0320276D01*
X0443701Y0320670D01*
X0444882D01*
X0444095D02*
X0443308Y0321457D01*
X0440946D02*
X0442520D01*
X0440946Y0319882D01*
Y0319489D01*
X0441340Y0319095D01*
X0442127D01*
X0442520Y0319489D01*
X0438189Y0330905D02*
Y0328543D01*
X0439370D01*
X0439763Y0328937D01*
Y0330511D01*
X0439370Y0330905D01*
X0438189D01*
X0440550Y0328543D02*
X0441338D01*
X0440944D01*
Y0330905D01*
X0440550Y0330511D01*
X0330766Y0289922D02*
X0330241Y0289397D01*
Y0288348D01*
X0330766Y0287823D01*
X0332865D01*
X0333390Y0288348D01*
Y0289397D01*
X0332865Y0289922D01*
X0333390Y0293071D02*
Y0290971D01*
X0331291Y0293071D01*
X0330766D01*
X0330241Y0292546D01*
Y0291496D01*
X0330766Y0290971D01*
D78*
X0335039Y0329724D02*
G03*
X0335039Y0329724I-0000394J0000000D01*
G01*
M02*
