G04 Layer_Color=65535*
%FSAX25Y25*%
%MOIN*%
G70*
G01*
G75*
%ADD25C,0.01575*%
%ADD26C,0.01181*%
%ADD39C,0.01968*%
%ADD40C,0.00984*%
%ADD41C,0.02362*%
%ADD42C,0.00787*%
%ADD43C,0.00100*%
%ADD44C,0.00315*%
%ADD45C,0.00591*%
%ADD46R,0.38189X0.09449*%
D25*
X0451512Y0261390D02*
X0459512D01*
X0455512Y0256890D02*
Y0265390D01*
X0405386Y0260827D02*
X0413386D01*
D26*
X0399213Y0406496D02*
Y0412400D01*
X0403148Y0406496D01*
Y0412400D01*
X0406100Y0406496D02*
X0408068D01*
X0409052Y0407480D01*
Y0409448D01*
X0408068Y0410432D01*
X0406100D01*
X0405116Y0409448D01*
Y0407480D01*
X0406100Y0406496D01*
X0411020D02*
Y0407480D01*
X0412004D01*
Y0406496D01*
X0411020D01*
X0290947Y0267520D02*
Y0269488D01*
Y0268504D01*
X0296850D01*
Y0267520D01*
Y0269488D01*
Y0272439D02*
X0290947D01*
Y0275391D01*
X0291931Y0276375D01*
X0293899D01*
X0294882Y0275391D01*
Y0272439D01*
Y0274407D02*
X0296850Y0276375D01*
Y0278343D02*
X0290947D01*
X0296850Y0282279D01*
X0290947D01*
X0296850Y0284246D02*
X0292915D01*
X0290947Y0286214D01*
X0292915Y0288182D01*
X0296850D01*
X0293899D01*
Y0284246D01*
X0291931Y0294086D02*
X0290947Y0293102D01*
Y0291134D01*
X0291931Y0290150D01*
X0292915D01*
X0293899Y0291134D01*
Y0293102D01*
X0294882Y0294086D01*
X0295866D01*
X0296850Y0293102D01*
Y0291134D01*
X0295866Y0290150D01*
X0296850Y0296054D02*
X0295866D01*
Y0297038D01*
X0296850D01*
Y0296054D01*
X0290947Y0304909D02*
Y0300973D01*
X0296850D01*
Y0304909D01*
X0293899Y0300973D02*
Y0302941D01*
X0290947Y0306877D02*
X0295866D01*
X0296850Y0307861D01*
Y0309829D01*
X0295866Y0310813D01*
X0290947D01*
D39*
X0471063Y0250000D02*
G03*
X0471063Y0250000I-0007874J0000000D01*
G01*
Y0407087D02*
G03*
X0471063Y0407087I-0007874J0000000D01*
G01*
X0302165Y0250000D02*
G03*
X0302165Y0250000I-0007874J0000000D01*
G01*
Y0407087D02*
G03*
X0302165Y0407087I-0007874J0000000D01*
G01*
D40*
X0359744Y0338779D02*
G03*
X0359744Y0338779I-0000492J0000000D01*
G01*
X0333661Y0327067D02*
G03*
X0333661Y0327067I-0000492J0000000D01*
G01*
X0403854Y0350394D02*
G03*
X0403854Y0350394I-0000492J0000000D01*
G01*
X0418602Y0320571D02*
G03*
X0418602Y0320571I-0000492J0000000D01*
G01*
X0352756Y0274607D02*
Y0282872D01*
X0356888D01*
X0358266Y0281495D01*
Y0278740D01*
X0356888Y0277362D01*
X0352756D01*
X0361021Y0282872D02*
Y0278740D01*
X0362399Y0277362D01*
X0366531D01*
Y0282872D01*
X0369286Y0277362D02*
X0372041D01*
X0370663D01*
Y0285627D01*
X0369286D01*
X0376173Y0277362D02*
X0380306D01*
X0381684Y0278740D01*
X0380306Y0280117D01*
X0377551D01*
X0376173Y0281495D01*
X0377551Y0282872D01*
X0381684D01*
X0388571Y0277362D02*
X0385816D01*
X0384439Y0278740D01*
Y0281495D01*
X0385816Y0282872D01*
X0388571D01*
X0389949Y0281495D01*
Y0280117D01*
X0384439D01*
X0394081Y0277362D02*
X0396836D01*
X0398214Y0278740D01*
Y0281495D01*
X0396836Y0282872D01*
X0394081D01*
X0392704Y0281495D01*
Y0278740D01*
X0394081Y0277362D01*
X0400969Y0282872D02*
X0406479Y0277362D01*
X0403724Y0280117D01*
X0406479Y0282872D01*
X0400969Y0277362D01*
X0353150Y0269355D02*
X0356036Y0263583D01*
X0358922Y0269355D01*
X0367581Y0263583D02*
X0361808D01*
X0367581Y0269355D01*
Y0270798D01*
X0366138Y0272241D01*
X0363251D01*
X0361808Y0270798D01*
X0370467Y0263583D02*
Y0265026D01*
X0371910D01*
Y0263583D01*
X0370467D01*
X0377682D02*
X0380569D01*
X0379125D01*
Y0272241D01*
X0377682Y0270798D01*
X0367715Y0295273D02*
X0366337Y0296651D01*
X0363582D01*
X0362205Y0295273D01*
Y0289763D01*
X0363582Y0288386D01*
X0366337D01*
X0367715Y0289763D01*
Y0292518D01*
X0364960D01*
X0370470Y0288386D02*
X0373225D01*
X0371847D01*
Y0296651D01*
X0370470D01*
X0377357Y0288386D02*
X0380112D01*
X0378735D01*
Y0293896D01*
X0377357D01*
X0385622D02*
X0388377D01*
X0389755Y0292518D01*
Y0288386D01*
X0385622D01*
X0384245Y0289763D01*
X0385622Y0291141D01*
X0389755D01*
X0392510Y0296651D02*
X0398020Y0288386D01*
Y0296651D02*
X0392510Y0288386D01*
D41*
X0368701Y0333268D02*
G03*
X0368701Y0333268I-0001181J0000000D01*
G01*
D42*
X0404449Y0403780D02*
X0414449D01*
Y0363779D02*
Y0403780D01*
X0404449Y0363779D02*
Y0403780D01*
Y0363779D02*
X0414449D01*
X0332677Y0259646D02*
Y0267520D01*
X0319291Y0259646D02*
X0332677D01*
X0319291D02*
Y0267520D01*
X0332677D01*
X0311299Y0245590D02*
Y0255591D01*
X0391299D01*
Y0245590D02*
Y0255591D01*
X0311299Y0245590D02*
X0391299D01*
X0316535Y0280906D02*
X0324410D01*
X0316535D02*
Y0294291D01*
X0324410D01*
Y0280906D02*
Y0294291D01*
X0287402Y0364370D02*
X0304724D01*
X0287402D02*
Y0393504D01*
X0304724D01*
X0313779Y0364370D02*
X0316142D01*
Y0393504D01*
X0313779D02*
X0316142D01*
X0314173Y0345866D02*
X0316535D01*
Y0316732D02*
Y0345866D01*
X0314173Y0316732D02*
X0316535D01*
X0287795Y0345866D02*
X0305118D01*
X0287795Y0316732D02*
Y0345866D01*
Y0316732D02*
X0305118D01*
X0417520Y0241535D02*
Y0268701D01*
Y0241535D02*
X0449016D01*
X0417520Y0268701D02*
X0449016D01*
Y0241535D02*
Y0268701D01*
X0480118Y0327362D02*
X0481693Y0325787D01*
X0480118Y0327362D02*
X0481693Y0328937D01*
X0480118Y0327362D02*
X0484842D01*
X0478150Y0313583D02*
X0480118D01*
X0478150Y0341142D02*
X0480118D01*
X0454331Y0319094D02*
Y0320276D01*
X0460433Y0342717D02*
X0461221D01*
X0474409Y0311614D02*
Y0343110D01*
X0471654Y0311614D02*
Y0343110D01*
X0470669D02*
X0476772D01*
X0470669Y0311614D02*
X0476772D01*
Y0343110D01*
X0460433Y0312008D02*
X0461221D01*
X0454331Y0334449D02*
Y0335630D01*
X0480118Y0306102D02*
X0484842D01*
X0480118D02*
Y0348622D01*
X0484842D01*
X0363583Y0311221D02*
Y0337205D01*
X0378150Y0311221D02*
Y0337205D01*
X0363583D02*
X0378150D01*
X0363583Y0311221D02*
X0378150D01*
X0342126Y0269488D02*
Y0277362D01*
X0328740Y0269488D02*
X0342126D01*
X0328740D02*
Y0277362D01*
X0342126D01*
X0358268Y0286024D02*
Y0293898D01*
X0344882Y0286024D02*
X0358268D01*
X0344882D02*
Y0293898D01*
X0358268D01*
X0333858Y0316732D02*
Y0324606D01*
X0320472Y0316732D02*
X0333858D01*
X0320472D02*
Y0324606D01*
X0333858D01*
X0326772Y0336713D02*
Y0339961D01*
X0328346D01*
X0326772Y0328150D02*
Y0331398D01*
Y0328150D02*
X0328346D01*
X0340945Y0323819D02*
X0348819D01*
X0340945D02*
Y0337205D01*
X0348819D01*
Y0323819D02*
Y0337205D01*
X0410843Y0337106D02*
Y0340354D01*
X0406906Y0337106D02*
X0410843D01*
Y0346063D02*
Y0349311D01*
X0406906D02*
X0410843D01*
X0391669Y0334929D02*
Y0348929D01*
Y0334929D02*
X0399669D01*
Y0348929D01*
X0391669D02*
X0399669D01*
X0407937Y0306583D02*
Y0320583D01*
X0399937D02*
X0407937D01*
X0399937Y0306583D02*
Y0320583D01*
Y0306583D02*
X0407937D01*
X0414898Y0348315D02*
Y0362315D01*
Y0348315D02*
X0422898D01*
Y0362315D01*
X0414898D02*
X0422898D01*
X0433402Y0353039D02*
X0441402D01*
X0433402D02*
Y0367039D01*
X0441402D01*
Y0353039D02*
Y0367039D01*
X0464838Y0387740D02*
X0484130D01*
Y0353882D02*
Y0387740D01*
X0464838Y0353882D02*
X0484130D01*
X0451059Y0387740D02*
X0454602D01*
X0451059Y0353882D02*
Y0387740D01*
Y0353882D02*
X0454602D01*
X0430071Y0339972D02*
X0436071D01*
X0430071D02*
Y0350972D01*
X0436071D01*
Y0339972D02*
Y0350972D01*
X0446051Y0316882D02*
Y0322882D01*
X0435051Y0316882D02*
X0446051D01*
X0435051D02*
Y0322882D01*
X0446051D01*
X0419095Y0328150D02*
X0431299D01*
X0419095Y0324213D02*
X0431299D01*
Y0328150D01*
X0419095Y0324213D02*
Y0328150D01*
X0435520Y0326724D02*
X0448520D01*
Y0332724D01*
X0435520D02*
X0448520D01*
X0436520Y0326724D02*
Y0332724D01*
X0435520Y0326724D02*
Y0332724D01*
X0335890Y0285323D02*
Y0299323D01*
X0327890D02*
X0335890D01*
X0327890Y0285323D02*
Y0299323D01*
Y0285323D02*
X0335890D01*
D43*
X0352824Y0411346D02*
X0355724D01*
X0352724Y0411246D02*
X0355824D01*
X0352724Y0411146D02*
X0355924D01*
X0352724Y0411047D02*
X0355924D01*
X0352624Y0410947D02*
X0355924D01*
X0352624Y0410847D02*
X0355924D01*
X0352624Y0410746D02*
X0356024D01*
X0352624Y0410646D02*
X0356024D01*
X0352624Y0410546D02*
X0356024D01*
X0352524Y0410447D02*
X0356024D01*
X0352524Y0410347D02*
X0356024D01*
X0352524Y0410247D02*
X0356024D01*
X0352524Y0410147D02*
X0356024D01*
X0352424Y0410046D02*
X0356124D01*
X0352424Y0409946D02*
X0356124D01*
X0352424Y0409846D02*
X0356124D01*
X0352424Y0409747D02*
X0356124D01*
X0352424Y0409647D02*
X0356124D01*
X0352424Y0409547D02*
X0356124D01*
X0352324Y0409446D02*
X0356224D01*
X0352324Y0409346D02*
X0356224D01*
X0352324Y0409246D02*
X0356224D01*
X0347624Y0409146D02*
X0347824D01*
X0352324D02*
X0356224D01*
X0360724D02*
X0361024D01*
X0347424Y0409047D02*
X0348024D01*
X0352324D02*
X0356324D01*
X0360524D02*
X0361124D01*
X0347324Y0408947D02*
X0348124D01*
X0352324D02*
X0356324D01*
X0360424D02*
X0361224D01*
X0347324Y0408847D02*
X0348324D01*
X0352224D02*
X0356324D01*
X0360324D02*
X0361324D01*
X0347224Y0408746D02*
X0348424D01*
X0352224D02*
X0356324D01*
X0360124D02*
X0361424D01*
X0347124Y0408646D02*
X0348524D01*
X0352224D02*
X0356324D01*
X0360024D02*
X0361524D01*
X0346924Y0408546D02*
X0348724D01*
X0352224D02*
X0356424D01*
X0359824D02*
X0361624D01*
X0346924Y0408447D02*
X0348824D01*
X0352224D02*
X0356424D01*
X0359724D02*
X0361724D01*
X0346724Y0408347D02*
X0349024D01*
X0352124D02*
X0356424D01*
X0359524D02*
X0361824D01*
X0346624Y0408247D02*
X0349124D01*
X0351924D02*
X0356724D01*
X0359424D02*
X0361924D01*
X0346524Y0408146D02*
X0349324D01*
X0351624D02*
X0356924D01*
X0359224D02*
X0362024D01*
X0346524Y0408046D02*
X0349424D01*
X0351424D02*
X0357124D01*
X0359124D02*
X0362124D01*
X0346324Y0407946D02*
X0349624D01*
X0351124D02*
X0357424D01*
X0358924D02*
X0362224D01*
X0346224Y0407846D02*
X0349724D01*
X0350924D02*
X0357624D01*
X0358824D02*
X0362324D01*
X0346124Y0407747D02*
X0349924D01*
X0350624D02*
X0357924D01*
X0358624D02*
X0362424D01*
X0346124Y0407647D02*
X0350024D01*
X0350424D02*
X0358124D01*
X0358524D02*
X0362524D01*
X0345924Y0407547D02*
X0362624D01*
X0345824Y0407446D02*
X0362724D01*
X0345824Y0407346D02*
X0362824D01*
X0345724Y0407246D02*
X0362924D01*
X0345624Y0407147D02*
X0363024D01*
X0345524Y0407047D02*
X0363024D01*
X0345524Y0406947D02*
X0363024D01*
X0345624Y0406847D02*
X0362924D01*
X0345724Y0406746D02*
X0362924D01*
X0345724Y0406646D02*
X0362824D01*
X0345824Y0406546D02*
X0362724D01*
X0345924Y0406447D02*
X0362624D01*
X0345924Y0406347D02*
X0362624D01*
X0346024Y0406247D02*
X0362524D01*
X0346124Y0406146D02*
X0362424D01*
X0346224Y0406046D02*
X0362324D01*
X0346224Y0405946D02*
X0362324D01*
X0346324Y0405847D02*
X0362224D01*
X0346424Y0405747D02*
X0362224D01*
X0346424Y0405647D02*
X0362124D01*
X0346524Y0405547D02*
X0362024D01*
X0346624Y0405446D02*
X0362024D01*
X0346624Y0405346D02*
X0361924D01*
X0346724Y0405246D02*
X0361824D01*
X0346824Y0405147D02*
X0361824D01*
X0346824Y0405047D02*
X0361724D01*
X0346924Y0404947D02*
X0361624D01*
X0347024Y0404846D02*
X0361524D01*
X0347024Y0404746D02*
X0361524D01*
X0347124Y0404646D02*
X0361424D01*
X0347124Y0404546D02*
X0361424D01*
X0347124Y0404447D02*
X0361524D01*
X0347024Y0404347D02*
X0361524D01*
X0347024Y0404247D02*
X0361524D01*
X0347024Y0404146D02*
X0361624D01*
X0346924Y0404046D02*
X0361624D01*
X0346924Y0403946D02*
X0361724D01*
X0346824Y0403847D02*
X0361724D01*
X0346824Y0403747D02*
X0361724D01*
X0346724Y0403647D02*
X0361824D01*
X0346724Y0403546D02*
X0361824D01*
X0346624Y0403446D02*
X0361924D01*
X0346624Y0403346D02*
X0353824D01*
X0354724D02*
X0361924D01*
X0346624Y0403246D02*
X0353424D01*
X0355124D02*
X0362024D01*
X0346524Y0403147D02*
X0353124D01*
X0355424D02*
X0362024D01*
X0346524Y0403047D02*
X0352924D01*
X0355624D02*
X0362024D01*
X0346524Y0402947D02*
X0352724D01*
X0355824D02*
X0362124D01*
X0346424Y0402846D02*
X0352624D01*
X0355924D02*
X0362124D01*
X0346324Y0402746D02*
X0352524D01*
X0356124D02*
X0362224D01*
X0346324Y0402646D02*
X0352324D01*
X0356224D02*
X0362224D01*
X0346224Y0402547D02*
X0352224D01*
X0356324D02*
X0362324D01*
X0345724Y0402447D02*
X0352124D01*
X0356424D02*
X0362924D01*
X0345024Y0402347D02*
X0352024D01*
X0356524D02*
X0363524D01*
X0344624Y0402247D02*
X0351924D01*
X0356624D02*
X0364024D01*
X0344124Y0402146D02*
X0351924D01*
X0356724D02*
X0364524D01*
X0343524Y0402046D02*
X0351824D01*
X0356724D02*
X0365024D01*
X0343424Y0401946D02*
X0351824D01*
X0356824D02*
X0365124D01*
X0343424Y0401847D02*
X0351724D01*
X0356824D02*
X0365224D01*
X0343424Y0401747D02*
X0351624D01*
X0356924D02*
X0365224D01*
X0343424Y0401647D02*
X0351624D01*
X0356924D02*
X0365224D01*
X0343424Y0401546D02*
X0351524D01*
X0357024D02*
X0365224D01*
X0343424Y0401446D02*
X0351524D01*
X0357024D02*
X0365224D01*
X0343424Y0401346D02*
X0351524D01*
X0357024D02*
X0365224D01*
X0343424Y0401247D02*
X0351524D01*
X0357124D02*
X0365224D01*
X0343424Y0401147D02*
X0351424D01*
X0357124D02*
X0365224D01*
X0343424Y0401047D02*
X0351424D01*
X0357124D02*
X0365224D01*
X0343424Y0400947D02*
X0351424D01*
X0357124D02*
X0365224D01*
X0343424Y0400846D02*
X0351424D01*
X0357224D02*
X0365224D01*
X0343424Y0400746D02*
X0351324D01*
X0357224D02*
X0365224D01*
X0343424Y0400646D02*
X0351324D01*
X0357224D02*
X0365224D01*
X0343424Y0400547D02*
X0351324D01*
X0357224D02*
X0365224D01*
X0343424Y0400447D02*
X0351324D01*
X0357224D02*
X0365224D01*
X0343424Y0400347D02*
X0351324D01*
X0357224D02*
X0365224D01*
X0343424Y0400246D02*
X0351324D01*
X0357224D02*
X0365224D01*
X0343424Y0400146D02*
X0351424D01*
X0357224D02*
X0365224D01*
X0343424Y0400046D02*
X0351424D01*
X0357224D02*
X0365224D01*
X0343424Y0399946D02*
X0351424D01*
X0357124D02*
X0365224D01*
X0343424Y0399847D02*
X0351424D01*
X0357124D02*
X0365224D01*
X0343424Y0399746D02*
X0351424D01*
X0357124D02*
X0365224D01*
X0343424Y0399646D02*
X0351524D01*
X0357124D02*
X0365224D01*
X0343424Y0399547D02*
X0351524D01*
X0357024D02*
X0365224D01*
X0343424Y0399447D02*
X0351524D01*
X0357024D02*
X0365224D01*
X0343424Y0399346D02*
X0351524D01*
X0357024D02*
X0365224D01*
X0343424Y0399247D02*
X0351624D01*
X0356924D02*
X0365224D01*
X0343424Y0399147D02*
X0351624D01*
X0356924D02*
X0365224D01*
X0343424Y0399046D02*
X0351724D01*
X0356824D02*
X0365124D01*
X0343424Y0398946D02*
X0351824D01*
X0356824D02*
X0365124D01*
X0343624Y0398847D02*
X0351824D01*
X0356724D02*
X0364924D01*
X0344224Y0398746D02*
X0351924D01*
X0356724D02*
X0364324D01*
X0344824Y0398646D02*
X0351924D01*
X0356624D02*
X0363824D01*
X0345224Y0398547D02*
X0352024D01*
X0356524D02*
X0363324D01*
X0345724Y0398446D02*
X0352124D01*
X0356424D02*
X0362824D01*
X0346224Y0398346D02*
X0352224D01*
X0356324D02*
X0362324D01*
X0346324Y0398247D02*
X0352324D01*
X0356224D02*
X0362324D01*
X0346324Y0398147D02*
X0352524D01*
X0356124D02*
X0362224D01*
X0346324Y0398046D02*
X0352624D01*
X0355924D02*
X0362224D01*
X0346424Y0397947D02*
X0352724D01*
X0355824D02*
X0362224D01*
X0346424Y0397847D02*
X0352924D01*
X0355724D02*
X0362124D01*
X0346524Y0397746D02*
X0353024D01*
X0355524D02*
X0362124D01*
X0346524Y0397646D02*
X0353124D01*
X0355424D02*
X0362024D01*
X0346524Y0397547D02*
X0353224D01*
X0355424D02*
X0362024D01*
X0346624Y0397446D02*
X0353124D01*
X0355424D02*
X0361924D01*
X0346624Y0397346D02*
X0353124D01*
X0355424D02*
X0361924D01*
X0346624Y0397247D02*
X0353124D01*
X0355524D02*
X0361924D01*
X0346724Y0397147D02*
X0353024D01*
X0355524D02*
X0361824D01*
X0346724Y0397046D02*
X0353024D01*
X0355524D02*
X0361824D01*
X0346824Y0396947D02*
X0353024D01*
X0355624D02*
X0361824D01*
X0346824Y0396847D02*
X0352924D01*
X0355624D02*
X0361724D01*
X0346924Y0396746D02*
X0352924D01*
X0355724D02*
X0361724D01*
X0346924Y0396646D02*
X0352824D01*
X0355724D02*
X0361624D01*
X0346924Y0396547D02*
X0352824D01*
X0355724D02*
X0361624D01*
X0347024Y0396446D02*
X0352724D01*
X0355824D02*
X0361624D01*
X0347024Y0396346D02*
X0352724D01*
X0355824D02*
X0361524D01*
X0347024Y0396247D02*
X0352624D01*
X0355924D02*
X0361524D01*
X0347024Y0396146D02*
X0352624D01*
X0355924D02*
X0361524D01*
X0347024Y0396046D02*
X0352624D01*
X0355924D02*
X0361624D01*
X0346924Y0395947D02*
X0352524D01*
X0356024D02*
X0361624D01*
X0346824Y0395847D02*
X0352524D01*
X0356024D02*
X0361724D01*
X0346824Y0395746D02*
X0352524D01*
X0356124D02*
X0361824D01*
X0346724Y0395647D02*
X0352424D01*
X0356124D02*
X0361824D01*
X0346624Y0395547D02*
X0352424D01*
X0356224D02*
X0361924D01*
X0346524Y0395446D02*
X0352324D01*
X0356224D02*
X0362024D01*
X0346524Y0395346D02*
X0352324D01*
X0356224D02*
X0362024D01*
X0346424Y0395247D02*
X0352224D01*
X0356324D02*
X0362124D01*
X0346324Y0395146D02*
X0352224D01*
X0356324D02*
X0362224D01*
X0346324Y0395046D02*
X0352224D01*
X0356424D02*
X0362324D01*
X0346224Y0394947D02*
X0352124D01*
X0356424D02*
X0362324D01*
X0346124Y0394847D02*
X0352124D01*
X0356524D02*
X0362424D01*
X0346124Y0394746D02*
X0352024D01*
X0356524D02*
X0362524D01*
X0346024Y0394647D02*
X0352024D01*
X0356524D02*
X0362524D01*
X0345924Y0394547D02*
X0352024D01*
X0356624D02*
X0362624D01*
X0345924Y0394446D02*
X0351924D01*
X0356624D02*
X0362724D01*
X0345824Y0394346D02*
X0351924D01*
X0356624D02*
X0362724D01*
X0345724Y0394247D02*
X0351824D01*
X0356724D02*
X0362824D01*
X0345724Y0394146D02*
X0351824D01*
X0356724D02*
X0362924D01*
X0345624Y0394046D02*
X0351824D01*
X0356824D02*
X0362924D01*
X0345524Y0393947D02*
X0351724D01*
X0356824D02*
X0363024D01*
X0345524Y0393847D02*
X0351724D01*
X0356924D02*
X0363024D01*
X0345624Y0393746D02*
X0351624D01*
X0356924D02*
X0363024D01*
X0345724Y0393647D02*
X0351624D01*
X0357024D02*
X0362924D01*
X0345824Y0393547D02*
X0351524D01*
X0357024D02*
X0362724D01*
X0345924Y0393446D02*
X0351524D01*
X0357024D02*
X0362624D01*
X0346024Y0393347D02*
X0351524D01*
X0357124D02*
X0362524D01*
X0346124Y0393247D02*
X0351424D01*
X0357124D02*
X0362424D01*
X0346224Y0393146D02*
X0349824D01*
X0350224D02*
X0351424D01*
X0357124D02*
X0358424D01*
X0358724D02*
X0362324D01*
X0346324Y0393046D02*
X0349724D01*
X0350324D02*
X0351324D01*
X0357224D02*
X0358224D01*
X0358824D02*
X0362324D01*
X0346424Y0392947D02*
X0349524D01*
X0350524D02*
X0351324D01*
X0357224D02*
X0358024D01*
X0359024D02*
X0362224D01*
X0346524Y0392846D02*
X0349424D01*
X0350724D02*
X0351224D01*
X0357324D02*
X0357824D01*
X0359124D02*
X0362024D01*
X0346624Y0392746D02*
X0349224D01*
X0350924D02*
X0351224D01*
X0357324D02*
X0357624D01*
X0359324D02*
X0361924D01*
X0346724Y0392647D02*
X0349124D01*
X0359424D02*
X0361824D01*
X0346824Y0392547D02*
X0348924D01*
X0359624D02*
X0361724D01*
X0346924Y0392446D02*
X0348824D01*
X0359724D02*
X0361624D01*
X0347024Y0392347D02*
X0348724D01*
X0359924D02*
X0361624D01*
X0347124Y0392247D02*
X0348524D01*
X0360024D02*
X0361524D01*
X0347224Y0392146D02*
X0348424D01*
X0360224D02*
X0361324D01*
X0347324Y0392046D02*
X0348224D01*
X0360324D02*
X0361224D01*
X0347424Y0391947D02*
X0348124D01*
X0360424D02*
X0361124D01*
X0347524Y0391846D02*
X0347924D01*
X0360624D02*
X0361124D01*
X0347624Y0391746D02*
X0347824D01*
X0360824D02*
X0360924D01*
D44*
X0464173Y0327362D02*
X0464961D01*
D45*
X0378740Y0363451D02*
X0379265Y0363975D01*
X0380314D01*
X0380839Y0363451D01*
Y0362926D01*
X0380314Y0362401D01*
X0380839Y0361876D01*
Y0361351D01*
X0380314Y0360827D01*
X0379265D01*
X0378740Y0361351D01*
Y0361876D01*
X0379265Y0362401D01*
X0378740Y0362926D01*
Y0363451D01*
X0379265Y0362401D02*
X0380314D01*
X0374410Y0374212D02*
X0376508D01*
Y0373687D01*
X0374410Y0371588D01*
Y0371063D01*
X0339107Y0360433D02*
X0337008D01*
X0339107Y0362532D01*
Y0363057D01*
X0338582Y0363582D01*
X0337533D01*
X0337008Y0363057D01*
X0332677Y0370669D02*
X0333727D01*
X0333202D01*
Y0373818D01*
X0332677Y0373293D01*
X0397638Y0400197D02*
Y0403345D01*
X0399212D01*
X0399737Y0402821D01*
Y0401771D01*
X0399212Y0401246D01*
X0397638D01*
X0400786Y0400197D02*
X0401836D01*
X0401311D01*
Y0403345D01*
X0400786Y0402821D01*
X0308792Y0262007D02*
X0306693D01*
Y0258858D01*
X0308792D01*
X0306693Y0260433D02*
X0307742D01*
X0309841Y0258858D02*
Y0262007D01*
X0311941Y0258858D01*
Y0262007D01*
X0302756Y0266731D02*
Y0263583D01*
X0304855D01*
X0305905Y0266731D02*
X0306954D01*
X0306429D01*
Y0263583D01*
X0305905D01*
X0306954D01*
X0310627Y0266207D02*
X0310103Y0266731D01*
X0309053D01*
X0308528Y0266207D01*
Y0264107D01*
X0309053Y0263583D01*
X0310103D01*
X0310627Y0264107D01*
Y0265157D01*
X0309578D01*
X0311677Y0266731D02*
Y0263583D01*
Y0265157D01*
X0313776D01*
Y0266731D01*
Y0263583D01*
X0314826Y0266731D02*
X0316925D01*
X0315875D01*
Y0263583D01*
X0303543Y0271456D02*
Y0268307D01*
X0305118D01*
X0305642Y0268832D01*
Y0269357D01*
X0305118Y0269881D01*
X0303543D01*
X0305118D01*
X0305642Y0270406D01*
Y0270931D01*
X0305118Y0271456D01*
X0303543D01*
X0306692Y0268307D02*
Y0270406D01*
X0307741Y0271456D01*
X0308791Y0270406D01*
Y0268307D01*
Y0269881D01*
X0306692D01*
X0311940Y0270931D02*
X0311415Y0271456D01*
X0310365D01*
X0309840Y0270931D01*
Y0268832D01*
X0310365Y0268307D01*
X0311415D01*
X0311940Y0268832D01*
X0312989Y0271456D02*
Y0268307D01*
Y0269357D01*
X0315088Y0271456D01*
X0313514Y0269881D01*
X0315088Y0268307D01*
X0333858Y0262795D02*
Y0265944D01*
X0335433D01*
X0335957Y0265419D01*
Y0264370D01*
X0335433Y0263845D01*
X0333858D01*
X0334908D02*
X0335957Y0262795D01*
X0337007Y0265419D02*
X0337532Y0265944D01*
X0338581D01*
X0339106Y0265419D01*
Y0264894D01*
X0338581Y0264370D01*
X0339106Y0263845D01*
Y0263320D01*
X0338581Y0262795D01*
X0337532D01*
X0337007Y0263320D01*
Y0263845D01*
X0337532Y0264370D01*
X0337007Y0264894D01*
Y0265419D01*
X0337532Y0264370D02*
X0338581D01*
X0422965Y0274868D02*
X0422440Y0275393D01*
X0421391D01*
X0420866Y0274868D01*
Y0272769D01*
X0421391Y0272244D01*
X0422440D01*
X0422965Y0272769D01*
X0425589Y0275393D02*
X0424540D01*
X0424015Y0274868D01*
Y0272769D01*
X0424540Y0272244D01*
X0425589D01*
X0426114Y0272769D01*
Y0274868D01*
X0425589Y0275393D01*
X0427163Y0272244D02*
Y0275393D01*
X0429262Y0272244D01*
Y0275393D01*
X0430312Y0272244D02*
Y0275393D01*
X0432411Y0272244D01*
Y0275393D01*
X0435560D02*
X0433461D01*
Y0272244D01*
X0435560D01*
X0433461Y0273818D02*
X0434510D01*
X0438708Y0274868D02*
X0438183Y0275393D01*
X0437134D01*
X0436609Y0274868D01*
Y0272769D01*
X0437134Y0272244D01*
X0438183D01*
X0438708Y0272769D01*
X0439758Y0275393D02*
X0441857D01*
X0440807D01*
Y0272244D01*
X0444481Y0275393D02*
X0443431D01*
X0442906Y0274868D01*
Y0272769D01*
X0443431Y0272244D01*
X0444481D01*
X0445005Y0272769D01*
Y0274868D01*
X0444481Y0275393D01*
X0446055Y0272244D02*
Y0275393D01*
X0447629D01*
X0448154Y0274868D01*
Y0273818D01*
X0447629Y0273294D01*
X0446055D01*
X0447104D02*
X0448154Y0272244D01*
X0423622Y0280511D02*
Y0277362D01*
X0425196D01*
X0425721Y0277887D01*
Y0278412D01*
X0425196Y0278937D01*
X0423622D01*
X0425196D01*
X0425721Y0279461D01*
Y0279986D01*
X0425196Y0280511D01*
X0423622D01*
X0426771Y0277362D02*
Y0279461D01*
X0427820Y0280511D01*
X0428870Y0279461D01*
Y0277362D01*
Y0278937D01*
X0426771D01*
X0429919Y0280511D02*
X0432018D01*
X0430969D01*
Y0277362D01*
X0433068Y0280511D02*
X0435167D01*
X0434117D01*
Y0277362D01*
X0438315Y0280511D02*
X0436216D01*
Y0277362D01*
X0438315D01*
X0436216Y0278937D02*
X0437266D01*
X0439365Y0277362D02*
Y0280511D01*
X0440939D01*
X0441464Y0279986D01*
Y0278937D01*
X0440939Y0278412D01*
X0439365D01*
X0440414D02*
X0441464Y0277362D01*
X0442514Y0280511D02*
Y0279986D01*
X0443563Y0278937D01*
X0444613Y0279986D01*
Y0280511D01*
X0443563Y0278937D02*
Y0277362D01*
X0334252Y0259645D02*
Y0256496D01*
X0335826D01*
X0336351Y0257021D01*
Y0257546D01*
X0335826Y0258070D01*
X0334252D01*
X0335826D01*
X0336351Y0258595D01*
Y0259120D01*
X0335826Y0259645D01*
X0334252D01*
X0337401D02*
Y0256496D01*
X0339500D01*
X0344225Y0259120D02*
X0343700Y0259645D01*
X0342651D01*
X0342126Y0259120D01*
Y0258595D01*
X0342651Y0258070D01*
X0343700D01*
X0344225Y0257546D01*
Y0257021D01*
X0343700Y0256496D01*
X0342651D01*
X0342126Y0257021D01*
X0345275Y0259645D02*
Y0256496D01*
X0346849D01*
X0347374Y0257021D01*
Y0259120D01*
X0346849Y0259645D01*
X0345275D01*
X0348423Y0256496D02*
Y0258595D01*
X0349473Y0259645D01*
X0350522Y0258595D01*
Y0256496D01*
Y0258070D01*
X0348423D01*
X0354461Y0259120D02*
X0353937Y0259645D01*
X0352887D01*
X0352362Y0259120D01*
Y0258595D01*
X0352887Y0258070D01*
X0353937D01*
X0354461Y0257546D01*
Y0257021D01*
X0353937Y0256496D01*
X0352887D01*
X0352362Y0257021D01*
X0357610Y0259120D02*
X0357085Y0259645D01*
X0356036D01*
X0355511Y0259120D01*
Y0257021D01*
X0356036Y0256496D01*
X0357085D01*
X0357610Y0257021D01*
X0358659Y0259645D02*
Y0256496D01*
X0360758D01*
X0363779Y0256890D02*
Y0260038D01*
X0364829Y0258989D01*
X0365879Y0260038D01*
Y0256890D01*
X0368502Y0260038D02*
X0367453D01*
X0366928Y0259514D01*
Y0257415D01*
X0367453Y0256890D01*
X0368502D01*
X0369027Y0257415D01*
Y0259514D01*
X0368502Y0260038D01*
X0374016Y0256890D02*
Y0260038D01*
X0375065Y0258989D01*
X0376115Y0260038D01*
Y0256890D01*
X0377164Y0260038D02*
X0378214D01*
X0377689D01*
Y0256890D01*
X0377164D01*
X0378214D01*
X0385564Y0259514D02*
X0385039Y0260038D01*
X0383989D01*
X0383465Y0259514D01*
Y0257415D01*
X0383989Y0256890D01*
X0385039D01*
X0385564Y0257415D01*
X0386613Y0260038D02*
Y0256890D01*
Y0257939D01*
X0388712Y0260038D01*
X0387138Y0258464D01*
X0388712Y0256890D01*
X0301969Y0255314D02*
X0304068D01*
X0303018Y0256364D02*
Y0254265D01*
X0305117Y0256364D02*
X0305642Y0256889D01*
X0306691D01*
X0307216Y0256364D01*
Y0255839D01*
X0306691Y0255314D01*
X0306167D01*
X0306691D01*
X0307216Y0254790D01*
Y0254265D01*
X0306691Y0253740D01*
X0305642D01*
X0305117Y0254265D01*
X0308266Y0256889D02*
Y0254790D01*
X0309315Y0253740D01*
X0310365Y0254790D01*
Y0256889D01*
X0348819Y0343897D02*
Y0340748D01*
X0350393D01*
X0350918Y0341273D01*
Y0341798D01*
X0350393Y0342322D01*
X0348819D01*
X0350393D01*
X0350918Y0342847D01*
Y0343372D01*
X0350393Y0343897D01*
X0348819D01*
X0353542D02*
X0352492D01*
X0351968Y0343372D01*
Y0341273D01*
X0352492Y0340748D01*
X0353542D01*
X0354067Y0341273D01*
Y0343372D01*
X0353542Y0343897D01*
X0356690D02*
X0355641D01*
X0355116Y0343372D01*
Y0341273D01*
X0355641Y0340748D01*
X0356690D01*
X0357215Y0341273D01*
Y0343372D01*
X0356690Y0343897D01*
X0358265D02*
X0360364D01*
X0359314D01*
Y0340748D01*
X0318061Y0348276D02*
Y0345128D01*
X0319635D01*
X0320160Y0345653D01*
Y0346178D01*
X0319635Y0346702D01*
X0318061D01*
X0319635D01*
X0320160Y0347227D01*
Y0347752D01*
X0319635Y0348276D01*
X0318061D01*
X0321210D02*
X0323309D01*
X0322259D01*
Y0345128D01*
X0324358D02*
Y0348276D01*
X0326457Y0345128D01*
Y0348276D01*
X0317323Y0295866D02*
Y0299015D01*
X0318897D01*
X0319422Y0298490D01*
Y0297440D01*
X0318897Y0296916D01*
X0317323D01*
X0318372D02*
X0319422Y0295866D01*
X0320471Y0299015D02*
X0322570D01*
Y0298490D01*
X0320471Y0296391D01*
Y0295866D01*
X0405249Y0246128D02*
X0404724Y0246653D01*
X0403674D01*
X0403150Y0246128D01*
Y0244029D01*
X0403674Y0243504D01*
X0404724D01*
X0405249Y0244029D01*
X0407872Y0246653D02*
X0406823D01*
X0406298Y0246128D01*
Y0244029D01*
X0406823Y0243504D01*
X0407872D01*
X0408397Y0244029D01*
Y0246128D01*
X0407872Y0246653D01*
X0409447Y0243504D02*
Y0246653D01*
X0411546Y0243504D01*
Y0246653D01*
X0414694Y0243504D02*
X0412595D01*
X0414694Y0245603D01*
Y0246128D01*
X0414170Y0246653D01*
X0413120D01*
X0412595Y0246128D01*
X0375590Y0342716D02*
Y0340092D01*
X0376115Y0339567D01*
X0377165D01*
X0377690Y0340092D01*
Y0342716D01*
X0378739Y0342191D02*
X0379264Y0342716D01*
X0380313D01*
X0380838Y0342191D01*
Y0341666D01*
X0380313Y0341141D01*
X0379789D01*
X0380313D01*
X0380838Y0340616D01*
Y0340092D01*
X0380313Y0339567D01*
X0379264D01*
X0378739Y0340092D01*
X0437138Y0372112D02*
X0436614Y0372637D01*
X0435564D01*
X0435039Y0372112D01*
Y0370013D01*
X0435564Y0369488D01*
X0436614D01*
X0437138Y0370013D01*
X0438188Y0369488D02*
X0439237D01*
X0438713D01*
Y0372637D01*
X0438188Y0372112D01*
X0442913Y0337597D02*
Y0334449D01*
X0444488D01*
X0445012Y0334974D01*
Y0337073D01*
X0444488Y0337597D01*
X0442913D01*
X0446062Y0334449D02*
X0447112D01*
X0446587D01*
Y0337597D01*
X0446062Y0337073D01*
X0437795Y0346654D02*
Y0349802D01*
X0439370D01*
X0439894Y0349277D01*
Y0348228D01*
X0439370Y0347703D01*
X0437795D01*
X0438845D02*
X0439894Y0346654D01*
X0440944D02*
X0441993D01*
X0441469D01*
Y0349802D01*
X0440944Y0349277D01*
X0436221Y0312008D02*
Y0315157D01*
X0437795D01*
X0438319Y0314632D01*
Y0313582D01*
X0437795Y0313057D01*
X0436221D01*
X0437270D02*
X0438319Y0312008D01*
X0441468D02*
X0439369D01*
X0441468Y0314107D01*
Y0314632D01*
X0440943Y0315157D01*
X0439894D01*
X0439369Y0314632D01*
X0407694Y0351476D02*
X0410318D01*
X0410843Y0352001D01*
Y0353051D01*
X0410318Y0353575D01*
X0407694D01*
X0410843Y0356724D02*
Y0354625D01*
X0408743Y0356724D01*
X0408219D01*
X0407694Y0356199D01*
Y0355150D01*
X0408219Y0354625D01*
X0412992Y0329723D02*
Y0327100D01*
X0413517Y0326575D01*
X0414566D01*
X0415091Y0327100D01*
Y0329723D01*
X0416141Y0326575D02*
X0417190D01*
X0416666D01*
Y0329723D01*
X0416141Y0329199D01*
X0333989Y0353345D02*
X0332939D01*
X0333464D01*
Y0350722D01*
X0332939Y0350197D01*
X0332415D01*
X0331890Y0350722D01*
X0337137Y0350197D02*
X0335038D01*
X0337137Y0352296D01*
Y0352821D01*
X0336613Y0353345D01*
X0335563D01*
X0335038Y0352821D01*
X0421260Y0306101D02*
X0423359D01*
X0422309D01*
Y0302953D01*
X0424408D02*
Y0306101D01*
X0425983D01*
X0426508Y0305577D01*
Y0304527D01*
X0425983Y0304002D01*
X0424408D01*
X0429656Y0302953D02*
X0427557D01*
X0429656Y0305052D01*
Y0305577D01*
X0429131Y0306101D01*
X0428082D01*
X0427557Y0305577D01*
X0413779Y0293109D02*
X0415879D01*
X0414829D01*
Y0289961D01*
X0416928D02*
Y0293109D01*
X0418502D01*
X0419027Y0292584D01*
Y0291535D01*
X0418502Y0291010D01*
X0416928D01*
X0420077Y0292584D02*
X0420602Y0293109D01*
X0421651D01*
X0422176Y0292584D01*
Y0292060D01*
X0421651Y0291535D01*
X0421126D01*
X0421651D01*
X0422176Y0291010D01*
Y0290485D01*
X0421651Y0289961D01*
X0420602D01*
X0420077Y0290485D01*
X0458298Y0309403D02*
X0457773Y0309928D01*
X0456724D01*
X0456199Y0309403D01*
Y0307304D01*
X0456724Y0306780D01*
X0457773D01*
X0458298Y0307304D01*
X0460922Y0309928D02*
X0459872D01*
X0459347Y0309403D01*
Y0307304D01*
X0459872Y0306780D01*
X0460922D01*
X0461447Y0307304D01*
Y0309403D01*
X0460922Y0309928D01*
X0462496Y0306780D02*
Y0309928D01*
X0464595Y0306780D01*
Y0309928D01*
X0465645Y0306780D02*
X0466694D01*
X0466169D01*
Y0309928D01*
X0465645Y0309403D01*
X0304724Y0242717D02*
Y0245865D01*
X0306299D01*
X0306823Y0245340D01*
Y0244291D01*
X0306299Y0243766D01*
X0304724D01*
X0309972Y0242717D02*
X0307873D01*
X0309972Y0244816D01*
Y0245340D01*
X0309447Y0245865D01*
X0308398D01*
X0307873Y0245340D01*
X0321654Y0272638D02*
Y0275786D01*
X0323228D01*
X0323753Y0275262D01*
Y0274212D01*
X0323228Y0273687D01*
X0321654D01*
X0322703D02*
X0323753Y0272638D01*
X0324802Y0275262D02*
X0325327Y0275786D01*
X0326376D01*
X0326901Y0275262D01*
Y0274737D01*
X0326376Y0274212D01*
X0325852D01*
X0326376D01*
X0326901Y0273687D01*
Y0273163D01*
X0326376Y0272638D01*
X0325327D01*
X0324802Y0273163D01*
X0341732Y0280906D02*
Y0284054D01*
X0343307D01*
X0343831Y0283529D01*
Y0282480D01*
X0343307Y0281955D01*
X0341732D01*
X0342782D02*
X0343831Y0280906D01*
X0346455D02*
Y0284054D01*
X0344881Y0282480D01*
X0346980D01*
X0449221Y0393907D02*
X0448696Y0394432D01*
X0447647D01*
X0447122Y0393907D01*
Y0393382D01*
X0447647Y0392858D01*
X0448696D01*
X0449221Y0392333D01*
Y0391808D01*
X0448696Y0391283D01*
X0447647D01*
X0447122Y0391808D01*
X0450270Y0394432D02*
Y0391283D01*
X0451320Y0392333D01*
X0452369Y0391283D01*
Y0394432D01*
X0453419Y0391283D02*
X0454468D01*
X0453944D01*
Y0394432D01*
X0453419Y0393907D01*
X0291469Y0350459D02*
X0290944Y0350983D01*
X0289895D01*
X0289370Y0350459D01*
Y0349934D01*
X0289895Y0349409D01*
X0290944D01*
X0291469Y0348884D01*
Y0348359D01*
X0290944Y0347835D01*
X0289895D01*
X0289370Y0348359D01*
X0292519Y0350983D02*
Y0347835D01*
X0293568Y0348884D01*
X0294618Y0347835D01*
Y0350983D01*
X0297766Y0347835D02*
X0295667D01*
X0297766Y0349934D01*
Y0350459D01*
X0297242Y0350983D01*
X0296192D01*
X0295667Y0350459D01*
X0446457Y0301377D02*
X0448556D01*
X0447506D01*
Y0298228D01*
X0449605D02*
Y0301377D01*
X0451180D01*
X0451704Y0300852D01*
Y0299803D01*
X0451180Y0299278D01*
X0449605D01*
X0452754Y0298228D02*
X0453803D01*
X0453279D01*
Y0301377D01*
X0452754Y0300852D01*
X0341339Y0318701D02*
Y0321849D01*
X0342913D01*
X0343438Y0321325D01*
Y0320275D01*
X0342913Y0319750D01*
X0341339D01*
X0342388D02*
X0343438Y0318701D01*
X0346586Y0321849D02*
X0344487D01*
Y0320275D01*
X0345537Y0320800D01*
X0346061D01*
X0346586Y0320275D01*
Y0319226D01*
X0346061Y0318701D01*
X0345012D01*
X0344487Y0319226D01*
X0320472Y0312402D02*
Y0315550D01*
X0322047D01*
X0322571Y0315025D01*
Y0313976D01*
X0322047Y0313451D01*
X0320472D01*
X0321522D02*
X0322571Y0312402D01*
X0325720Y0315550D02*
X0324671Y0315025D01*
X0323621Y0313976D01*
Y0312926D01*
X0324146Y0312402D01*
X0325195D01*
X0325720Y0312926D01*
Y0313451D01*
X0325195Y0313976D01*
X0323621D01*
X0291469Y0396915D02*
X0290944Y0397440D01*
X0289895D01*
X0289370Y0396915D01*
Y0396390D01*
X0289895Y0395866D01*
X0290944D01*
X0291469Y0395341D01*
Y0394816D01*
X0290944Y0394291D01*
X0289895D01*
X0289370Y0394816D01*
X0292519Y0397440D02*
Y0394291D01*
X0293568Y0395341D01*
X0294618Y0394291D01*
Y0397440D01*
X0297242Y0394291D02*
Y0397440D01*
X0295667Y0395866D01*
X0297766D01*
X0319685Y0340747D02*
X0321784D01*
X0320735D01*
Y0337598D01*
X0322834D02*
X0323883D01*
X0323358D01*
Y0340747D01*
X0322834Y0340222D01*
X0331233Y0304002D02*
X0330708Y0304526D01*
X0329659D01*
X0329134Y0304002D01*
Y0301903D01*
X0329659Y0301378D01*
X0330708D01*
X0331233Y0301903D01*
X0334382Y0301378D02*
X0332282D01*
X0334382Y0303477D01*
Y0304002D01*
X0333857Y0304526D01*
X0332807D01*
X0332282Y0304002D01*
X0426509Y0360695D02*
X0425984Y0361220D01*
X0424934D01*
X0424409Y0360695D01*
Y0358596D01*
X0424934Y0358071D01*
X0425984D01*
X0426509Y0358596D01*
X0427558Y0360695D02*
X0428083Y0361220D01*
X0429132D01*
X0429657Y0360695D01*
Y0360170D01*
X0429132Y0359645D01*
X0428608D01*
X0429132D01*
X0429657Y0359120D01*
Y0358596D01*
X0429132Y0358071D01*
X0428083D01*
X0427558Y0358596D01*
X0387140Y0334186D02*
X0386615Y0333661D01*
Y0332611D01*
X0387140Y0332087D01*
X0389239D01*
X0389764Y0332611D01*
Y0333661D01*
X0389239Y0334186D01*
X0389764Y0336809D02*
X0386615D01*
X0388190Y0335235D01*
Y0337334D01*
X0402099Y0325655D02*
X0401574Y0326180D01*
X0400525D01*
X0400000Y0325655D01*
Y0323556D01*
X0400525Y0323031D01*
X0401574D01*
X0402099Y0323556D01*
X0403149Y0323031D02*
X0404198D01*
X0403673D01*
Y0326180D01*
X0403149Y0325655D01*
X0407871Y0326180D02*
X0406822Y0325655D01*
X0405772Y0324606D01*
Y0323556D01*
X0406297Y0323031D01*
X0407347D01*
X0407871Y0323556D01*
Y0324081D01*
X0407347Y0324606D01*
X0405772D01*
X0461417Y0388778D02*
X0460367D01*
X0459842Y0388254D01*
Y0386155D01*
X0460367Y0385630D01*
X0461417D01*
X0461942Y0386155D01*
Y0388254D01*
X0461417Y0388778D01*
X0462991Y0385630D02*
Y0388778D01*
X0465090Y0385630D01*
Y0388778D01*
X0419028Y0400590D02*
X0416929D01*
Y0399015D01*
X0417979Y0399540D01*
X0418503D01*
X0419028Y0399015D01*
Y0397966D01*
X0418503Y0397441D01*
X0417454D01*
X0416929Y0397966D01*
X0420078Y0400590D02*
Y0398491D01*
X0421127Y0397441D01*
X0422177Y0398491D01*
Y0400590D01*
X0419028Y0390222D02*
X0418503Y0390747D01*
X0417454D01*
X0416929Y0390222D01*
Y0389698D01*
X0417454Y0389173D01*
X0418503D01*
X0419028Y0388648D01*
Y0388123D01*
X0418503Y0387598D01*
X0417454D01*
X0416929Y0388123D01*
X0420078Y0390747D02*
Y0387598D01*
X0421127Y0388648D01*
X0422177Y0387598D01*
Y0390747D01*
X0423226D02*
X0424276D01*
X0423751D01*
Y0387598D01*
X0423226D01*
X0424276D01*
X0427424Y0390747D02*
X0426375D01*
X0425850Y0390222D01*
Y0388123D01*
X0426375Y0387598D01*
X0427424D01*
X0427949Y0388123D01*
Y0390222D01*
X0427424Y0390747D01*
X0419422Y0379986D02*
X0418897Y0380511D01*
X0417848D01*
X0417323Y0379986D01*
Y0379461D01*
X0417848Y0378937D01*
X0418897D01*
X0419422Y0378412D01*
Y0377887D01*
X0418897Y0377362D01*
X0417848D01*
X0417323Y0377887D01*
X0420471Y0380511D02*
Y0377362D01*
X0421521Y0378412D01*
X0422571Y0377362D01*
Y0380511D01*
X0425719Y0379986D02*
X0425194Y0380511D01*
X0424145D01*
X0423620Y0379986D01*
Y0377887D01*
X0424145Y0377362D01*
X0425194D01*
X0425719Y0377887D01*
X0426769Y0380511D02*
Y0377362D01*
X0428868D01*
X0429917Y0380511D02*
Y0377362D01*
Y0378412D01*
X0432016Y0380511D01*
X0430442Y0378937D01*
X0432016Y0377362D01*
X0419028Y0369356D02*
X0418503Y0369881D01*
X0417454D01*
X0416929Y0369356D01*
Y0367257D01*
X0417454Y0366732D01*
X0418503D01*
X0419028Y0367257D01*
Y0368307D01*
X0417979D01*
X0420078Y0366732D02*
Y0369881D01*
X0422177Y0366732D01*
Y0369881D01*
X0423226D02*
Y0366732D01*
X0424801D01*
X0425325Y0367257D01*
Y0369356D01*
X0424801Y0369881D01*
X0423226D01*
X0362599Y0347441D02*
X0365748D01*
Y0349540D01*
X0362599Y0352689D02*
Y0350589D01*
X0365748D01*
Y0352689D01*
X0364174Y0350589D02*
Y0351639D01*
X0362599Y0353738D02*
X0365748D01*
Y0355312D01*
X0365223Y0355837D01*
X0363124D01*
X0362599Y0355312D01*
Y0353738D01*
X0365748Y0356887D02*
Y0357936D01*
Y0357412D01*
X0362599D01*
X0363124Y0356887D01*
X0357088Y0376969D02*
X0360236D01*
Y0379068D01*
X0357088Y0382216D02*
Y0380117D01*
X0360236D01*
Y0382216D01*
X0358662Y0380117D02*
Y0381167D01*
X0357088Y0383266D02*
X0360236D01*
Y0384840D01*
X0359712Y0385365D01*
X0357612D01*
X0357088Y0384840D01*
Y0383266D01*
X0360236Y0388513D02*
Y0386414D01*
X0358137Y0388513D01*
X0357612D01*
X0357088Y0387989D01*
Y0386939D01*
X0357612Y0386414D01*
X0352363Y0347047D02*
X0355512D01*
Y0349146D01*
X0352363Y0352295D02*
Y0350196D01*
X0355512D01*
Y0352295D01*
X0353938Y0350196D02*
Y0351245D01*
X0352363Y0353344D02*
X0355512D01*
Y0354919D01*
X0354987Y0355444D01*
X0352888D01*
X0352363Y0354919D01*
Y0353344D01*
X0352888Y0356493D02*
X0352363Y0357018D01*
Y0358067D01*
X0352888Y0358592D01*
X0353413D01*
X0353938Y0358067D01*
Y0357542D01*
Y0358067D01*
X0354462Y0358592D01*
X0354987D01*
X0355512Y0358067D01*
Y0357018D01*
X0354987Y0356493D01*
X0348819Y0377362D02*
Y0379461D01*
X0347770Y0378412D02*
X0349869D01*
X0347770Y0380511D02*
X0347245Y0381036D01*
Y0382085D01*
X0347770Y0382610D01*
X0348295D01*
X0348819Y0382085D01*
Y0381560D01*
Y0382085D01*
X0349344Y0382610D01*
X0349869D01*
X0350394Y0382085D01*
Y0381036D01*
X0349869Y0380511D01*
X0347245Y0383659D02*
X0349344D01*
X0350394Y0384709D01*
X0349344Y0385758D01*
X0347245D01*
X0345276Y0350197D02*
X0342127D01*
Y0351771D01*
X0342652Y0352296D01*
X0343701D01*
X0344226Y0351771D01*
Y0350197D01*
Y0351246D02*
X0345276Y0352296D01*
X0342652Y0355445D02*
X0342127Y0354920D01*
Y0353870D01*
X0342652Y0353345D01*
X0344751D01*
X0345276Y0353870D01*
Y0354920D01*
X0344751Y0355445D01*
X0342127Y0356494D02*
X0344226D01*
X0345276Y0357544D01*
X0344226Y0358593D01*
X0342127D01*
X0337534Y0379068D02*
X0337009Y0378543D01*
Y0377493D01*
X0337534Y0376969D01*
X0339633D01*
X0340158Y0377493D01*
Y0378543D01*
X0339633Y0379068D01*
X0338583D01*
Y0378018D01*
X0340158Y0380117D02*
X0337009D01*
X0340158Y0382216D01*
X0337009D01*
Y0383266D02*
X0340158D01*
Y0384840D01*
X0339633Y0385365D01*
X0337534D01*
X0337009Y0384840D01*
Y0383266D01*
X0444094Y0390747D02*
X0443044D01*
X0442520Y0390222D01*
Y0388123D01*
X0443044Y0387598D01*
X0444094D01*
X0444619Y0388123D01*
Y0390222D01*
X0444094Y0390747D01*
X0445668Y0387598D02*
Y0390747D01*
X0447767Y0387598D01*
Y0390747D01*
X0413779Y0287204D02*
X0415879D01*
X0414829Y0288254D02*
Y0286155D01*
X0416928Y0288254D02*
X0417453Y0288778D01*
X0418502D01*
X0419027Y0288254D01*
Y0287729D01*
X0418502Y0287204D01*
X0417978D01*
X0418502D01*
X0419027Y0286679D01*
Y0286155D01*
X0418502Y0285630D01*
X0417453D01*
X0416928Y0286155D01*
X0420077Y0288778D02*
Y0286679D01*
X0421126Y0285630D01*
X0422176Y0286679D01*
Y0288778D01*
X0420079Y0300589D02*
Y0298491D01*
X0421128Y0297441D01*
X0422178Y0298491D01*
Y0300589D01*
X0423227D02*
Y0297441D01*
X0424802D01*
X0425326Y0297966D01*
Y0298491D01*
X0424802Y0299015D01*
X0423227D01*
X0424802D01*
X0425326Y0299540D01*
Y0300065D01*
X0424802Y0300589D01*
X0423227D01*
X0426376Y0297441D02*
Y0299540D01*
X0427425Y0300589D01*
X0428475Y0299540D01*
Y0297441D01*
Y0299015D01*
X0426376D01*
X0429525Y0300589D02*
X0431624D01*
X0430574D01*
Y0297441D01*
X0448556Y0296128D02*
X0448031Y0296653D01*
X0446981D01*
X0446457Y0296128D01*
Y0294029D01*
X0446981Y0293504D01*
X0448031D01*
X0448556Y0294029D01*
Y0295078D01*
X0447506D01*
X0449605Y0293504D02*
Y0296653D01*
X0451704Y0293504D01*
Y0296653D01*
X0452754D02*
Y0293504D01*
X0454328D01*
X0454853Y0294029D01*
Y0296128D01*
X0454328Y0296653D01*
X0452754D01*
X0318898Y0387204D02*
Y0384055D01*
X0320997D01*
X0322046Y0387204D02*
X0323096D01*
X0322571D01*
Y0384055D01*
X0322046D01*
X0323096D01*
X0326769Y0386679D02*
X0326244Y0387204D01*
X0325195D01*
X0324670Y0386679D01*
Y0384580D01*
X0325195Y0384055D01*
X0326244D01*
X0326769Y0384580D01*
Y0385629D01*
X0325720D01*
X0327819Y0387204D02*
Y0384055D01*
Y0385629D01*
X0329918D01*
Y0387204D01*
Y0384055D01*
X0330967Y0387204D02*
X0333066D01*
X0332017D01*
Y0384055D01*
X0316535Y0352558D02*
Y0349934D01*
X0317060Y0349410D01*
X0318110D01*
X0318635Y0349934D01*
Y0352558D01*
X0321783Y0352033D02*
X0321258Y0352558D01*
X0320209D01*
X0319684Y0352033D01*
Y0351508D01*
X0320209Y0350984D01*
X0321258D01*
X0321783Y0350459D01*
Y0349934D01*
X0321258Y0349410D01*
X0320209D01*
X0319684Y0349934D01*
X0324932Y0352558D02*
X0322833D01*
Y0349410D01*
X0324932D01*
X0322833Y0350984D02*
X0323882D01*
X0325981Y0349410D02*
Y0352558D01*
X0327555D01*
X0328080Y0352033D01*
Y0350984D01*
X0327555Y0350459D01*
X0325981D01*
X0327031D02*
X0328080Y0349410D01*
X0319685Y0382086D02*
Y0378937D01*
X0321259D01*
X0321784Y0379462D01*
Y0379987D01*
X0321259Y0380511D01*
X0319685D01*
X0321259D01*
X0321784Y0381036D01*
Y0381561D01*
X0321259Y0382086D01*
X0319685D01*
X0322834D02*
X0324933D01*
X0323883D01*
Y0378937D01*
X0325982D02*
Y0382086D01*
X0328081Y0378937D01*
Y0382086D01*
D46*
X0432874Y0409252D02*
D03*
M02*
