G04 Layer_Color=16711935*
%FSAX25Y25*%
%MOIN*%
G70*
G01*
G75*
%ADD32C,0.01969*%
%ADD33C,0.01000*%
%ADD43C,0.02756*%
%ADD44C,0.00787*%
%ADD46C,0.00394*%
D32*
X0344486Y0356866D02*
G03*
X0344486Y0356866I-0000687J0000000D01*
G01*
X0414110Y0333279D02*
G03*
X0414110Y0333279I-0000500J0000000D01*
G01*
D33*
X0394488Y0358465D02*
Y0372638D01*
X0386614Y0358465D02*
X0394488D01*
X0386614D02*
Y0372638D01*
X0394488D01*
X0373622Y0345472D02*
X0387795D01*
X0373622D02*
Y0353346D01*
X0387795D01*
Y0345472D02*
Y0353346D01*
X0422047Y0370669D02*
Y0384842D01*
X0414173Y0370669D02*
X0422047D01*
X0414173D02*
Y0384842D01*
X0422047D01*
X0427165Y0358858D02*
X0435039D01*
Y0373031D01*
X0427165D02*
X0435039D01*
X0427165Y0358858D02*
Y0373031D01*
X0433071Y0337992D02*
Y0344291D01*
X0431890Y0337992D02*
Y0344291D01*
Y0337992D02*
X0444882D01*
Y0344291D01*
X0431890D02*
X0444882D01*
X0426772Y0302953D02*
Y0317126D01*
X0418898Y0302953D02*
X0426772D01*
X0418898D02*
Y0317126D01*
X0426772D01*
X0417717Y0302953D02*
Y0317126D01*
X0409842Y0302953D02*
X0417717D01*
X0409842D02*
Y0317126D01*
X0417717D01*
X0408661Y0302953D02*
Y0317126D01*
X0400787Y0302953D02*
X0408661D01*
X0400787D02*
Y0317126D01*
X0408661D01*
X0399606Y0302953D02*
Y0317126D01*
X0391732Y0302953D02*
X0399606D01*
X0391732D02*
Y0317126D01*
X0399606D01*
X0390551Y0302953D02*
Y0317126D01*
X0382677Y0302953D02*
X0390551D01*
X0382677D02*
Y0317126D01*
X0390551D01*
X0381496Y0302953D02*
Y0317126D01*
X0373622Y0302953D02*
X0381496D01*
X0373622D02*
Y0317126D01*
X0381496D01*
X0372441Y0302953D02*
Y0317126D01*
X0364567Y0302953D02*
X0372441D01*
X0364567D02*
Y0317126D01*
X0372441D01*
X0355512Y0302953D02*
Y0317126D01*
X0363386D01*
Y0302953D02*
Y0317126D01*
X0355512Y0302953D02*
X0363386D01*
X0346457D02*
Y0317126D01*
X0354331D01*
Y0302953D02*
Y0317126D01*
X0346457Y0302953D02*
X0354331D01*
X0415748Y0274213D02*
X0423622D01*
Y0288386D01*
X0415748D02*
X0423622D01*
X0415748Y0274213D02*
Y0288386D01*
X0329921Y0273622D02*
Y0287795D01*
X0337795D01*
Y0273622D02*
Y0287795D01*
X0329921Y0273622D02*
X0337795D01*
X0320866Y0273819D02*
Y0287992D01*
X0328740D01*
Y0273819D02*
Y0287992D01*
X0320866Y0273819D02*
X0328740D01*
X0461242Y0329885D02*
X0460242Y0328885D01*
Y0326886D01*
X0461242Y0325886D01*
X0465240D01*
X0466240Y0326886D01*
Y0328885D01*
X0465240Y0329885D01*
X0460242Y0334883D02*
Y0332884D01*
X0461242Y0331884D01*
X0465240D01*
X0466240Y0332884D01*
Y0334883D01*
X0465240Y0335883D01*
X0461242D01*
X0460242Y0334883D01*
X0466240Y0337882D02*
X0460242D01*
X0466240Y0341881D01*
X0460242D01*
X0466240Y0343880D02*
Y0345879D01*
Y0344880D01*
X0460242D01*
X0461242Y0343880D01*
D43*
X0320079Y0361614D02*
G03*
X0320079Y0361614I-0000394J0000000D01*
G01*
D44*
X0473721Y0318799D02*
Y0348721D01*
X0452264Y0318799D02*
Y0348721D01*
Y0318799D02*
X0473721D01*
X0452264Y0348721D02*
X0473721D01*
X0348299Y0349089D02*
Y0345153D01*
X0349086Y0344366D01*
X0350661D01*
X0351448Y0345153D01*
Y0349089D01*
X0353022Y0348302D02*
X0353809Y0349089D01*
X0355383D01*
X0356171Y0348302D01*
Y0347515D01*
X0355383Y0346728D01*
X0354596D01*
X0355383D01*
X0356171Y0345940D01*
Y0345153D01*
X0355383Y0344366D01*
X0353809D01*
X0353022Y0345153D01*
X0415387Y0334279D02*
X0419323D01*
X0420110Y0335067D01*
Y0336641D01*
X0419323Y0337428D01*
X0415387D01*
X0420110Y0339002D02*
Y0340577D01*
Y0339790D01*
X0415387D01*
X0416175Y0339002D01*
X0434251Y0278936D02*
X0432677D01*
X0433464D01*
Y0275000D01*
X0432677Y0274213D01*
X0431889D01*
X0431102Y0275000D01*
X0435825Y0274213D02*
X0437399D01*
X0436612D01*
Y0278936D01*
X0435825Y0278148D01*
X0370570Y0264467D02*
X0369783Y0265254D01*
X0368208D01*
X0367421Y0264467D01*
Y0261319D01*
X0368208Y0260531D01*
X0369783D01*
X0370570Y0261319D01*
X0374506Y0265254D02*
X0372931D01*
X0372144Y0264467D01*
Y0261319D01*
X0372931Y0260531D01*
X0374506D01*
X0375293Y0261319D01*
Y0264467D01*
X0374506Y0265254D01*
X0376867Y0260531D02*
Y0265254D01*
X0380016Y0260531D01*
Y0265254D01*
X0384738Y0260531D02*
X0381590D01*
X0384738Y0263680D01*
Y0264467D01*
X0383951Y0265254D01*
X0382377D01*
X0381590Y0264467D01*
X0381104Y0355315D02*
X0385827D01*
Y0352954D01*
X0385040Y0352166D01*
X0384253D01*
X0383465Y0352954D01*
Y0355315D01*
Y0352954D01*
X0382678Y0352166D01*
X0381891D01*
X0381104Y0352954D01*
Y0355315D01*
Y0350592D02*
X0385040D01*
X0385827Y0349805D01*
Y0348231D01*
X0385040Y0347444D01*
X0381104D01*
Y0345869D02*
Y0342721D01*
X0381891D01*
X0385040Y0345869D01*
X0385827D01*
Y0342721D01*
Y0341146D02*
Y0339572D01*
Y0340359D01*
X0381104D01*
X0381891Y0341146D01*
D46*
X0429134Y0347441D02*
G03*
X0429134Y0347441I-0047244J0000000D01*
G01*
X0340799Y0331866D02*
Y0359866D01*
X0371799Y0331866D02*
Y0359866D01*
X0340799D02*
X0371799D01*
X0340799Y0331866D02*
X0371799D01*
X0350787Y0377362D02*
X0358661D01*
Y0390748D01*
X0350787D02*
X0358661D01*
X0350787Y0377362D02*
Y0390748D01*
X0337795Y0390354D02*
X0345669D01*
X0337795Y0376969D02*
Y0390354D01*
Y0376969D02*
X0345669D01*
Y0390354D01*
X0321654Y0347835D02*
Y0355709D01*
X0308268D02*
X0321654D01*
X0308268Y0347835D02*
Y0355709D01*
Y0347835D02*
X0321654D01*
X0324410Y0362008D02*
X0332283D01*
X0324410Y0348622D02*
Y0362008D01*
Y0348622D02*
X0332283D01*
Y0362008D01*
X0307087Y0372638D02*
X0322047D01*
X0307087Y0359252D02*
X0322047D01*
X0307087D02*
Y0372638D01*
X0322047Y0359252D02*
Y0372638D01*
X0308661Y0376181D02*
Y0384055D01*
Y0376181D02*
X0322047D01*
Y0384055D01*
X0308661D02*
X0322047D01*
X0288189Y0389173D02*
X0304331D01*
Y0341929D02*
Y0389173D01*
X0288189Y0341929D02*
X0304331D01*
X0288189D02*
Y0389173D01*
X0302756Y0397047D02*
Y0413189D01*
X0350000D01*
Y0397047D02*
Y0413189D01*
X0302756Y0397047D02*
X0350000D01*
X0414173D02*
Y0413189D01*
X0366929Y0397047D02*
X0414173D01*
X0366929D02*
Y0413189D01*
X0414173D01*
X0398031Y0332874D02*
Y0340748D01*
X0384646D02*
X0398031D01*
X0384646Y0332874D02*
Y0340748D01*
Y0332874D02*
X0398031D01*
X0438976Y0356102D02*
X0472047D01*
Y0397835D01*
X0438976D02*
X0472047D01*
X0438976Y0356102D02*
Y0397835D01*
X0412598Y0349606D02*
Y0355512D01*
Y0349606D02*
X0423622D01*
Y0355512D01*
X0412598D02*
X0423622D01*
X0438189Y0331496D02*
Y0337402D01*
X0427165D02*
X0438189D01*
X0427165Y0331496D02*
Y0337402D01*
Y0331496D02*
X0438189D01*
X0424213Y0330279D02*
Y0347280D01*
X0412008Y0330279D02*
Y0347280D01*
X0424213D01*
X0412008Y0330279D02*
X0424213D01*
X0425984Y0256102D02*
Y0295079D01*
Y0256102D02*
X0453543D01*
Y0295079D01*
X0425984D02*
X0453543D01*
X0338484Y0252559D02*
X0419095D01*
X0338484D02*
Y0272638D01*
X0338386Y0272736D02*
X0338484Y0272638D01*
X0338386Y0272736D02*
X0348721D01*
Y0275197D01*
X0408760D01*
Y0272736D02*
Y0275197D01*
Y0272736D02*
X0418996D01*
X0419095Y0272638D01*
Y0252559D02*
Y0272638D01*
X0355906Y0380118D02*
X0352757D01*
Y0381692D01*
X0353282Y0382217D01*
X0354331D01*
X0354856Y0381692D01*
Y0380118D01*
Y0381168D02*
X0355906Y0382217D01*
X0353282Y0383267D02*
X0352757Y0383791D01*
Y0384841D01*
X0353282Y0385366D01*
X0353806D01*
X0354331Y0384841D01*
Y0384316D01*
Y0384841D01*
X0354856Y0385366D01*
X0355381D01*
X0355906Y0384841D01*
Y0383791D01*
X0355381Y0383267D01*
X0340551Y0387598D02*
X0343700D01*
Y0386024D01*
X0343175Y0385499D01*
X0342126D01*
X0341601Y0386024D01*
Y0387598D01*
Y0386549D02*
X0340551Y0385499D01*
Y0382875D02*
X0343700D01*
X0342126Y0384450D01*
Y0382351D01*
X0318898Y0352953D02*
Y0349804D01*
X0317323D01*
X0316799Y0350329D01*
Y0351378D01*
X0317323Y0351903D01*
X0318898D01*
X0317848D02*
X0316799Y0352953D01*
X0313650Y0349804D02*
X0314700Y0350329D01*
X0315749Y0351378D01*
Y0352428D01*
X0315224Y0352953D01*
X0314175D01*
X0313650Y0352428D01*
Y0351903D01*
X0314175Y0351378D01*
X0315749D01*
X0330314Y0357153D02*
Y0358202D01*
Y0357678D01*
X0327690D01*
X0327165Y0358202D01*
Y0358727D01*
X0327690Y0359252D01*
X0327165Y0356103D02*
X0330314D01*
X0329264Y0355054D01*
X0330314Y0354004D01*
X0327165D01*
Y0352955D02*
X0330314D01*
Y0351380D01*
X0329789Y0350856D01*
X0328740D01*
X0328215Y0351380D01*
Y0352955D01*
X0320079Y0364765D02*
X0317980D01*
X0319029D01*
Y0367913D01*
X0316930D02*
X0315881D01*
X0316405D01*
Y0364765D01*
X0316930Y0365290D01*
X0311417Y0378937D02*
Y0382086D01*
X0312992D01*
X0313516Y0381561D01*
Y0380511D01*
X0312992Y0379987D01*
X0311417D01*
X0312467D02*
X0313516Y0378937D01*
X0316665Y0382086D02*
X0314566D01*
Y0380511D01*
X0315615Y0381036D01*
X0316140D01*
X0316665Y0380511D01*
Y0379462D01*
X0316140Y0378937D01*
X0315091D01*
X0314566Y0379462D01*
X0295014Y0359383D02*
X0294489Y0358858D01*
Y0357808D01*
X0295014Y0357283D01*
X0295539D01*
X0296063Y0357808D01*
Y0358858D01*
X0296588Y0359383D01*
X0297113D01*
X0297638Y0358858D01*
Y0357808D01*
X0297113Y0357283D01*
X0294489Y0360432D02*
X0297638D01*
X0296588Y0361482D01*
X0297638Y0362531D01*
X0294489D01*
X0297638Y0365155D02*
X0294489D01*
X0296063Y0363581D01*
Y0365680D01*
X0332547Y0403872D02*
X0333071Y0403347D01*
X0334121D01*
X0334646Y0403872D01*
Y0404397D01*
X0334121Y0404922D01*
X0333071D01*
X0332547Y0405446D01*
Y0405971D01*
X0333071Y0406496D01*
X0334121D01*
X0334646Y0405971D01*
X0331497Y0403347D02*
Y0406496D01*
X0330448Y0405446D01*
X0329398Y0406496D01*
Y0403347D01*
X0326249Y0406496D02*
X0328348D01*
X0326249Y0404397D01*
Y0403872D01*
X0326774Y0403347D01*
X0327824D01*
X0328348Y0403872D01*
X0384383Y0406364D02*
X0383858Y0406889D01*
X0382808D01*
X0382283Y0406364D01*
Y0405839D01*
X0382808Y0405314D01*
X0383858D01*
X0384383Y0404790D01*
Y0404265D01*
X0383858Y0403740D01*
X0382808D01*
X0382283Y0404265D01*
X0385432Y0406889D02*
Y0403740D01*
X0386482Y0404790D01*
X0387531Y0403740D01*
Y0406889D01*
X0388581Y0406364D02*
X0389105Y0406889D01*
X0390155D01*
X0390680Y0406364D01*
Y0405839D01*
X0390155Y0405314D01*
X0389630D01*
X0390155D01*
X0390680Y0404790D01*
Y0404265D01*
X0390155Y0403740D01*
X0389105D01*
X0388581Y0404265D01*
X0391675Y0367952D02*
X0392200Y0368477D01*
Y0369526D01*
X0391675Y0370051D01*
X0389576D01*
X0389051Y0369526D01*
Y0368477D01*
X0389576Y0367952D01*
X0389051Y0365328D02*
X0392200D01*
X0390626Y0366903D01*
Y0364804D01*
X0383110Y0348286D02*
X0383634Y0347761D01*
X0384684D01*
X0385209Y0348286D01*
Y0350385D01*
X0384684Y0350909D01*
X0383634D01*
X0383110Y0350385D01*
X0382060Y0350909D02*
X0381011D01*
X0381535D01*
Y0347761D01*
X0382060Y0348286D01*
X0377337Y0347761D02*
X0378387Y0348286D01*
X0379436Y0349335D01*
Y0350385D01*
X0378911Y0350909D01*
X0377862D01*
X0377337Y0350385D01*
Y0349860D01*
X0377862Y0349335D01*
X0379436D01*
X0393177Y0334843D02*
X0394226D01*
X0393701D01*
Y0337467D01*
X0394226Y0337992D01*
X0394751D01*
X0395276Y0337467D01*
X0392127Y0337992D02*
Y0334843D01*
X0391077Y0335893D01*
X0390028Y0334843D01*
Y0337992D01*
X0388978D02*
Y0334843D01*
X0387404D01*
X0386879Y0335368D01*
Y0336418D01*
X0387404Y0336943D01*
X0388978D01*
X0419234Y0380157D02*
X0419759Y0380682D01*
Y0381731D01*
X0419234Y0382256D01*
X0417135D01*
X0416610Y0381731D01*
Y0380682D01*
X0417135Y0380157D01*
X0419234Y0379107D02*
X0419759Y0378583D01*
Y0377533D01*
X0419234Y0377008D01*
X0418709D01*
X0418185Y0377533D01*
Y0378058D01*
Y0377533D01*
X0417660Y0377008D01*
X0417135D01*
X0416610Y0377533D01*
Y0378583D01*
X0417135Y0379107D01*
X0429979Y0363544D02*
X0429454Y0363019D01*
Y0361970D01*
X0429979Y0361445D01*
X0432078D01*
X0432602Y0361970D01*
Y0363019D01*
X0432078Y0363544D01*
X0432602Y0364594D02*
Y0365643D01*
Y0365118D01*
X0429454D01*
X0429979Y0364594D01*
X0456038Y0371981D02*
X0455513Y0371456D01*
Y0370407D01*
X0456038Y0369882D01*
X0456562D01*
X0457087Y0370407D01*
Y0371456D01*
X0457612Y0371981D01*
X0458137D01*
X0458661Y0371456D01*
Y0370407D01*
X0458137Y0369882D01*
X0455513Y0373030D02*
X0458661D01*
X0457612Y0374080D01*
X0458661Y0375130D01*
X0455513D01*
X0458661Y0376179D02*
Y0377229D01*
Y0376704D01*
X0455513D01*
X0456038Y0376179D01*
X0413779Y0350984D02*
Y0353346D01*
X0414960D01*
X0415354Y0352952D01*
Y0352165D01*
X0414960Y0351771D01*
X0413779D01*
X0414567D02*
X0415354Y0350984D01*
X0416141D02*
X0416928D01*
X0416535D01*
Y0353346D01*
X0416141Y0352952D01*
X0437008Y0336024D02*
Y0333662D01*
X0435827D01*
X0435434Y0334056D01*
Y0334843D01*
X0435827Y0335237D01*
X0437008D01*
X0436221D02*
X0435434Y0336024D01*
X0433072D02*
X0434646D01*
X0433072Y0334449D01*
Y0334056D01*
X0433466Y0333662D01*
X0434253D01*
X0434646Y0334056D01*
X0434646Y0342322D02*
Y0339961D01*
X0435826D01*
X0436220Y0340354D01*
Y0341929D01*
X0435826Y0342322D01*
X0434646D01*
X0437007Y0339961D02*
X0437794D01*
X0437401D01*
Y0342322D01*
X0437007Y0341929D01*
X0423958Y0312440D02*
X0424483Y0312965D01*
Y0314015D01*
X0423958Y0314539D01*
X0421859D01*
X0421335Y0314015D01*
Y0312965D01*
X0421859Y0312440D01*
X0421335Y0309292D02*
Y0311391D01*
X0423434Y0309292D01*
X0423958D01*
X0424483Y0309817D01*
Y0310866D01*
X0423958Y0311391D01*
X0414903Y0312440D02*
X0415428Y0312965D01*
Y0314015D01*
X0414903Y0314539D01*
X0412804D01*
X0412280Y0314015D01*
Y0312965D01*
X0412804Y0312440D01*
X0415428Y0309292D02*
Y0311391D01*
X0413854D01*
X0414379Y0310341D01*
Y0309817D01*
X0413854Y0309292D01*
X0412804D01*
X0412280Y0309817D01*
Y0310866D01*
X0412804Y0311391D01*
X0405848Y0312440D02*
X0406373Y0312965D01*
Y0314015D01*
X0405848Y0314539D01*
X0403749D01*
X0403224Y0314015D01*
Y0312965D01*
X0403749Y0312440D01*
X0406373Y0311391D02*
Y0309292D01*
X0405848D01*
X0403749Y0311391D01*
X0403224D01*
X0396793Y0312440D02*
X0397318Y0312965D01*
Y0314015D01*
X0396793Y0314539D01*
X0394694D01*
X0394169Y0314015D01*
Y0312965D01*
X0394694Y0312440D01*
X0394169Y0311391D02*
Y0310341D01*
Y0310866D01*
X0397318D01*
X0396793Y0311391D01*
Y0308767D02*
X0397318Y0308242D01*
Y0307193D01*
X0396793Y0306668D01*
X0394694D01*
X0394169Y0307193D01*
Y0308242D01*
X0394694Y0308767D01*
X0396793D01*
X0387738Y0312440D02*
X0388263Y0312965D01*
Y0314015D01*
X0387738Y0314539D01*
X0385639D01*
X0385114Y0314015D01*
Y0312965D01*
X0385639Y0312440D01*
X0385114Y0311391D02*
Y0310341D01*
Y0310866D01*
X0388263D01*
X0387738Y0311391D01*
X0385114Y0306668D02*
Y0308767D01*
X0387213Y0306668D01*
X0387738D01*
X0388263Y0307193D01*
Y0308242D01*
X0387738Y0308767D01*
X0378683Y0312440D02*
X0379208Y0312965D01*
Y0314015D01*
X0378683Y0314539D01*
X0376584D01*
X0376059Y0314015D01*
Y0312965D01*
X0376584Y0312440D01*
X0376059Y0311391D02*
Y0310341D01*
Y0310866D01*
X0379208D01*
X0378683Y0311391D01*
X0379208Y0306668D02*
Y0308767D01*
X0377633D01*
X0378158Y0307717D01*
Y0307193D01*
X0377633Y0306668D01*
X0376584D01*
X0376059Y0307193D01*
Y0308242D01*
X0376584Y0308767D01*
X0369628Y0312440D02*
X0370152Y0312965D01*
Y0314015D01*
X0369628Y0314539D01*
X0367529D01*
X0367004Y0314015D01*
Y0312965D01*
X0367529Y0312440D01*
X0367004Y0311391D02*
Y0310341D01*
Y0310866D01*
X0370152D01*
X0369628Y0311391D01*
Y0308767D02*
X0370152Y0308242D01*
Y0307193D01*
X0369628Y0306668D01*
X0369103D01*
X0368578Y0307193D01*
Y0307717D01*
Y0307193D01*
X0368054Y0306668D01*
X0367529D01*
X0367004Y0307193D01*
Y0308242D01*
X0367529Y0308767D01*
X0358325Y0307638D02*
X0357800Y0307114D01*
Y0306064D01*
X0358325Y0305539D01*
X0360424D01*
X0360949Y0306064D01*
Y0307114D01*
X0360424Y0307638D01*
X0358325Y0308688D02*
X0357800Y0309213D01*
Y0310262D01*
X0358325Y0310787D01*
X0358850D01*
X0359374Y0310262D01*
X0359899Y0310787D01*
X0360424D01*
X0360949Y0310262D01*
Y0309213D01*
X0360424Y0308688D01*
X0359899D01*
X0359374Y0309213D01*
X0358850Y0308688D01*
X0358325D01*
X0359374Y0309213D02*
Y0310262D01*
X0349270Y0307638D02*
X0348745Y0307114D01*
Y0306064D01*
X0349270Y0305539D01*
X0351369D01*
X0351894Y0306064D01*
Y0307114D01*
X0351369Y0307638D01*
X0348745Y0310787D02*
X0349270Y0309737D01*
X0350319Y0308688D01*
X0351369D01*
X0351894Y0309213D01*
Y0310262D01*
X0351369Y0310787D01*
X0350844D01*
X0350319Y0310262D01*
Y0308688D01*
X0418561Y0278898D02*
X0418036Y0278374D01*
Y0277324D01*
X0418561Y0276799D01*
X0420660D01*
X0421185Y0277324D01*
Y0278374D01*
X0420660Y0278898D01*
X0421185Y0279948D02*
Y0280997D01*
Y0280473D01*
X0418036D01*
X0418561Y0279948D01*
X0421185Y0282572D02*
Y0283621D01*
Y0283096D01*
X0418036D01*
X0418561Y0282572D01*
X0332734Y0278308D02*
X0332210Y0277783D01*
Y0276733D01*
X0332734Y0276209D01*
X0334834D01*
X0335358Y0276733D01*
Y0277783D01*
X0334834Y0278308D01*
Y0279357D02*
X0335358Y0279882D01*
Y0280932D01*
X0334834Y0281456D01*
X0332734D01*
X0332210Y0280932D01*
Y0279882D01*
X0332734Y0279357D01*
X0333259D01*
X0333784Y0279882D01*
Y0281456D01*
X0323679Y0278505D02*
X0323155Y0277980D01*
Y0276930D01*
X0323679Y0276406D01*
X0325778D01*
X0326303Y0276930D01*
Y0277980D01*
X0325778Y0278505D01*
X0326303Y0279554D02*
Y0280604D01*
Y0280079D01*
X0323155D01*
X0323679Y0279554D01*
X0326303Y0283752D02*
X0323155D01*
X0324729Y0282178D01*
Y0284277D01*
M02*
