G04 Layer_Color=16711935*
%FSAX25Y25*%
%MOIN*%
G70*
G01*
G75*
%ADD29C,0.06693*%
%ADD30C,0.08268*%
%ADD55C,0.06706*%
%ADD62R,0.06706X0.06706*%
%ADD63R,0.06706X0.06706*%
%ADD64C,0.07493*%
%ADD65R,0.06115X0.06115*%
%ADD66C,0.06115*%
%ADD67C,0.10249*%
%ADD68C,0.00800*%
%ADD69C,0.08280*%
%ADD70R,0.08280X0.08280*%
%ADD71O,0.07099X0.04737*%
%ADD72R,0.00800X0.00800*%
%ADD73O,0.09461X0.08674*%
%ADD74C,0.13398*%
D29*
X0299429Y0370079D02*
D03*
Y0387795D02*
D03*
X0299823Y0340158D02*
D03*
Y0322441D02*
D03*
D30*
X0309232Y0365158D02*
D03*
Y0392717D02*
D03*
X0309626Y0345079D02*
D03*
Y0317520D02*
D03*
D55*
X0409449Y0378780D02*
D03*
Y0388779D02*
D03*
Y0398780D02*
D03*
X0376299Y0250590D02*
D03*
X0366299D02*
D03*
X0356299D02*
D03*
X0346299D02*
D03*
X0336299D02*
D03*
X0326299D02*
D03*
X0316299D02*
D03*
X0459720Y0378685D02*
D03*
Y0370811D02*
D03*
Y0362937D02*
D03*
D62*
X0409449Y0368779D02*
D03*
D63*
X0386299Y0250590D02*
D03*
D64*
X0356693Y0302953D02*
D03*
X0396063D02*
D03*
D65*
X0338799Y0372224D02*
D03*
D66*
X0348799D02*
D03*
X0358799D02*
D03*
X0368799D02*
D03*
X0343799Y0362224D02*
D03*
X0353799D02*
D03*
X0363799D02*
D03*
X0373799D02*
D03*
D67*
X0325925Y0409035D02*
D03*
X0386673D02*
D03*
D68*
X0333799Y0397224D02*
D03*
X0378799D02*
D03*
D69*
X0426378Y0255709D02*
D03*
D70*
X0440158D02*
D03*
D71*
X0465844Y0316043D02*
D03*
Y0338681D02*
D03*
D72*
X0457380Y0319378D02*
D03*
Y0335323D02*
D03*
D73*
X0459720Y0386953D02*
D03*
Y0354669D02*
D03*
D74*
X0294291Y0250000D02*
D03*
X0463189D02*
D03*
Y0407087D02*
D03*
X0294291D02*
D03*
M02*
