G04 Layer_Color=16711935*
%FSAX25Y25*%
%MOIN*%
G70*
G01*
G75*
%ADD42C,0.00787*%
%ADD75C,0.01000*%
%ADD77C,0.00600*%
D42*
X0454331Y0241142D02*
Y0257677D01*
X0303150D02*
X0454331D01*
X0303150Y0241142D02*
Y0257677D01*
D75*
X0455724D02*
X0487220D01*
X0455724Y0241142D02*
X0487220D01*
X0486221Y0231142D02*
Y0241142D01*
Y0257677D02*
Y0267677D01*
X0484221Y0235142D02*
X0486221Y0241142D01*
X0488221Y0235142D01*
X0486221Y0257677D02*
X0488221Y0263677D01*
X0484221D02*
X0486221Y0257677D01*
X0294291Y0414786D02*
Y0429543D01*
X0463189Y0414786D02*
Y0429543D01*
X0294291Y0428543D02*
X0362045D01*
X0392236D02*
X0463189D01*
X0294291D02*
X0300291Y0426543D01*
X0294291Y0428543D02*
X0300291Y0430543D01*
X0457189D02*
X0463189Y0428543D01*
X0457189Y0426543D02*
X0463189Y0428543D01*
X0472047Y0409465D02*
Y0439780D01*
X0285433Y0409465D02*
Y0439780D01*
X0392236Y0438779D02*
X0472047D01*
X0285433D02*
X0362045D01*
X0466047Y0440779D02*
X0472047Y0438779D01*
X0466047Y0436779D02*
X0472047Y0438779D01*
X0285433D02*
X0291433Y0436779D01*
X0285433Y0438779D02*
X0291433Y0440779D01*
X0260417Y0415945D02*
X0291913D01*
X0260417Y0241142D02*
X0291913D01*
X0261417Y0342039D02*
Y0415945D01*
Y0241142D02*
Y0311848D01*
X0259417Y0409945D02*
X0261417Y0415945D01*
X0263417Y0409945D01*
X0261417Y0241142D02*
X0263417Y0247142D01*
X0259417D02*
X0261417Y0241142D01*
X0271441Y0250000D02*
X0286592D01*
X0271441Y0407087D02*
X0286592D01*
X0272441Y0250000D02*
Y0311848D01*
Y0342039D02*
Y0407087D01*
Y0250000D02*
X0274441Y0256000D01*
X0270441D02*
X0272441Y0250000D01*
X0270441Y0401087D02*
X0272441Y0407087D01*
X0274441Y0401087D01*
D77*
X0500617Y0240312D02*
X0494619D01*
X0497618Y0237313D01*
Y0241312D01*
X0500617Y0243311D02*
X0499617D01*
Y0244311D01*
X0500617D01*
Y0243311D01*
Y0252308D02*
Y0248309D01*
X0496618Y0252308D01*
X0495618D01*
X0494619Y0251308D01*
Y0249309D01*
X0495618Y0248309D01*
Y0254307D02*
X0494619Y0255307D01*
Y0257306D01*
X0495618Y0258306D01*
X0499617D01*
X0500617Y0257306D01*
Y0255307D01*
X0499617Y0254307D01*
X0495618D01*
X0366644Y0424944D02*
Y0430942D01*
X0363645Y0427943D01*
X0367643D01*
X0373641Y0424944D02*
X0369643D01*
X0373641Y0428943D01*
Y0429943D01*
X0372642Y0430942D01*
X0370642D01*
X0369643Y0429943D01*
X0375641Y0424944D02*
Y0425944D01*
X0376640D01*
Y0424944D01*
X0375641D01*
X0380639Y0425944D02*
X0381639Y0424944D01*
X0383638D01*
X0384638Y0425944D01*
Y0429943D01*
X0383638Y0430942D01*
X0381639D01*
X0380639Y0429943D01*
Y0428943D01*
X0381639Y0427943D01*
X0384638D01*
X0386637Y0429943D02*
X0387637Y0430942D01*
X0389636D01*
X0390636Y0429943D01*
Y0425944D01*
X0389636Y0424944D01*
X0387637D01*
X0386637Y0425944D01*
Y0429943D01*
X0366644Y0435181D02*
Y0441179D01*
X0363645Y0438179D01*
X0367643D01*
X0369643Y0441179D02*
X0373641D01*
Y0440179D01*
X0369643Y0436180D01*
Y0435181D01*
X0375641D02*
Y0436180D01*
X0376640D01*
Y0435181D01*
X0375641D01*
X0383638D02*
Y0441179D01*
X0380639Y0438179D01*
X0384638D01*
X0386637Y0440179D02*
X0387637Y0441179D01*
X0389636D01*
X0390636Y0440179D01*
Y0436180D01*
X0389636Y0435181D01*
X0387637D01*
X0386637Y0436180D01*
Y0440179D01*
X0265016Y0316447D02*
X0259018D01*
X0262017Y0313448D01*
Y0317446D01*
X0265016Y0322445D02*
X0259018D01*
X0262017Y0319446D01*
Y0323444D01*
X0265016Y0325444D02*
X0264017D01*
Y0326444D01*
X0265016D01*
Y0325444D01*
Y0333441D02*
X0259018D01*
X0262017Y0330442D01*
Y0334441D01*
X0260018Y0336440D02*
X0259018Y0337440D01*
Y0339439D01*
X0260018Y0340439D01*
X0264017D01*
X0265016Y0339439D01*
Y0337440D01*
X0264017Y0336440D01*
X0260018D01*
X0271042Y0313448D02*
X0270042Y0314447D01*
Y0316447D01*
X0271042Y0317446D01*
X0272041D01*
X0273041Y0316447D01*
Y0315447D01*
Y0316447D01*
X0274041Y0317446D01*
X0275040D01*
X0276040Y0316447D01*
Y0314447D01*
X0275040Y0313448D01*
Y0319446D02*
X0276040Y0320445D01*
Y0322445D01*
X0275040Y0323444D01*
X0271042D01*
X0270042Y0322445D01*
Y0320445D01*
X0271042Y0319446D01*
X0272041D01*
X0273041Y0320445D01*
Y0323444D01*
X0276040Y0325444D02*
X0275040D01*
Y0326444D01*
X0276040D01*
Y0325444D01*
X0275040Y0330442D02*
X0276040Y0331442D01*
Y0333441D01*
X0275040Y0334441D01*
X0271042D01*
X0270042Y0333441D01*
Y0331442D01*
X0271042Y0330442D01*
X0272041D01*
X0273041Y0331442D01*
Y0334441D01*
X0271042Y0336440D02*
X0270042Y0337440D01*
Y0339439D01*
X0271042Y0340439D01*
X0275040D01*
X0276040Y0339439D01*
Y0337440D01*
X0275040Y0336440D01*
X0271042D01*
M02*
