G04 Layer_Color=8421504*
%FSAX25Y25*%
%MOIN*%
G70*
G01*
G75*
%ADD10R,0.05906X0.07874*%
%ADD11R,0.05512X0.01772*%
%ADD12R,0.05906X0.03150*%
%ADD13R,0.03150X0.05906*%
%ADD14R,0.06102X0.02165*%
%ADD15R,0.06299X0.08307*%
%ADD16R,0.08307X0.06299*%
%ADD17C,0.05906*%
%ADD18R,0.03937X0.02559*%
%ADD19R,0.05118X0.03543*%
%ADD20R,0.03543X0.05118*%
%ADD21R,0.07480X0.09055*%
%ADD22R,0.05512X0.06299*%
%ADD24R,0.05512X0.01575*%
%ADD25R,0.02362X0.03543*%
%ADD26R,0.02362X0.04134*%
%ADD27R,0.03150X0.03150*%
%ADD28R,0.05906X0.13386*%
%ADD29R,0.03937X0.13780*%
%ADD30R,0.09055X0.12205*%
%ADD31R,0.01181X0.04331*%
D10*
X0340158Y0365158D02*
D03*
X0349606D02*
D03*
D11*
X0344685Y0357382D02*
D03*
Y0354823D02*
D03*
Y0352264D02*
D03*
Y0349705D02*
D03*
Y0347146D02*
D03*
Y0344587D02*
D03*
Y0342028D02*
D03*
Y0339469D02*
D03*
Y0336910D02*
D03*
Y0334350D02*
D03*
X0367913Y0357382D02*
D03*
Y0354823D02*
D03*
Y0352264D02*
D03*
Y0349705D02*
D03*
Y0347146D02*
D03*
Y0344587D02*
D03*
Y0342028D02*
D03*
Y0339469D02*
D03*
Y0336910D02*
D03*
Y0334350D02*
D03*
D12*
X0354724Y0387992D02*
D03*
Y0380118D02*
D03*
X0341732Y0379724D02*
D03*
Y0387598D02*
D03*
X0328346Y0351378D02*
D03*
Y0359252D02*
D03*
D13*
X0311024Y0351772D02*
D03*
X0318898D02*
D03*
X0319291Y0380118D02*
D03*
X0311417D02*
D03*
X0387402Y0336811D02*
D03*
X0395276D02*
D03*
D14*
X0310925Y0365945D02*
D03*
X0318209Y0369685D02*
D03*
Y0362205D02*
D03*
D15*
X0296063Y0383484D02*
D03*
Y0347618D02*
D03*
D16*
X0308445Y0404921D02*
D03*
X0344311D02*
D03*
X0408484Y0405315D02*
D03*
X0372618D02*
D03*
D17*
X0395276Y0352165D02*
D03*
X0455905Y0302953D02*
D03*
X0439764Y0308465D02*
D03*
D18*
X0408268Y0364764D02*
D03*
X0398819Y0361024D02*
D03*
Y0368504D02*
D03*
D19*
X0390551Y0369291D02*
D03*
Y0361811D02*
D03*
X0418110Y0381496D02*
D03*
Y0374016D02*
D03*
X0431102Y0369685D02*
D03*
Y0362205D02*
D03*
X0422835Y0313779D02*
D03*
Y0306299D02*
D03*
X0413779Y0313779D02*
D03*
Y0306299D02*
D03*
X0404724Y0313779D02*
D03*
Y0306299D02*
D03*
X0395669Y0313779D02*
D03*
Y0306299D02*
D03*
X0386614Y0313779D02*
D03*
Y0306299D02*
D03*
X0377559Y0313779D02*
D03*
Y0306299D02*
D03*
X0368504Y0313779D02*
D03*
Y0306299D02*
D03*
X0359449Y0306299D02*
D03*
Y0313779D02*
D03*
X0350394Y0306299D02*
D03*
Y0313779D02*
D03*
X0419685Y0285039D02*
D03*
Y0277559D02*
D03*
X0333858Y0276969D02*
D03*
Y0284449D02*
D03*
X0324803Y0277165D02*
D03*
Y0284646D02*
D03*
D20*
X0384449Y0349410D02*
D03*
X0376969D02*
D03*
D21*
X0464173Y0348524D02*
D03*
Y0318996D02*
D03*
D22*
X0453839Y0321161D02*
D03*
Y0346358D02*
D03*
D24*
X0452953Y0328642D02*
D03*
Y0331201D02*
D03*
Y0333760D02*
D03*
Y0336319D02*
D03*
Y0338878D02*
D03*
D25*
X0421063Y0352559D02*
D03*
X0415158D02*
D03*
X0429724Y0334449D02*
D03*
X0435630D02*
D03*
D26*
X0414370Y0344390D02*
D03*
X0421850D02*
D03*
Y0333169D02*
D03*
X0418110D02*
D03*
X0414370D02*
D03*
D27*
X0435827Y0341142D02*
D03*
X0442126D02*
D03*
D28*
X0430512Y0264567D02*
D03*
X0449016D02*
D03*
D29*
X0443701Y0286417D02*
D03*
X0435827D02*
D03*
D30*
X0413878Y0264764D02*
D03*
X0343602D02*
D03*
D31*
X0407283Y0271850D02*
D03*
X0405315D02*
D03*
X0403346D02*
D03*
X0401378D02*
D03*
X0399410D02*
D03*
X0397441D02*
D03*
X0395472D02*
D03*
X0393504D02*
D03*
X0391535D02*
D03*
X0389567D02*
D03*
X0387598D02*
D03*
X0385630D02*
D03*
X0383661D02*
D03*
X0381693D02*
D03*
X0379724D02*
D03*
X0377756D02*
D03*
X0375787D02*
D03*
X0373819D02*
D03*
X0371850D02*
D03*
X0369882D02*
D03*
X0367913D02*
D03*
X0365945D02*
D03*
X0363976D02*
D03*
X0362008D02*
D03*
X0360039D02*
D03*
X0358071D02*
D03*
X0356102D02*
D03*
X0354134D02*
D03*
X0352165D02*
D03*
X0350197D02*
D03*
M02*
