G04 Layer_Color=8388736*
%FSAX25Y25*%
%MOIN*%
G70*
G01*
G75*
%ADD48R,0.06706X0.08674*%
%ADD49R,0.06312X0.02572*%
%ADD50R,0.06706X0.03950*%
%ADD51R,0.03950X0.06706*%
%ADD52R,0.06902X0.02965*%
%ADD53R,0.07099X0.09107*%
%ADD54R,0.09107X0.07099*%
%ADD55C,0.06706*%
%ADD56R,0.04737X0.03359*%
%ADD57R,0.05918X0.04343*%
%ADD58R,0.04343X0.05918*%
%ADD59R,0.08280X0.09855*%
%ADD60R,0.06312X0.07099*%
%ADD61R,0.08280X0.06902*%
%ADD62R,0.05906X0.01969*%
%ADD63R,0.03162X0.04343*%
%ADD64R,0.03162X0.04934*%
%ADD65R,0.03950X0.03950*%
%ADD66R,0.06706X0.14186*%
%ADD67R,0.04737X0.14579*%
%ADD68R,0.09855X0.13005*%
%ADD69R,0.01981X0.05131*%
%ADD70R,0.06706X0.06706*%
%ADD71O,0.09461X0.08674*%
%ADD72R,0.06706X0.06706*%
%ADD73C,0.09461*%
%ADD74C,0.07493*%
D48*
X0340158Y0365158D02*
D03*
X0349606D02*
D03*
D49*
X0344685Y0357382D02*
D03*
Y0354823D02*
D03*
Y0352264D02*
D03*
Y0349705D02*
D03*
Y0347146D02*
D03*
Y0344587D02*
D03*
Y0342028D02*
D03*
Y0339469D02*
D03*
Y0336910D02*
D03*
Y0334350D02*
D03*
X0367913Y0357382D02*
D03*
Y0354823D02*
D03*
Y0352264D02*
D03*
Y0349705D02*
D03*
Y0347146D02*
D03*
Y0344587D02*
D03*
Y0342028D02*
D03*
Y0339469D02*
D03*
Y0336910D02*
D03*
Y0334350D02*
D03*
D50*
X0354724Y0387992D02*
D03*
Y0380118D02*
D03*
X0341732Y0379724D02*
D03*
Y0387598D02*
D03*
X0328346Y0351378D02*
D03*
Y0359252D02*
D03*
D51*
X0311024Y0351772D02*
D03*
X0318898D02*
D03*
X0319291Y0380118D02*
D03*
X0311417D02*
D03*
X0387402Y0336811D02*
D03*
X0395276D02*
D03*
D52*
X0310925Y0365945D02*
D03*
X0318209Y0369685D02*
D03*
Y0362205D02*
D03*
D53*
X0296063Y0383484D02*
D03*
Y0347618D02*
D03*
D54*
X0308445Y0404921D02*
D03*
X0344311D02*
D03*
X0408484Y0405315D02*
D03*
X0372618D02*
D03*
D55*
X0395276Y0352165D02*
D03*
X0455905Y0302953D02*
D03*
X0439764Y0308465D02*
D03*
X0303543Y0330669D02*
D03*
Y0320669D02*
D03*
Y0310669D02*
D03*
Y0300669D02*
D03*
Y0290669D02*
D03*
X0447638Y0384842D02*
D03*
Y0376969D02*
D03*
Y0369094D02*
D03*
X0444764Y0296417D02*
D03*
X0434764D02*
D03*
X0313386Y0265945D02*
D03*
X0376614Y0385236D02*
D03*
X0386614D02*
D03*
X0396614D02*
D03*
D56*
X0408268Y0364764D02*
D03*
X0398819Y0361024D02*
D03*
Y0368504D02*
D03*
D57*
X0390551Y0369291D02*
D03*
Y0361811D02*
D03*
X0418110Y0381496D02*
D03*
Y0374016D02*
D03*
X0431102Y0369685D02*
D03*
Y0362205D02*
D03*
X0422835Y0313779D02*
D03*
Y0306299D02*
D03*
X0413779Y0313779D02*
D03*
Y0306299D02*
D03*
X0404724Y0313779D02*
D03*
Y0306299D02*
D03*
X0395669Y0313779D02*
D03*
Y0306299D02*
D03*
X0386614Y0313779D02*
D03*
Y0306299D02*
D03*
X0377559Y0313779D02*
D03*
Y0306299D02*
D03*
X0368504Y0313779D02*
D03*
Y0306299D02*
D03*
X0359449Y0306299D02*
D03*
Y0313779D02*
D03*
X0350394Y0306299D02*
D03*
Y0313779D02*
D03*
X0419685Y0285039D02*
D03*
Y0277559D02*
D03*
X0333858Y0276969D02*
D03*
Y0284449D02*
D03*
X0324803Y0277165D02*
D03*
Y0284646D02*
D03*
D58*
X0384449Y0349410D02*
D03*
X0376969D02*
D03*
D59*
X0464173Y0348524D02*
D03*
Y0318996D02*
D03*
D60*
X0453839Y0321161D02*
D03*
Y0346358D02*
D03*
D61*
X0464173Y0329724D02*
D03*
Y0337795D02*
D03*
D62*
X0452953Y0328642D02*
D03*
Y0331201D02*
D03*
Y0333760D02*
D03*
Y0336319D02*
D03*
Y0338878D02*
D03*
D63*
X0421063Y0352559D02*
D03*
X0415158D02*
D03*
X0429724Y0334449D02*
D03*
X0435630D02*
D03*
D64*
X0414370Y0344390D02*
D03*
X0421850D02*
D03*
Y0333169D02*
D03*
X0418110D02*
D03*
X0414370D02*
D03*
D65*
X0435827Y0341142D02*
D03*
X0442126D02*
D03*
D66*
X0430512Y0264567D02*
D03*
X0449016D02*
D03*
D67*
X0443701Y0286417D02*
D03*
X0435827D02*
D03*
D68*
X0413878Y0264764D02*
D03*
X0343602D02*
D03*
D69*
X0407283Y0271850D02*
D03*
X0405315D02*
D03*
X0403346D02*
D03*
X0401378D02*
D03*
X0399410D02*
D03*
X0397441D02*
D03*
X0395472D02*
D03*
X0393504D02*
D03*
X0391535D02*
D03*
X0389567D02*
D03*
X0387598D02*
D03*
X0385630D02*
D03*
X0383661D02*
D03*
X0381693D02*
D03*
X0379724D02*
D03*
X0377756D02*
D03*
X0375787D02*
D03*
X0373819D02*
D03*
X0371850D02*
D03*
X0369882D02*
D03*
X0367913D02*
D03*
X0365945D02*
D03*
X0363976D02*
D03*
X0362008D02*
D03*
X0360039D02*
D03*
X0358071D02*
D03*
X0356102D02*
D03*
X0354134D02*
D03*
X0352165D02*
D03*
X0350197D02*
D03*
D70*
X0303543Y0280669D02*
D03*
D71*
X0447638Y0393110D02*
D03*
Y0360827D02*
D03*
D72*
X0323386Y0265945D02*
D03*
X0366614Y0385236D02*
D03*
D73*
X0293307Y0249016D02*
D03*
X0464173D02*
D03*
Y0408071D02*
D03*
X0293307D02*
D03*
D74*
X0381890Y0367126D02*
D03*
Y0327756D02*
D03*
M02*
