G04 Layer_Color=65535*
%FSAX25Y25*%
%MOIN*%
G70*
G01*
G75*
%ADD14C,0.00787*%
D14*
X0290835Y0340776D02*
Y0353776D01*
X0284835D02*
X0290835D01*
X0284835Y0340776D02*
Y0353776D01*
Y0341776D02*
X0290835D01*
X0284835Y0340776D02*
X0290835D01*
X0278831Y0341776D02*
Y0354776D01*
Y0341776D02*
X0284831D01*
Y0354776D01*
X0278831Y0353776D02*
X0284831D01*
X0278831Y0354776D02*
X0284831D01*
X0264291Y0332677D02*
Y0362677D01*
X0254291D02*
X0264291D01*
X0254291Y0332677D02*
Y0362677D01*
Y0332677D02*
X0264291D01*
X0271744Y0341677D02*
Y0354677D01*
Y0341677D02*
X0277744D01*
Y0354677D01*
X0271744Y0353677D02*
X0277744D01*
X0271744Y0354677D02*
X0277744D01*
X0271740Y0340677D02*
Y0353677D01*
X0265740D02*
X0271740D01*
X0265740Y0340677D02*
Y0353677D01*
Y0341677D02*
X0271740D01*
X0265740Y0340677D02*
X0271740D01*
X0288326Y0338916D02*
X0287014D01*
X0286358Y0338260D01*
Y0335636D01*
X0287014Y0334980D01*
X0288326D01*
X0288982Y0335636D01*
Y0338260D01*
X0288326Y0338916D01*
X0280453Y0334882D02*
Y0338818D01*
X0282421D01*
X0283077Y0338162D01*
Y0336850D01*
X0282421Y0336194D01*
X0280453D01*
X0281765D02*
X0283077Y0334882D01*
X0271595Y0338818D02*
X0272906D01*
X0272251D01*
Y0334882D01*
X0271595D01*
X0272906D01*
X0274874D02*
Y0338818D01*
X0276842D01*
X0277498Y0338162D01*
Y0336850D01*
X0276842Y0336194D01*
X0274874D01*
X0276186D02*
X0277498Y0334882D01*
X0266968Y0338818D02*
Y0338162D01*
X0268280Y0336850D01*
X0269592Y0338162D01*
Y0338818D01*
X0268280Y0336850D02*
Y0334882D01*
M02*
