G04 Layer_Physical_Order=1*
G04 Layer_Color=255*
%FSAX25Y25*%
%MOIN*%
G70*
G01*
G75*
%ADD10R,0.03150X0.03150*%
%ADD11C,0.01181*%
%ADD12R,0.05905X0.05905*%
%ADD13C,0.05905*%
D10*
X0287835Y0344626D02*
D03*
Y0350925D02*
D03*
X0281831Y0350925D02*
D03*
Y0344626D02*
D03*
X0274744Y0350827D02*
D03*
Y0344528D02*
D03*
X0268740Y0344528D02*
D03*
Y0350827D02*
D03*
D11*
X0266968Y0342756D02*
X0268740Y0344528D01*
X0256732Y0342756D02*
X0266968D01*
X0254484Y0345004D02*
X0256732Y0342756D01*
X0274744Y0344528D02*
X0274744Y0344528D01*
X0268740Y0344528D02*
X0274744D01*
X0254484Y0345004D02*
Y0352870D01*
X0259291Y0357677D01*
X0287835Y0350925D02*
X0287835Y0350925D01*
X0281831Y0350925D02*
X0287835D01*
X0281732Y0350827D02*
X0281831Y0350925D01*
X0274744Y0350827D02*
X0281732D01*
X0274744Y0350827D02*
X0274744Y0350827D01*
X0268740Y0350827D02*
X0274744D01*
X0262441D02*
X0268740D01*
X0259291Y0347677D02*
X0262441Y0350827D01*
X0281831Y0344528D02*
X0284784Y0341575D01*
X0281831Y0344528D02*
Y0344626D01*
X0284784Y0341575D02*
X0287835Y0344626D01*
X0284784Y0337736D02*
Y0341575D01*
X0282520Y0335472D02*
X0284784Y0337736D01*
X0261496Y0335472D02*
X0282520D01*
X0259291Y0337677D02*
X0261496Y0335472D01*
D12*
X0259291Y0337677D02*
D03*
D13*
Y0347677D02*
D03*
Y0357677D02*
D03*
M02*
