G04 Layer_Color=16711935*
%FSAX25Y25*%
%MOIN*%
G70*
G01*
G75*
%ADD18C,0.01000*%
%ADD19C,0.00600*%
D18*
X0291870Y0347890D02*
Y0353500D01*
X0252500Y0347890D02*
Y0353500D01*
X0272185Y0352500D02*
X0291870D01*
X0252500D02*
X0272185D01*
X0285870Y0354500D02*
X0291870Y0352500D01*
X0285870Y0350500D02*
X0291870Y0352500D01*
X0252500D02*
X0258500Y0350500D01*
X0252500Y0352500D02*
X0258500Y0354500D01*
X0245102Y0346496D02*
X0251106D01*
X0245102Y0315000D02*
X0251106D01*
X0246102Y0330748D02*
Y0346496D01*
Y0315000D02*
Y0330748D01*
X0244102Y0340496D02*
X0246102Y0346496D01*
X0248102Y0340496D01*
X0246102Y0315000D02*
X0248102Y0321000D01*
X0244102D02*
X0246102Y0315000D01*
D19*
X0259784Y0355256D02*
X0261783D01*
X0260783D01*
Y0361254D01*
X0259784Y0360254D01*
X0264782D02*
X0265781Y0361254D01*
X0267781D01*
X0268780Y0360254D01*
Y0356256D01*
X0267781Y0355256D01*
X0265781D01*
X0264782Y0356256D01*
Y0360254D01*
X0270780Y0355256D02*
Y0356256D01*
X0271780D01*
Y0355256D01*
X0270780D01*
X0275778Y0360254D02*
X0276778Y0361254D01*
X0278777D01*
X0279777Y0360254D01*
Y0356256D01*
X0278777Y0355256D01*
X0276778D01*
X0275778Y0356256D01*
Y0360254D01*
X0281776D02*
X0282776Y0361254D01*
X0284775D01*
X0285775Y0360254D01*
Y0356256D01*
X0284775Y0355256D01*
X0282776D01*
X0281776Y0356256D01*
Y0360254D01*
X0236084Y0321890D02*
X0235085Y0322889D01*
Y0324889D01*
X0236084Y0325888D01*
X0237084D01*
X0238084Y0324889D01*
X0239083Y0325888D01*
X0240083D01*
X0241083Y0324889D01*
Y0322889D01*
X0240083Y0321890D01*
X0239083D01*
X0238084Y0322889D01*
X0237084Y0321890D01*
X0236084D01*
X0238084Y0322889D02*
Y0324889D01*
X0241083Y0327888D02*
X0240083D01*
Y0328888D01*
X0241083D01*
Y0327888D01*
X0236084Y0332886D02*
X0235085Y0333886D01*
Y0335885D01*
X0236084Y0336885D01*
X0240083D01*
X0241083Y0335885D01*
Y0333886D01*
X0240083Y0332886D01*
X0236084D01*
Y0338884D02*
X0235085Y0339884D01*
Y0341883D01*
X0236084Y0342883D01*
X0240083D01*
X0241083Y0341883D01*
Y0339884D01*
X0240083Y0338884D01*
X0236084D01*
M02*
